M48
;GenerationSoftware,Autodesk,EAGLE,9.6.0*%
;CreationDate,2020-05-19T15:17:18Z*%
FMAT,2
ICI,OFF
METRIC,TZ,000.000
T3C0.305
T2C1.016
T1C3.302
%
G90
M71
T1
X74676Y100584
X106172Y126492
X2540Y22860
X22860Y22860
X28448Y22860
X48768Y22860
X54356Y22860
X74676Y22860
X80264Y22860
X100584Y22860
X106172Y22860
X126492Y22860
X2540Y48768
X22860Y48768
X28448Y48768
X48768Y48768
X54356Y48768
X74676Y48768
X80264Y48768
X100584Y48768
X106172Y48768
X126492Y48768
X2540Y74676
X22860Y74676
X28448Y74676
X48768Y74676
X54356Y74676
X74676Y74676
X80264Y74676
X100584Y74676
X106172Y74676
X126492Y74676
X2540Y100584
X22860Y100584
X28448Y100584
X48768Y100584
X54356Y100584
X126492Y126492
X80264Y100584
X100584Y100584
X106172Y100584
X126492Y100584
X2540Y126492
X22860Y126492
X28448Y126492
X48768Y126492
X54356Y126492
X74676Y126492
X80264Y126492
X100584Y126492
T2
X95504Y24130
X111252Y127762
X15240Y1270
X12700Y1270
X10160Y1270
X7620Y1270
X10160Y24130
X12700Y24130
X15240Y24130
X17780Y24130
X17780Y1270
X7620Y24130
X41148Y1270
X38608Y1270
X36068Y1270
X33528Y1270
X36068Y24130
X38608Y24130
X41148Y24130
X43688Y24130
X43688Y1270
X33528Y24130
X67056Y1270
X64516Y1270
X61976Y1270
X59436Y1270
X61976Y24130
X64516Y24130
X67056Y24130
X69596Y24130
X69596Y1270
X59436Y24130
X92964Y1270
X90424Y1270
X87884Y1270
X85344Y1270
X87884Y24130
X90424Y24130
X92964Y24130
X95504Y1270
X85344Y24130
X118872Y1270
X116332Y1270
X113792Y1270
X111252Y1270
X113792Y24130
X116332Y24130
X118872Y24130
X121412Y24130
X121412Y1270
X111252Y24130
X15240Y27178
X12700Y27178
X10160Y27178
X7620Y27178
X10160Y50038
X12700Y50038
X15240Y50038
X17780Y50038
X17780Y27178
X7620Y50038
X41148Y27178
X38608Y27178
X36068Y27178
X33528Y27178
X36068Y50038
X38608Y50038
X41148Y50038
X43688Y50038
X43688Y27178
X33528Y50038
X67056Y27178
X64516Y27178
X61976Y27178
X59436Y27178
X61976Y50038
X64516Y50038
X67056Y50038
X69596Y50038
X69596Y27178
X59436Y50038
X92964Y27178
X90424Y27178
X87884Y27178
X85344Y27178
X87884Y50038
X90424Y50038
X92964Y50038
X95504Y50038
X95504Y27178
X85344Y50038
X118872Y27178
X116332Y27178
X113792Y27178
X111252Y27178
X113792Y50038
X116332Y50038
X118872Y50038
X121412Y50038
X121412Y27178
X111252Y50038
X15240Y53086
X12700Y53086
X10160Y53086
X7620Y53086
X10160Y75946
X12700Y75946
X15240Y75946
X17780Y75946
X17780Y53086
X7620Y75946
X41148Y53086
X38608Y53086
X36068Y53086
X33528Y53086
X36068Y75946
X38608Y75946
X41148Y75946
X43688Y75946
X43688Y53086
X33528Y75946
X67056Y53086
X64516Y53086
X61976Y53086
X59436Y53086
X61976Y75946
X64516Y75946
X67056Y75946
X69596Y75946
X69596Y53086
X59436Y75946
X92964Y53086
X90424Y53086
X87884Y53086
X85344Y53086
X87884Y75946
X90424Y75946
X92964Y75946
X95504Y75946
X95504Y53086
X85344Y75946
X118872Y53086
X116332Y53086
X113792Y53086
X111252Y53086
X113792Y75946
X116332Y75946
X118872Y75946
X121412Y75946
X121412Y53086
X111252Y75946
X15240Y78994
X12700Y78994
X10160Y78994
X7620Y78994
X10160Y101854
X12700Y101854
X15240Y101854
X17780Y101854
X17780Y78994
X7620Y101854
X41148Y78994
X38608Y78994
X36068Y78994
X33528Y78994
X36068Y101854
X38608Y101854
X41148Y101854
X43688Y101854
X43688Y78994
X33528Y101854
X67056Y78994
X64516Y78994
X61976Y78994
X59436Y78994
X61976Y101854
X64516Y101854
X67056Y101854
X69596Y101854
X69596Y78994
X59436Y101854
X92964Y78994
X90424Y78994
X87884Y78994
X85344Y78994
X87884Y101854
X90424Y101854
X92964Y101854
X95504Y101854
X95504Y78994
X85344Y101854
X118872Y78994
X116332Y78994
X113792Y78994
X111252Y78994
X113792Y101854
X116332Y101854
X118872Y101854
X121412Y101854
X121412Y78994
X111252Y101854
X15240Y104902
X12700Y104902
X10160Y104902
X7620Y104902
X10160Y127762
X12700Y127762
X15240Y127762
X17780Y127762
X17780Y104902
X7620Y127762
X41148Y104902
X38608Y104902
X36068Y104902
X33528Y104902
X36068Y127762
X38608Y127762
X41148Y127762
X43688Y127762
X43688Y104902
X33528Y127762
X67056Y104902
X64516Y104902
X61976Y104902
X59436Y104902
X61976Y127762
X64516Y127762
X67056Y127762
X69596Y127762
X69596Y104902
X59436Y127762
X92964Y104902
X90424Y104902
X87884Y104902
X85344Y104902
X87884Y127762
X90424Y127762
X92964Y127762
X95504Y127762
X95504Y104902
X85344Y127762
X118872Y104902
X116332Y104902
X113792Y104902
X111252Y104902
X113792Y127762
X116332Y127762
X118872Y127762
X121412Y127762
X121412Y104902
T3
X6350Y48768
X6350Y46228
X4826Y28321
X1016Y26797
X9271Y40640
X17145Y38354
X8890Y32258
X7620Y43053
X20701Y46228
X19050Y29718
X1270Y38608
X11430Y46228
X12700Y38354
X6477Y40767
X1905Y27940
X1143Y32258
X4572Y45212
X3683Y38100
X8890Y38481
X5080Y36195
X9144Y39497
X7112Y33782
X20828Y31877
X19685Y35560
X20447Y43688
X13970Y36449
X14478Y42037
X12700Y45085
X16383Y45339
X12319Y40259
X24130Y44958
X18161Y41224
X13970Y32334
X21717Y38989
X13970Y33274
X21717Y40005
X32512Y42672
X35052Y30861
X29718Y40132
X47498Y37084
X35052Y44704
X33528Y34671
X44196Y33909
X41910Y36449
X47752Y41656
X27178Y34163
X30734Y34163
X34798Y29718
X30734Y30988
X45593Y27813
X39878Y29718
X39878Y30988
X49403Y38608
X37338Y47498
X42418Y47498
X42037Y39624
X32258Y48768
X32258Y46228
X30734Y28321
X26924Y26797
X35179Y40640
X43053Y38354
X34798Y32258
X33528Y43053
X46609Y46228
X44958Y29718
X27178Y38608
X37338Y46228
X38608Y38354
X32385Y40767
X27813Y27940
X27051Y32258
X30480Y45212
X29591Y38100
X34798Y38481
X30988Y36195
X35052Y39497
X33020Y33782
X46736Y31877
X45593Y35560
X46355Y43688
X39878Y36449
X40386Y42037
X38608Y45085
X42291Y45339
X38227Y40259
X50038Y44958
X44069Y41224
X39878Y32334
X47625Y38989
X39878Y33274
X47625Y40005
X58420Y42672
X60960Y30861
X55626Y40132
X73406Y37084
X60960Y44704
X59436Y34671
X70104Y33909
X67818Y36449
X73660Y41656
X53086Y34163
X56642Y34163
X60706Y29718
X56642Y30988
X71501Y27813
X65786Y29718
X65786Y30988
X75311Y38608
X63246Y47498
X68326Y47498
X67945Y39624
X58166Y48768
X58166Y46228
X56642Y28321
X52832Y26797
X61087Y40640
X68961Y38354
X60706Y32258
X59436Y43053
X72517Y46228
X70866Y29718
X53086Y38608
X63246Y46228
X64516Y38354
X58293Y40767
X53721Y27940
X52959Y32258
X56388Y45212
X55499Y38100
X60706Y38481
X56896Y36195
X60960Y39497
X58928Y33782
X72644Y31877
X71501Y35560
X72263Y43688
X65786Y36449
X66294Y42037
X64516Y45085
X68199Y45339
X64135Y40259
X75946Y44958
X69977Y41224
X65786Y32334
X73533Y38989
X65786Y33274
X73533Y40005
X84328Y42672
X86868Y30861
X81534Y40132
X99314Y37084
X86868Y44704
X85344Y34671
X96012Y33909
X93726Y36449
X99568Y41656
X78994Y34163
X82550Y34163
X86614Y29718
X82550Y30988
X97409Y27813
X91694Y29718
X91694Y30988
X101219Y38608
X89154Y47498
X94234Y47498
X93853Y39624
X84074Y48768
X84074Y46228
X82550Y28321
X78740Y26797
X86995Y40640
X94869Y38354
X86614Y32258
X85344Y43053
X98425Y46228
X96774Y29718
X78994Y38608
X89154Y46228
X90424Y38354
X84201Y40767
X79629Y27940
X78867Y32258
X82296Y45212
X81407Y38100
X86614Y38481
X82804Y36195
X86868Y39497
X84836Y33782
X98552Y31877
X97409Y35560
X98171Y43688
X91694Y36449
X92202Y42037
X90424Y45085
X94107Y45339
X90043Y40259
X101854Y44958
X95885Y41224
X91694Y32334
X99441Y38989
X91694Y33274
X99441Y40005
X110236Y42672
X112776Y30861
X107442Y40132
X125222Y37084
X112776Y44704
X111252Y34671
X121920Y33909
X119634Y36449
X125476Y41656
X104902Y34163
X108458Y34163
X112522Y29718
X108458Y30988
X123317Y27813
X117602Y29718
X117602Y30988
X127127Y38608
X115062Y47498
X120142Y47498
X119761Y39624
X109982Y48768
X109982Y46228
X108458Y28321
X104648Y26797
X112903Y40640
X120777Y38354
X112522Y32258
X111252Y43053
X124333Y46228
X122682Y29718
X104902Y38608
X115062Y46228
X116332Y38354
X110109Y40767
X105537Y27940
X104775Y32258
X108204Y45212
X107315Y38100
X112522Y38481
X108712Y36195
X112776Y39497
X110744Y33782
X124460Y31877
X123317Y35560
X124079Y43688
X117602Y36449
X118110Y42037
X116332Y45085
X120015Y45339
X115951Y40259
X127762Y44958
X121793Y41224
X117602Y32334
X125349Y38989
X117602Y33274
X125349Y40005
X6604Y68580
X9144Y56769
X3810Y66040
X21590Y62992
X9144Y70612
X7620Y60579
X18288Y59817
X16002Y62357
X21844Y67564
X1270Y60071
X4826Y60071
X8890Y55626
X4826Y56896
X19685Y53721
X13970Y55626
X13970Y56896
X23495Y64516
X11430Y73406
X16510Y73406
X16129Y65532
X6350Y74676
X6350Y72136
X4826Y54229
X1016Y52705
X9271Y66548
X17145Y64262
X8890Y58166
X7620Y68961
X20701Y72136
X19050Y55626
X1270Y64516
X11430Y72136
X12700Y64262
X6477Y66675
X1905Y53848
X1143Y58166
X4572Y71120
X3683Y64008
X8890Y64389
X5080Y62103
X9144Y65405
X7112Y59690
X20828Y57785
X19685Y61468
X20447Y69596
X13970Y62357
X14478Y67945
X12700Y70993
X16383Y71247
X12319Y66167
X24130Y70866
X18161Y67132
X13970Y58242
X21717Y64897
X13970Y59182
X21717Y65913
X32512Y68580
X35052Y56769
X29718Y66040
X47498Y62992
X35052Y70612
X33528Y60579
X44196Y59817
X41910Y62357
X47752Y67564
X27178Y60071
X30734Y60071
X34798Y55626
X30734Y56896
X45593Y53721
X39878Y55626
X39878Y56896
X49403Y64516
X37338Y73406
X42418Y73406
X42037Y65532
X32258Y74676
X32258Y72136
X30734Y54229
X26924Y52705
X35179Y66548
X43053Y64262
X34798Y58166
X33528Y68961
X46609Y72136
X44958Y55626
X27178Y64516
X37338Y72136
X38608Y64262
X32385Y66675
X27813Y53848
X27051Y58166
X30480Y71120
X29591Y64008
X34798Y64389
X30988Y62103
X35052Y65405
X33020Y59690
X46736Y57785
X45593Y61468
X46355Y69596
X39878Y62357
X40386Y67945
X38608Y70993
X42291Y71247
X38227Y66167
X50038Y70866
X44069Y67132
X39878Y58242
X47625Y64897
X39878Y59182
X47625Y65913
X58420Y68580
X60960Y56769
X55626Y66040
X73406Y62992
X60960Y70612
X59436Y60579
X70104Y59817
X67818Y62357
X73660Y67564
X53086Y60071
X56642Y60071
X60706Y55626
X56642Y56896
X71501Y53721
X65786Y55626
X65786Y56896
X75311Y64516
X63246Y73406
X68326Y73406
X67945Y65532
X58166Y74676
X58166Y72136
X56642Y54229
X52832Y52705
X61087Y66548
X68961Y64262
X60706Y58166
X59436Y68961
X72517Y72136
X70866Y55626
X53086Y64516
X63246Y72136
X64516Y64262
X58293Y66675
X53721Y53848
X52959Y58166
X56388Y71120
X55499Y64008
X60706Y64389
X56896Y62103
X60960Y65405
X58928Y59690
X72644Y57785
X71501Y61468
X72263Y69596
X65786Y62357
X66294Y67945
X64516Y70993
X68199Y71247
X64135Y66167
X75946Y70866
X69977Y67132
X65786Y58242
X73533Y64897
X65786Y59182
X73533Y65913
X84328Y68580
X86868Y56769
X81534Y66040
X99314Y62992
X86868Y70612
X85344Y60579
X96012Y59817
X93726Y62357
X99568Y67564
X78994Y60071
X82550Y60071
X86614Y55626
X82550Y56896
X97409Y53721
X91694Y55626
X91694Y56896
X101219Y64516
X89154Y73406
X94234Y73406
X93853Y65532
X84074Y74676
X84074Y72136
X82550Y54229
X78740Y52705
X86995Y66548
X94869Y64262
X86614Y58166
X85344Y68961
X98425Y72136
X96774Y55626
X78994Y64516
X89154Y72136
X90424Y64262
X84201Y66675
X79629Y53848
X78867Y58166
X82296Y71120
X81407Y64008
X86614Y64389
X82804Y62103
X86868Y65405
X84836Y59690
X98552Y57785
X97409Y61468
X98171Y69596
X91694Y62357
X92202Y67945
X90424Y70993
X94107Y71247
X90043Y66167
X101854Y70866
X95885Y67132
X91694Y58242
X99441Y64897
X91694Y59182
X99441Y65913
X110236Y68580
X112776Y56769
X107442Y66040
X125222Y62992
X112776Y70612
X111252Y60579
X121920Y59817
X119634Y62357
X125476Y67564
X104902Y60071
X108458Y60071
X112522Y55626
X108458Y56896
X123317Y53721
X117602Y55626
X117602Y56896
X127127Y64516
X115062Y73406
X120142Y73406
X119761Y65532
X109982Y74676
X109982Y72136
X108458Y54229
X104648Y52705
X112903Y66548
X120777Y64262
X112522Y58166
X111252Y68961
X124333Y72136
X122682Y55626
X104902Y64516
X115062Y72136
X116332Y64262
X110109Y66675
X105537Y53848
X104775Y58166
X108204Y71120
X107315Y64008
X112522Y64389
X108712Y62103
X112776Y65405
X110744Y59690
X124460Y57785
X123317Y61468
X124079Y69596
X117602Y62357
X118110Y67945
X116332Y70993
X120015Y71247
X115951Y66167
X127762Y70866
X121793Y67132
X117602Y58242
X125349Y64897
X117602Y59182
X125349Y65913
X6604Y94488
X9144Y82677
X3810Y91948
X21590Y88900
X9144Y96520
X7620Y86487
X18288Y85725
X16002Y88265
X21844Y93472
X1270Y85979
X98171Y17780
X8890Y81534
X4826Y82804
X19685Y79629
X13970Y81534
X13970Y82804
X23495Y90424
X11430Y99314
X16510Y99314
X16129Y91440
X6350Y100584
X6350Y98044
X4826Y80137
X1016Y78613
X9271Y92456
X17145Y90170
X8890Y84074
X7620Y94869
X20701Y98044
X19050Y81534
X1270Y90424
X11430Y98044
X12700Y90170
X6477Y92583
X1905Y79756
X1143Y84074
X4572Y97028
X3683Y89916
X8890Y90297
X5080Y88011
X9144Y91313
X7112Y85598
X20828Y83693
X19685Y87376
X20447Y95504
X13970Y88265
X14478Y93853
X12700Y96901
X16383Y97155
X12319Y92075
X24130Y96774
X18161Y93040
X13970Y84150
X21717Y90805
X13970Y85090
X21717Y91821
X32512Y94488
X35052Y82677
X29718Y91948
X47498Y88900
X35052Y96520
X33528Y86487
X44196Y85725
X41910Y88265
X47752Y93472
X27178Y85979
X30734Y85979
X34798Y81534
X30734Y82804
X45593Y79629
X39878Y81534
X39878Y82804
X49403Y90424
X37338Y99314
X42418Y99314
X42037Y91440
X32258Y100584
X32258Y98044
X30734Y80137
X26924Y78613
X35179Y92456
X43053Y90170
X34798Y84074
X33528Y94869
X46609Y98044
X44958Y81534
X27178Y90424
X37338Y98044
X38608Y90170
X32385Y92583
X27813Y79756
X27051Y84074
X30480Y97028
X29591Y89916
X34798Y90297
X30988Y88011
X35052Y91313
X33020Y85598
X46736Y83693
X45593Y87376
X46355Y95504
X39878Y88265
X40386Y93853
X38608Y96901
X42291Y97155
X38227Y92075
X50038Y96774
X44069Y93040
X39878Y84150
X47625Y90805
X39878Y85090
X47625Y91821
X58420Y94488
X60960Y82677
X55626Y91948
X73406Y88900
X60960Y96520
X59436Y86487
X70104Y85725
X67818Y88265
X73660Y93472
X53086Y85979
X56642Y85979
X60706Y81534
X56642Y82804
X71501Y79629
X65786Y81534
X65786Y82804
X75311Y90424
X63246Y99314
X68326Y99314
X67945Y91440
X58166Y100584
X58166Y98044
X56642Y80137
X52832Y78613
X61087Y92456
X68961Y90170
X60706Y84074
X59436Y94869
X72517Y98044
X70866Y81534
X53086Y90424
X63246Y98044
X64516Y90170
X58293Y92583
X53721Y79756
X52959Y84074
X56388Y97028
X55499Y89916
X60706Y90297
X56896Y88011
X60960Y91313
X58928Y85598
X72644Y83693
X71501Y87376
X72263Y95504
X65786Y88265
X66294Y93853
X64516Y96901
X68199Y97155
X64135Y92075
X75946Y96774
X69977Y93040
X65786Y84150
X73533Y90805
X65786Y85090
X73533Y91821
X84328Y94488
X86868Y82677
X81534Y91948
X99314Y88900
X86868Y96520
X85344Y86487
X96012Y85725
X93726Y88265
X99568Y93472
X78994Y85979
X82550Y85979
X86614Y81534
X82550Y82804
X97409Y79629
X91694Y81534
X91694Y82804
X101219Y90424
X89154Y99314
X94234Y99314
X93853Y91440
X84074Y100584
X84074Y98044
X82550Y80137
X78740Y78613
X86995Y92456
X94869Y90170
X86614Y84074
X85344Y94869
X98425Y98044
X96774Y81534
X78994Y90424
X89154Y98044
X90424Y90170
X84201Y92583
X79629Y79756
X78867Y84074
X82296Y97028
X81407Y89916
X86614Y90297
X82804Y88011
X86868Y91313
X84836Y85598
X98552Y83693
X97409Y87376
X98171Y95504
X91694Y88265
X92202Y93853
X90424Y96901
X94107Y97155
X90043Y92075
X101854Y96774
X95885Y93040
X91694Y84150
X99441Y90805
X91694Y85090
X99441Y91821
X110236Y94488
X112776Y82677
X107442Y91948
X125222Y88900
X112776Y96520
X111252Y86487
X121920Y85725
X119634Y88265
X125476Y93472
X104902Y85979
X108458Y85979
X112522Y81534
X108458Y82804
X123317Y79629
X117602Y81534
X117602Y82804
X127127Y90424
X115062Y99314
X120142Y99314
X119761Y91440
X109982Y100584
X109982Y98044
X108458Y80137
X104648Y78613
X112903Y92456
X120777Y90170
X112522Y84074
X111252Y94869
X124333Y98044
X122682Y81534
X104902Y90424
X115062Y98044
X116332Y90170
X110109Y92583
X105537Y79756
X104775Y84074
X108204Y97028
X107315Y89916
X112522Y90297
X108712Y88011
X112776Y91313
X110744Y85598
X124460Y83693
X123317Y87376
X124079Y95504
X117602Y88265
X118110Y93853
X116332Y96901
X120015Y97155
X115951Y92075
X127762Y96774
X121793Y93040
X117602Y84150
X125349Y90805
X117602Y85090
X125349Y91821
X6604Y120396
X9144Y108585
X3810Y117856
X21590Y114808
X9144Y122428
X7620Y112395
X18288Y111633
X16002Y114173
X21844Y119380
X1270Y111887
X4826Y111887
X8890Y107442
X4826Y108712
X19685Y105537
X13970Y107442
X13970Y108712
X23495Y116332
X11430Y125222
X16510Y125222
X16129Y117348
X6350Y126492
X6350Y123952
X4826Y106045
X1016Y104521
X9271Y118364
X17145Y116078
X8890Y109982
X7620Y120777
X20701Y123952
X19050Y107442
X1270Y116332
X11430Y123952
X12700Y116078
X6477Y118491
X1905Y105664
X1143Y109982
X4572Y122936
X3683Y115824
X8890Y116205
X5080Y113919
X9144Y117221
X7112Y111506
X20828Y109601
X19685Y113284
X20447Y121412
X13970Y114173
X14478Y119761
X12700Y122809
X16383Y123063
X12319Y117983
X24130Y122682
X18161Y118948
X13970Y110058
X21717Y116713
X13970Y110998
X21717Y117729
X32512Y120396
X35052Y108585
X29718Y117856
X47498Y114808
X35052Y122428
X33528Y112395
X44196Y111633
X41910Y114173
X47752Y119380
X27178Y111887
X30734Y111887
X34798Y107442
X30734Y108712
X45593Y105537
X39878Y107442
X39878Y108712
X49403Y116332
X37338Y125222
X42418Y125222
X42037Y117348
X32258Y126492
X32258Y123952
X30734Y106045
X26924Y104521
X35179Y118364
X43053Y116078
X34798Y109982
X33528Y120777
X46609Y123952
X44958Y107442
X27178Y116332
X37338Y123952
X38608Y116078
X32385Y118491
X27813Y105664
X27051Y109982
X30480Y122936
X29591Y115824
X34798Y116205
X30988Y113919
X35052Y117221
X33020Y111506
X46736Y109601
X45593Y113284
X46355Y121412
X39878Y114173
X40386Y119761
X38608Y122809
X42291Y123063
X38227Y117983
X50038Y122682
X44069Y118948
X39878Y110058
X47625Y116713
X39878Y110998
X47625Y117729
X58420Y120396
X60960Y108585
X55626Y117856
X73406Y114808
X60960Y122428
X59436Y112395
X70104Y111633
X67818Y114173
X73660Y119380
X53086Y111887
X56642Y111887
X60706Y107442
X56642Y108712
X71501Y105537
X65786Y107442
X65786Y108712
X75311Y116332
X63246Y125222
X68326Y125222
X67945Y117348
X58166Y126492
X58166Y123952
X56642Y106045
X52832Y104521
X61087Y118364
X68961Y116078
X60706Y109982
X59436Y120777
X72517Y123952
X70866Y107442
X53086Y116332
X63246Y123952
X64516Y116078
X58293Y118491
X53721Y105664
X52959Y109982
X56388Y122936
X55499Y115824
X60706Y116205
X56896Y113919
X60960Y117221
X58928Y111506
X72644Y109601
X6604Y16764
X72263Y121412
X65786Y114173
X66294Y119761
X64516Y122809
X68199Y123063
X64135Y117983
X75946Y122682
X69977Y118948
X65786Y110058
X73533Y116713
X65786Y110998
X73533Y117729
X84328Y120396
X86868Y108585
X81534Y117856
X99314Y114808
X86868Y122428
X85344Y112395
X96012Y111633
X93726Y114173
X99568Y119380
X78994Y111887
X82550Y111887
X86614Y107442
X82550Y108712
X97409Y105537
X91694Y107442
X91694Y108712
X101219Y116332
X89154Y125222
X94234Y125222
X93853Y117348
X84074Y126492
X84074Y123952
X82550Y106045
X78740Y104521
X86995Y118364
X94869Y116078
X86614Y109982
X85344Y120777
X98425Y123952
X96774Y107442
X78994Y116332
X89154Y123952
X90424Y116078
X84201Y118491
X79629Y105664
X78867Y109982
X82296Y122936
X81407Y115824
X86614Y116205
X82804Y113919
X86868Y117221
X84836Y111506
X98552Y109601
X97409Y113284
X98171Y121412
X91694Y114173
X92202Y119761
X90424Y122809
X94107Y123063
X90043Y117983
X101854Y122682
X95885Y118948
X91694Y110058
X99441Y116713
X91694Y110998
X99441Y117729
X110236Y120396
X112776Y108585
X107442Y117856
X125222Y114808
X112776Y122428
X111252Y112395
X121920Y111633
X119634Y114173
X125476Y119380
X104902Y111887
X108458Y111887
X112522Y107442
X108458Y108712
X123317Y105537
X117602Y107442
X117602Y108712
X127127Y116332
X115062Y125222
X120142Y125222
X119761Y117348
X109982Y126492
X109982Y123952
X108458Y106045
X104648Y104521
X112903Y118364
X120777Y116078
X112522Y109982
X111252Y120777
X124333Y123952
X122682Y107442
X104902Y116332
X115062Y123952
X116332Y116078
X110109Y118491
X105537Y105664
X104775Y109982
X108204Y122936
X107315Y115824
X112522Y116205
X108712Y113919
X112776Y117221
X110744Y111506
X124460Y109601
X123317Y113284
X124079Y121412
X117602Y114173
X118110Y119761
X116332Y122809
X120015Y123063
X115951Y117983
X127762Y122682
X121793Y118948
X117602Y110058
X125349Y116713
X117602Y110998
X125349Y117729
X9144Y4953
X3810Y14224
X21590Y11176
X9144Y18796
X7620Y8763
X18288Y8001
X16002Y10541
X21844Y15748
X1270Y8255
X4826Y8255
X8890Y3810
X4826Y5080
X19685Y1905
X13970Y3810
X13970Y5080
X23495Y12700
X11430Y21590
X16510Y21590
X16129Y13716
X6350Y22860
X6350Y20320
X4826Y2413
X1016Y889
X9271Y14732
X17145Y12446
X8890Y6350
X7620Y17145
X20701Y20320
X19050Y3810
X1270Y12700
X11430Y20320
X12700Y12446
X6477Y14859
X1905Y2032
X1143Y6350
X4572Y19304
X3683Y12192
X8890Y12573
X5080Y10287
X9144Y13589
X7112Y7874
X20828Y5969
X19685Y9652
X20447Y17780
X13970Y10541
X14478Y16129
X12700Y19177
X16383Y19431
X12319Y14351
X24130Y19050
X18161Y15316
X13970Y6426
X21717Y13081
X13970Y7366
X21717Y14097
X32512Y16764
X35052Y4953
X29718Y14224
X47498Y11176
X35052Y18796
X33528Y8763
X44196Y8001
X41910Y10541
X47752Y15748
X27178Y8255
X30734Y8255
X34798Y3810
X30734Y5080
X45593Y1905
X39878Y3810
X39878Y5080
X49403Y12700
X37338Y21590
X42418Y21590
X42037Y13716
X32258Y22860
X32258Y20320
X30734Y2413
X26924Y889
X35179Y14732
X43053Y12446
X34798Y6350
X33528Y17145
X46609Y20320
X44958Y3810
X27178Y12700
X37338Y20320
X4826Y85979
X38608Y12446
X32385Y14859
X27813Y2032
X27051Y6350
X30480Y19304
X29591Y12192
X34798Y12573
X30988Y10287
X35052Y13589
X33020Y7874
X46736Y5969
X45593Y9652
X46355Y17780
X39878Y10541
X40386Y16129
X38608Y19177
X42291Y19431
X38227Y14351
X50038Y19050
X44069Y15316
X39878Y6426
X47625Y13081
X39878Y7366
X47625Y14097
X58420Y16764
X60960Y4953
X55626Y14224
X73406Y11176
X60960Y18796
X59436Y8763
X70104Y8001
X67818Y10541
X73660Y15748
X53086Y8255
X56642Y8255
X60706Y3810
X56642Y5080
X71501Y1905
X65786Y3810
X65786Y5080
X75311Y12700
X63246Y21590
X68326Y21590
X67945Y13716
X58166Y22860
X58166Y20320
X56642Y2413
X52832Y889
X61087Y14732
X68961Y12446
X60706Y6350
X59436Y17145
X72517Y20320
X70866Y3810
X53086Y12700
X63246Y20320
X64516Y12446
X58293Y14859
X53721Y2032
X52959Y6350
X56388Y19304
X55499Y12192
X60706Y12573
X56896Y10287
X60960Y13589
X58928Y7874
X72644Y5969
X71501Y9652
X72263Y17780
X65786Y10541
X66294Y16129
X64516Y19177
X68199Y19431
X64135Y14351
X75946Y19050
X69977Y15316
X65786Y6426
X73533Y13081
X65786Y7366
X73533Y14097
X84328Y16764
X86868Y4953
X81534Y14224
X99314Y11176
X86868Y18796
X85344Y8763
X96012Y8001
X93726Y10541
X99568Y15748
X78994Y8255
X82550Y8255
X86614Y3810
X82550Y5080
X97409Y1905
X91694Y3810
X91694Y5080
X101219Y12700
X89154Y21590
X94234Y21590
X93853Y13716
X84074Y22860
X84074Y20320
X82550Y2413
X78740Y889
X86995Y14732
X94869Y12446
X86614Y6350
X85344Y17145
X98425Y20320
X96774Y3810
X78994Y12700
X89154Y20320
X90424Y12446
X84201Y14859
X79629Y2032
X78867Y6350
X82296Y19304
X81407Y12192
X86614Y12573
X82804Y10287
X86868Y13589
X84836Y7874
X98552Y5969
X97409Y9652
X91694Y10541
X92202Y16129
X90424Y19177
X94107Y19431
X90043Y14351
X101854Y19050
X95885Y15316
X91694Y6426
X99441Y13081
X91694Y7366
X99441Y14097
X110236Y16764
X112776Y4953
X107442Y14224
X125222Y11176
X112776Y18796
X111252Y8763
X121920Y8001
X119634Y10541
X125476Y15748
X104902Y8255
X108458Y8255
X112522Y3810
X108458Y5080
X123317Y1905
X117602Y3810
X117602Y5080
X127127Y12700
X115062Y21590
X120142Y21590
X119761Y13716
X109982Y22860
X109982Y20320
X108458Y2413
X104648Y889
X112903Y14732
X120777Y12446
X112522Y6350
X111252Y17145
X124333Y20320
X122682Y3810
X104902Y12700
X115062Y20320
X116332Y12446
X110109Y14859
X105537Y2032
X104775Y6350
X108204Y19304
X107315Y12192
X112522Y12573
X108712Y10287
X112776Y13589
X110744Y7874
X124460Y5969
X123317Y9652
X124079Y17780
X117602Y10541
X118110Y16129
X116332Y19177
X120015Y19431
X115951Y14351
X127762Y19050
X121793Y15316
X117602Y6426
X125349Y13081
X117602Y7366
X125349Y14097
X6604Y42672
X9144Y30861
X3810Y40132
X21590Y37084
X9144Y44704
X7620Y34671
X18288Y33909
X16002Y36449
X21844Y41656
X1270Y34163
X4826Y34163
X8890Y29718
X4826Y30988
X19685Y27813
X13970Y29718
X13970Y30988
X23495Y38608
X11430Y47498
X16510Y47498
X16129Y39624
X71501Y113284
M30