G04 EAGLE Gerber RS-274X export*
G75*
%MOMM*%
%FSLAX34Y34*%
%LPD*%
%INSoldermask Top*%
%IPPOS*%
%AMOC8*
5,1,8,0,0,1.08239X$1,22.5*%
G01*
%ADD10C,3.505200*%
%ADD11C,1.203200*%
%ADD12R,1.303200X1.203200*%
%ADD13R,2.203200X1.403200*%
%ADD14R,1.553200X0.803200*%
%ADD15C,2.082800*%
%ADD16C,0.505344*%
%ADD17R,1.203200X1.303200*%
%ADD18R,1.303200X0.603200*%
%ADD19R,1.103200X1.003200*%
%ADD20R,0.903200X0.623200*%
%ADD21C,1.270000*%
%ADD22C,1.703200*%


D10*
X25400Y228600D03*
X228600Y228600D03*
D11*
X245110Y8890D03*
X7620Y246380D03*
D12*
X40250Y63500D03*
X23250Y63500D03*
X40250Y36830D03*
X23250Y36830D03*
D13*
X14050Y155000D03*
X14050Y99000D03*
D14*
X50800Y142000D03*
X50800Y132000D03*
X50800Y122000D03*
X50800Y112000D03*
D15*
X101600Y241300D03*
X127000Y241300D03*
X152400Y241300D03*
X177800Y241300D03*
D13*
X239950Y99000D03*
X239950Y155000D03*
D14*
X203200Y112000D03*
X203200Y122000D03*
X203200Y132000D03*
X203200Y142000D03*
D12*
X16900Y190500D03*
X33900Y190500D03*
D16*
X30680Y174940D02*
X30680Y167960D01*
X30680Y174940D02*
X37660Y174940D01*
X37660Y167960D01*
X30680Y167960D01*
X30680Y172760D02*
X37660Y172760D01*
X13140Y174940D02*
X13140Y167960D01*
X13140Y174940D02*
X20120Y174940D01*
X20120Y167960D01*
X13140Y167960D01*
X13140Y172760D02*
X20120Y172760D01*
D17*
X171450Y110100D03*
X171450Y93100D03*
D18*
X149500Y113440D03*
X149500Y119940D03*
X149500Y126440D03*
X149500Y132940D03*
X104500Y132940D03*
X104500Y126440D03*
X104500Y119940D03*
X104500Y113440D03*
D17*
X76200Y116450D03*
X76200Y99450D03*
D16*
X223320Y86040D02*
X223320Y79060D01*
X216340Y79060D01*
X216340Y86040D01*
X223320Y86040D01*
X223320Y83860D02*
X216340Y83860D01*
X240860Y86040D02*
X240860Y79060D01*
X233880Y79060D01*
X233880Y86040D01*
X240860Y86040D01*
X240860Y83860D02*
X233880Y83860D01*
D12*
X237100Y63500D03*
X220100Y63500D03*
D15*
X152400Y12700D03*
X127000Y12700D03*
X101600Y12700D03*
X76200Y12700D03*
D19*
X117000Y165710D03*
X117000Y146710D03*
X138000Y156210D03*
D17*
X101600Y166760D03*
X101600Y183760D03*
X76200Y150250D03*
X76200Y167250D03*
D20*
X117500Y86210D03*
X117500Y99210D03*
X136500Y86210D03*
X136500Y99210D03*
X136500Y92710D03*
D15*
X76200Y241300D03*
X177800Y12700D03*
D10*
X284480Y228600D03*
X487680Y228600D03*
D11*
X504190Y8890D03*
X266700Y246380D03*
D12*
X299330Y63500D03*
X282330Y63500D03*
X299330Y36830D03*
X282330Y36830D03*
D13*
X273130Y155000D03*
X273130Y99000D03*
D14*
X309880Y142000D03*
X309880Y132000D03*
X309880Y122000D03*
X309880Y112000D03*
D15*
X360680Y241300D03*
X386080Y241300D03*
X411480Y241300D03*
X436880Y241300D03*
D13*
X499030Y99000D03*
X499030Y155000D03*
D14*
X462280Y112000D03*
X462280Y122000D03*
X462280Y132000D03*
X462280Y142000D03*
D12*
X275980Y190500D03*
X292980Y190500D03*
D16*
X289760Y174940D02*
X289760Y167960D01*
X289760Y174940D02*
X296740Y174940D01*
X296740Y167960D01*
X289760Y167960D01*
X289760Y172760D02*
X296740Y172760D01*
X272220Y174940D02*
X272220Y167960D01*
X272220Y174940D02*
X279200Y174940D01*
X279200Y167960D01*
X272220Y167960D01*
X272220Y172760D02*
X279200Y172760D01*
D17*
X430530Y110100D03*
X430530Y93100D03*
D18*
X408580Y113440D03*
X408580Y119940D03*
X408580Y126440D03*
X408580Y132940D03*
X363580Y132940D03*
X363580Y126440D03*
X363580Y119940D03*
X363580Y113440D03*
D17*
X335280Y116450D03*
X335280Y99450D03*
D16*
X482400Y86040D02*
X482400Y79060D01*
X475420Y79060D01*
X475420Y86040D01*
X482400Y86040D01*
X482400Y83860D02*
X475420Y83860D01*
X499940Y86040D02*
X499940Y79060D01*
X492960Y79060D01*
X492960Y86040D01*
X499940Y86040D01*
X499940Y83860D02*
X492960Y83860D01*
D12*
X496180Y63500D03*
X479180Y63500D03*
D15*
X411480Y12700D03*
X386080Y12700D03*
X360680Y12700D03*
X335280Y12700D03*
D19*
X376080Y165710D03*
X376080Y146710D03*
X397080Y156210D03*
D17*
X360680Y166760D03*
X360680Y183760D03*
X335280Y150250D03*
X335280Y167250D03*
D20*
X376580Y86210D03*
X376580Y99210D03*
X395580Y86210D03*
X395580Y99210D03*
X395580Y92710D03*
D15*
X335280Y241300D03*
X436880Y12700D03*
D10*
X543560Y228600D03*
X746760Y228600D03*
D11*
X763270Y8890D03*
X525780Y246380D03*
D12*
X558410Y63500D03*
X541410Y63500D03*
X558410Y36830D03*
X541410Y36830D03*
D13*
X532210Y155000D03*
X532210Y99000D03*
D14*
X568960Y142000D03*
X568960Y132000D03*
X568960Y122000D03*
X568960Y112000D03*
D15*
X619760Y241300D03*
X645160Y241300D03*
X670560Y241300D03*
X695960Y241300D03*
D13*
X758110Y99000D03*
X758110Y155000D03*
D14*
X721360Y112000D03*
X721360Y122000D03*
X721360Y132000D03*
X721360Y142000D03*
D12*
X535060Y190500D03*
X552060Y190500D03*
D16*
X548840Y174940D02*
X548840Y167960D01*
X548840Y174940D02*
X555820Y174940D01*
X555820Y167960D01*
X548840Y167960D01*
X548840Y172760D02*
X555820Y172760D01*
X531300Y174940D02*
X531300Y167960D01*
X531300Y174940D02*
X538280Y174940D01*
X538280Y167960D01*
X531300Y167960D01*
X531300Y172760D02*
X538280Y172760D01*
D17*
X689610Y110100D03*
X689610Y93100D03*
D18*
X667660Y113440D03*
X667660Y119940D03*
X667660Y126440D03*
X667660Y132940D03*
X622660Y132940D03*
X622660Y126440D03*
X622660Y119940D03*
X622660Y113440D03*
D17*
X594360Y116450D03*
X594360Y99450D03*
D16*
X741480Y86040D02*
X741480Y79060D01*
X734500Y79060D01*
X734500Y86040D01*
X741480Y86040D01*
X741480Y83860D02*
X734500Y83860D01*
X759020Y86040D02*
X759020Y79060D01*
X752040Y79060D01*
X752040Y86040D01*
X759020Y86040D01*
X759020Y83860D02*
X752040Y83860D01*
D12*
X755260Y63500D03*
X738260Y63500D03*
D15*
X670560Y12700D03*
X645160Y12700D03*
X619760Y12700D03*
X594360Y12700D03*
D19*
X635160Y165710D03*
X635160Y146710D03*
X656160Y156210D03*
D17*
X619760Y166760D03*
X619760Y183760D03*
X594360Y150250D03*
X594360Y167250D03*
D20*
X635660Y86210D03*
X635660Y99210D03*
X654660Y86210D03*
X654660Y99210D03*
X654660Y92710D03*
D15*
X594360Y241300D03*
X695960Y12700D03*
D10*
X802640Y228600D03*
X1005840Y228600D03*
D11*
X1022350Y8890D03*
X784860Y246380D03*
D12*
X817490Y63500D03*
X800490Y63500D03*
X817490Y36830D03*
X800490Y36830D03*
D13*
X791290Y155000D03*
X791290Y99000D03*
D14*
X828040Y142000D03*
X828040Y132000D03*
X828040Y122000D03*
X828040Y112000D03*
D15*
X878840Y241300D03*
X904240Y241300D03*
X929640Y241300D03*
X955040Y241300D03*
D13*
X1017190Y99000D03*
X1017190Y155000D03*
D14*
X980440Y112000D03*
X980440Y122000D03*
X980440Y132000D03*
X980440Y142000D03*
D12*
X794140Y190500D03*
X811140Y190500D03*
D16*
X807920Y174940D02*
X807920Y167960D01*
X807920Y174940D02*
X814900Y174940D01*
X814900Y167960D01*
X807920Y167960D01*
X807920Y172760D02*
X814900Y172760D01*
X790380Y174940D02*
X790380Y167960D01*
X790380Y174940D02*
X797360Y174940D01*
X797360Y167960D01*
X790380Y167960D01*
X790380Y172760D02*
X797360Y172760D01*
D17*
X948690Y110100D03*
X948690Y93100D03*
D18*
X926740Y113440D03*
X926740Y119940D03*
X926740Y126440D03*
X926740Y132940D03*
X881740Y132940D03*
X881740Y126440D03*
X881740Y119940D03*
X881740Y113440D03*
D17*
X853440Y116450D03*
X853440Y99450D03*
D16*
X1000560Y86040D02*
X1000560Y79060D01*
X993580Y79060D01*
X993580Y86040D01*
X1000560Y86040D01*
X1000560Y83860D02*
X993580Y83860D01*
X1018100Y86040D02*
X1018100Y79060D01*
X1011120Y79060D01*
X1011120Y86040D01*
X1018100Y86040D01*
X1018100Y83860D02*
X1011120Y83860D01*
D12*
X1014340Y63500D03*
X997340Y63500D03*
D15*
X929640Y12700D03*
X904240Y12700D03*
X878840Y12700D03*
X853440Y12700D03*
D19*
X894240Y165710D03*
X894240Y146710D03*
X915240Y156210D03*
D17*
X878840Y166760D03*
X878840Y183760D03*
X853440Y150250D03*
X853440Y167250D03*
D20*
X894740Y86210D03*
X894740Y99210D03*
X913740Y86210D03*
X913740Y99210D03*
X913740Y92710D03*
D15*
X853440Y241300D03*
X955040Y12700D03*
D10*
X1061720Y228600D03*
X1264920Y228600D03*
D11*
X1281430Y8890D03*
X1043940Y246380D03*
D12*
X1076570Y63500D03*
X1059570Y63500D03*
X1076570Y36830D03*
X1059570Y36830D03*
D13*
X1050370Y155000D03*
X1050370Y99000D03*
D14*
X1087120Y142000D03*
X1087120Y132000D03*
X1087120Y122000D03*
X1087120Y112000D03*
D15*
X1137920Y241300D03*
X1163320Y241300D03*
X1188720Y241300D03*
X1214120Y241300D03*
D13*
X1276270Y99000D03*
X1276270Y155000D03*
D14*
X1239520Y112000D03*
X1239520Y122000D03*
X1239520Y132000D03*
X1239520Y142000D03*
D12*
X1053220Y190500D03*
X1070220Y190500D03*
D16*
X1067000Y174940D02*
X1067000Y167960D01*
X1067000Y174940D02*
X1073980Y174940D01*
X1073980Y167960D01*
X1067000Y167960D01*
X1067000Y172760D02*
X1073980Y172760D01*
X1049460Y174940D02*
X1049460Y167960D01*
X1049460Y174940D02*
X1056440Y174940D01*
X1056440Y167960D01*
X1049460Y167960D01*
X1049460Y172760D02*
X1056440Y172760D01*
D17*
X1207770Y110100D03*
X1207770Y93100D03*
D18*
X1185820Y113440D03*
X1185820Y119940D03*
X1185820Y126440D03*
X1185820Y132940D03*
X1140820Y132940D03*
X1140820Y126440D03*
X1140820Y119940D03*
X1140820Y113440D03*
D17*
X1112520Y116450D03*
X1112520Y99450D03*
D16*
X1259640Y86040D02*
X1259640Y79060D01*
X1252660Y79060D01*
X1252660Y86040D01*
X1259640Y86040D01*
X1259640Y83860D02*
X1252660Y83860D01*
X1277180Y86040D02*
X1277180Y79060D01*
X1270200Y79060D01*
X1270200Y86040D01*
X1277180Y86040D01*
X1277180Y83860D02*
X1270200Y83860D01*
D12*
X1273420Y63500D03*
X1256420Y63500D03*
D15*
X1188720Y12700D03*
X1163320Y12700D03*
X1137920Y12700D03*
X1112520Y12700D03*
D19*
X1153320Y165710D03*
X1153320Y146710D03*
X1174320Y156210D03*
D17*
X1137920Y166760D03*
X1137920Y183760D03*
X1112520Y150250D03*
X1112520Y167250D03*
D20*
X1153820Y86210D03*
X1153820Y99210D03*
X1172820Y86210D03*
X1172820Y99210D03*
X1172820Y92710D03*
D15*
X1112520Y241300D03*
X1214120Y12700D03*
D10*
X25400Y487680D03*
X228600Y487680D03*
D11*
X245110Y267970D03*
X7620Y505460D03*
D12*
X40250Y322580D03*
X23250Y322580D03*
X40250Y295910D03*
X23250Y295910D03*
D13*
X14050Y414080D03*
X14050Y358080D03*
D14*
X50800Y401080D03*
X50800Y391080D03*
X50800Y381080D03*
X50800Y371080D03*
D15*
X101600Y500380D03*
X127000Y500380D03*
X152400Y500380D03*
X177800Y500380D03*
D13*
X239950Y358080D03*
X239950Y414080D03*
D14*
X203200Y371080D03*
X203200Y381080D03*
X203200Y391080D03*
X203200Y401080D03*
D12*
X16900Y449580D03*
X33900Y449580D03*
D16*
X30680Y434020D02*
X30680Y427040D01*
X30680Y434020D02*
X37660Y434020D01*
X37660Y427040D01*
X30680Y427040D01*
X30680Y431840D02*
X37660Y431840D01*
X13140Y434020D02*
X13140Y427040D01*
X13140Y434020D02*
X20120Y434020D01*
X20120Y427040D01*
X13140Y427040D01*
X13140Y431840D02*
X20120Y431840D01*
D17*
X171450Y369180D03*
X171450Y352180D03*
D18*
X149500Y372520D03*
X149500Y379020D03*
X149500Y385520D03*
X149500Y392020D03*
X104500Y392020D03*
X104500Y385520D03*
X104500Y379020D03*
X104500Y372520D03*
D17*
X76200Y375530D03*
X76200Y358530D03*
D16*
X223320Y345120D02*
X223320Y338140D01*
X216340Y338140D01*
X216340Y345120D01*
X223320Y345120D01*
X223320Y342940D02*
X216340Y342940D01*
X240860Y345120D02*
X240860Y338140D01*
X233880Y338140D01*
X233880Y345120D01*
X240860Y345120D01*
X240860Y342940D02*
X233880Y342940D01*
D12*
X237100Y322580D03*
X220100Y322580D03*
D15*
X152400Y271780D03*
X127000Y271780D03*
X101600Y271780D03*
X76200Y271780D03*
D19*
X117000Y424790D03*
X117000Y405790D03*
X138000Y415290D03*
D17*
X101600Y425840D03*
X101600Y442840D03*
X76200Y409330D03*
X76200Y426330D03*
D20*
X117500Y345290D03*
X117500Y358290D03*
X136500Y345290D03*
X136500Y358290D03*
X136500Y351790D03*
D15*
X76200Y500380D03*
X177800Y271780D03*
D10*
X284480Y487680D03*
X487680Y487680D03*
D11*
X504190Y267970D03*
X266700Y505460D03*
D12*
X299330Y322580D03*
X282330Y322580D03*
X299330Y295910D03*
X282330Y295910D03*
D13*
X273130Y414080D03*
X273130Y358080D03*
D14*
X309880Y401080D03*
X309880Y391080D03*
X309880Y381080D03*
X309880Y371080D03*
D15*
X360680Y500380D03*
X386080Y500380D03*
X411480Y500380D03*
X436880Y500380D03*
D13*
X499030Y358080D03*
X499030Y414080D03*
D14*
X462280Y371080D03*
X462280Y381080D03*
X462280Y391080D03*
X462280Y401080D03*
D12*
X275980Y449580D03*
X292980Y449580D03*
D16*
X289760Y434020D02*
X289760Y427040D01*
X289760Y434020D02*
X296740Y434020D01*
X296740Y427040D01*
X289760Y427040D01*
X289760Y431840D02*
X296740Y431840D01*
X272220Y434020D02*
X272220Y427040D01*
X272220Y434020D02*
X279200Y434020D01*
X279200Y427040D01*
X272220Y427040D01*
X272220Y431840D02*
X279200Y431840D01*
D17*
X430530Y369180D03*
X430530Y352180D03*
D18*
X408580Y372520D03*
X408580Y379020D03*
X408580Y385520D03*
X408580Y392020D03*
X363580Y392020D03*
X363580Y385520D03*
X363580Y379020D03*
X363580Y372520D03*
D17*
X335280Y375530D03*
X335280Y358530D03*
D16*
X482400Y345120D02*
X482400Y338140D01*
X475420Y338140D01*
X475420Y345120D01*
X482400Y345120D01*
X482400Y342940D02*
X475420Y342940D01*
X499940Y345120D02*
X499940Y338140D01*
X492960Y338140D01*
X492960Y345120D01*
X499940Y345120D01*
X499940Y342940D02*
X492960Y342940D01*
D12*
X496180Y322580D03*
X479180Y322580D03*
D15*
X411480Y271780D03*
X386080Y271780D03*
X360680Y271780D03*
X335280Y271780D03*
D19*
X376080Y424790D03*
X376080Y405790D03*
X397080Y415290D03*
D17*
X360680Y425840D03*
X360680Y442840D03*
X335280Y409330D03*
X335280Y426330D03*
D20*
X376580Y345290D03*
X376580Y358290D03*
X395580Y345290D03*
X395580Y358290D03*
X395580Y351790D03*
D15*
X335280Y500380D03*
X436880Y271780D03*
D10*
X543560Y487680D03*
X746760Y487680D03*
D11*
X763270Y267970D03*
X525780Y505460D03*
D12*
X558410Y322580D03*
X541410Y322580D03*
X558410Y295910D03*
X541410Y295910D03*
D13*
X532210Y414080D03*
X532210Y358080D03*
D14*
X568960Y401080D03*
X568960Y391080D03*
X568960Y381080D03*
X568960Y371080D03*
D15*
X619760Y500380D03*
X645160Y500380D03*
X670560Y500380D03*
X695960Y500380D03*
D13*
X758110Y358080D03*
X758110Y414080D03*
D14*
X721360Y371080D03*
X721360Y381080D03*
X721360Y391080D03*
X721360Y401080D03*
D12*
X535060Y449580D03*
X552060Y449580D03*
D16*
X548840Y434020D02*
X548840Y427040D01*
X548840Y434020D02*
X555820Y434020D01*
X555820Y427040D01*
X548840Y427040D01*
X548840Y431840D02*
X555820Y431840D01*
X531300Y434020D02*
X531300Y427040D01*
X531300Y434020D02*
X538280Y434020D01*
X538280Y427040D01*
X531300Y427040D01*
X531300Y431840D02*
X538280Y431840D01*
D17*
X689610Y369180D03*
X689610Y352180D03*
D18*
X667660Y372520D03*
X667660Y379020D03*
X667660Y385520D03*
X667660Y392020D03*
X622660Y392020D03*
X622660Y385520D03*
X622660Y379020D03*
X622660Y372520D03*
D17*
X594360Y375530D03*
X594360Y358530D03*
D16*
X741480Y345120D02*
X741480Y338140D01*
X734500Y338140D01*
X734500Y345120D01*
X741480Y345120D01*
X741480Y342940D02*
X734500Y342940D01*
X759020Y345120D02*
X759020Y338140D01*
X752040Y338140D01*
X752040Y345120D01*
X759020Y345120D01*
X759020Y342940D02*
X752040Y342940D01*
D12*
X755260Y322580D03*
X738260Y322580D03*
D15*
X670560Y271780D03*
X645160Y271780D03*
X619760Y271780D03*
X594360Y271780D03*
D19*
X635160Y424790D03*
X635160Y405790D03*
X656160Y415290D03*
D17*
X619760Y425840D03*
X619760Y442840D03*
X594360Y409330D03*
X594360Y426330D03*
D20*
X635660Y345290D03*
X635660Y358290D03*
X654660Y345290D03*
X654660Y358290D03*
X654660Y351790D03*
D15*
X594360Y500380D03*
X695960Y271780D03*
D10*
X802640Y487680D03*
X1005840Y487680D03*
D11*
X1022350Y267970D03*
X784860Y505460D03*
D12*
X817490Y322580D03*
X800490Y322580D03*
X817490Y295910D03*
X800490Y295910D03*
D13*
X791290Y414080D03*
X791290Y358080D03*
D14*
X828040Y401080D03*
X828040Y391080D03*
X828040Y381080D03*
X828040Y371080D03*
D15*
X878840Y500380D03*
X904240Y500380D03*
X929640Y500380D03*
X955040Y500380D03*
D13*
X1017190Y358080D03*
X1017190Y414080D03*
D14*
X980440Y371080D03*
X980440Y381080D03*
X980440Y391080D03*
X980440Y401080D03*
D12*
X794140Y449580D03*
X811140Y449580D03*
D16*
X807920Y434020D02*
X807920Y427040D01*
X807920Y434020D02*
X814900Y434020D01*
X814900Y427040D01*
X807920Y427040D01*
X807920Y431840D02*
X814900Y431840D01*
X790380Y434020D02*
X790380Y427040D01*
X790380Y434020D02*
X797360Y434020D01*
X797360Y427040D01*
X790380Y427040D01*
X790380Y431840D02*
X797360Y431840D01*
D17*
X948690Y369180D03*
X948690Y352180D03*
D18*
X926740Y372520D03*
X926740Y379020D03*
X926740Y385520D03*
X926740Y392020D03*
X881740Y392020D03*
X881740Y385520D03*
X881740Y379020D03*
X881740Y372520D03*
D17*
X853440Y375530D03*
X853440Y358530D03*
D16*
X1000560Y345120D02*
X1000560Y338140D01*
X993580Y338140D01*
X993580Y345120D01*
X1000560Y345120D01*
X1000560Y342940D02*
X993580Y342940D01*
X1018100Y345120D02*
X1018100Y338140D01*
X1011120Y338140D01*
X1011120Y345120D01*
X1018100Y345120D01*
X1018100Y342940D02*
X1011120Y342940D01*
D12*
X1014340Y322580D03*
X997340Y322580D03*
D15*
X929640Y271780D03*
X904240Y271780D03*
X878840Y271780D03*
X853440Y271780D03*
D19*
X894240Y424790D03*
X894240Y405790D03*
X915240Y415290D03*
D17*
X878840Y425840D03*
X878840Y442840D03*
X853440Y409330D03*
X853440Y426330D03*
D20*
X894740Y345290D03*
X894740Y358290D03*
X913740Y345290D03*
X913740Y358290D03*
X913740Y351790D03*
D15*
X853440Y500380D03*
X955040Y271780D03*
D10*
X1061720Y487680D03*
X1264920Y487680D03*
D11*
X1281430Y267970D03*
X1043940Y505460D03*
D12*
X1076570Y322580D03*
X1059570Y322580D03*
X1076570Y295910D03*
X1059570Y295910D03*
D13*
X1050370Y414080D03*
X1050370Y358080D03*
D14*
X1087120Y401080D03*
X1087120Y391080D03*
X1087120Y381080D03*
X1087120Y371080D03*
D15*
X1137920Y500380D03*
X1163320Y500380D03*
X1188720Y500380D03*
X1214120Y500380D03*
D13*
X1276270Y358080D03*
X1276270Y414080D03*
D14*
X1239520Y371080D03*
X1239520Y381080D03*
X1239520Y391080D03*
X1239520Y401080D03*
D12*
X1053220Y449580D03*
X1070220Y449580D03*
D16*
X1067000Y434020D02*
X1067000Y427040D01*
X1067000Y434020D02*
X1073980Y434020D01*
X1073980Y427040D01*
X1067000Y427040D01*
X1067000Y431840D02*
X1073980Y431840D01*
X1049460Y434020D02*
X1049460Y427040D01*
X1049460Y434020D02*
X1056440Y434020D01*
X1056440Y427040D01*
X1049460Y427040D01*
X1049460Y431840D02*
X1056440Y431840D01*
D17*
X1207770Y369180D03*
X1207770Y352180D03*
D18*
X1185820Y372520D03*
X1185820Y379020D03*
X1185820Y385520D03*
X1185820Y392020D03*
X1140820Y392020D03*
X1140820Y385520D03*
X1140820Y379020D03*
X1140820Y372520D03*
D17*
X1112520Y375530D03*
X1112520Y358530D03*
D16*
X1259640Y345120D02*
X1259640Y338140D01*
X1252660Y338140D01*
X1252660Y345120D01*
X1259640Y345120D01*
X1259640Y342940D02*
X1252660Y342940D01*
X1277180Y345120D02*
X1277180Y338140D01*
X1270200Y338140D01*
X1270200Y345120D01*
X1277180Y345120D01*
X1277180Y342940D02*
X1270200Y342940D01*
D12*
X1273420Y322580D03*
X1256420Y322580D03*
D15*
X1188720Y271780D03*
X1163320Y271780D03*
X1137920Y271780D03*
X1112520Y271780D03*
D19*
X1153320Y424790D03*
X1153320Y405790D03*
X1174320Y415290D03*
D17*
X1137920Y425840D03*
X1137920Y442840D03*
X1112520Y409330D03*
X1112520Y426330D03*
D20*
X1153820Y345290D03*
X1153820Y358290D03*
X1172820Y345290D03*
X1172820Y358290D03*
X1172820Y351790D03*
D15*
X1112520Y500380D03*
X1214120Y271780D03*
D10*
X25400Y746760D03*
X228600Y746760D03*
D11*
X245110Y527050D03*
X7620Y764540D03*
D12*
X40250Y581660D03*
X23250Y581660D03*
X40250Y554990D03*
X23250Y554990D03*
D13*
X14050Y673160D03*
X14050Y617160D03*
D14*
X50800Y660160D03*
X50800Y650160D03*
X50800Y640160D03*
X50800Y630160D03*
D15*
X101600Y759460D03*
X127000Y759460D03*
X152400Y759460D03*
X177800Y759460D03*
D13*
X239950Y617160D03*
X239950Y673160D03*
D14*
X203200Y630160D03*
X203200Y640160D03*
X203200Y650160D03*
X203200Y660160D03*
D12*
X16900Y708660D03*
X33900Y708660D03*
D16*
X30680Y693100D02*
X30680Y686120D01*
X30680Y693100D02*
X37660Y693100D01*
X37660Y686120D01*
X30680Y686120D01*
X30680Y690920D02*
X37660Y690920D01*
X13140Y693100D02*
X13140Y686120D01*
X13140Y693100D02*
X20120Y693100D01*
X20120Y686120D01*
X13140Y686120D01*
X13140Y690920D02*
X20120Y690920D01*
D17*
X171450Y628260D03*
X171450Y611260D03*
D18*
X149500Y631600D03*
X149500Y638100D03*
X149500Y644600D03*
X149500Y651100D03*
X104500Y651100D03*
X104500Y644600D03*
X104500Y638100D03*
X104500Y631600D03*
D17*
X76200Y634610D03*
X76200Y617610D03*
D16*
X223320Y604200D02*
X223320Y597220D01*
X216340Y597220D01*
X216340Y604200D01*
X223320Y604200D01*
X223320Y602020D02*
X216340Y602020D01*
X240860Y604200D02*
X240860Y597220D01*
X233880Y597220D01*
X233880Y604200D01*
X240860Y604200D01*
X240860Y602020D02*
X233880Y602020D01*
D12*
X237100Y581660D03*
X220100Y581660D03*
D15*
X152400Y530860D03*
X127000Y530860D03*
X101600Y530860D03*
X76200Y530860D03*
D19*
X117000Y683870D03*
X117000Y664870D03*
X138000Y674370D03*
D17*
X101600Y684920D03*
X101600Y701920D03*
X76200Y668410D03*
X76200Y685410D03*
D20*
X117500Y604370D03*
X117500Y617370D03*
X136500Y604370D03*
X136500Y617370D03*
X136500Y610870D03*
D15*
X76200Y759460D03*
X177800Y530860D03*
D10*
X284480Y746760D03*
X487680Y746760D03*
D11*
X504190Y527050D03*
X266700Y764540D03*
D12*
X299330Y581660D03*
X282330Y581660D03*
X299330Y554990D03*
X282330Y554990D03*
D13*
X273130Y673160D03*
X273130Y617160D03*
D14*
X309880Y660160D03*
X309880Y650160D03*
X309880Y640160D03*
X309880Y630160D03*
D15*
X360680Y759460D03*
X386080Y759460D03*
X411480Y759460D03*
X436880Y759460D03*
D13*
X499030Y617160D03*
X499030Y673160D03*
D14*
X462280Y630160D03*
X462280Y640160D03*
X462280Y650160D03*
X462280Y660160D03*
D12*
X275980Y708660D03*
X292980Y708660D03*
D16*
X289760Y693100D02*
X289760Y686120D01*
X289760Y693100D02*
X296740Y693100D01*
X296740Y686120D01*
X289760Y686120D01*
X289760Y690920D02*
X296740Y690920D01*
X272220Y693100D02*
X272220Y686120D01*
X272220Y693100D02*
X279200Y693100D01*
X279200Y686120D01*
X272220Y686120D01*
X272220Y690920D02*
X279200Y690920D01*
D17*
X430530Y628260D03*
X430530Y611260D03*
D18*
X408580Y631600D03*
X408580Y638100D03*
X408580Y644600D03*
X408580Y651100D03*
X363580Y651100D03*
X363580Y644600D03*
X363580Y638100D03*
X363580Y631600D03*
D17*
X335280Y634610D03*
X335280Y617610D03*
D16*
X482400Y604200D02*
X482400Y597220D01*
X475420Y597220D01*
X475420Y604200D01*
X482400Y604200D01*
X482400Y602020D02*
X475420Y602020D01*
X499940Y604200D02*
X499940Y597220D01*
X492960Y597220D01*
X492960Y604200D01*
X499940Y604200D01*
X499940Y602020D02*
X492960Y602020D01*
D12*
X496180Y581660D03*
X479180Y581660D03*
D15*
X411480Y530860D03*
X386080Y530860D03*
X360680Y530860D03*
X335280Y530860D03*
D19*
X376080Y683870D03*
X376080Y664870D03*
X397080Y674370D03*
D17*
X360680Y684920D03*
X360680Y701920D03*
X335280Y668410D03*
X335280Y685410D03*
D20*
X376580Y604370D03*
X376580Y617370D03*
X395580Y604370D03*
X395580Y617370D03*
X395580Y610870D03*
D15*
X335280Y759460D03*
X436880Y530860D03*
D10*
X543560Y746760D03*
X746760Y746760D03*
D11*
X763270Y527050D03*
X525780Y764540D03*
D12*
X558410Y581660D03*
X541410Y581660D03*
X558410Y554990D03*
X541410Y554990D03*
D13*
X532210Y673160D03*
X532210Y617160D03*
D14*
X568960Y660160D03*
X568960Y650160D03*
X568960Y640160D03*
X568960Y630160D03*
D15*
X619760Y759460D03*
X645160Y759460D03*
X670560Y759460D03*
X695960Y759460D03*
D13*
X758110Y617160D03*
X758110Y673160D03*
D14*
X721360Y630160D03*
X721360Y640160D03*
X721360Y650160D03*
X721360Y660160D03*
D12*
X535060Y708660D03*
X552060Y708660D03*
D16*
X548840Y693100D02*
X548840Y686120D01*
X548840Y693100D02*
X555820Y693100D01*
X555820Y686120D01*
X548840Y686120D01*
X548840Y690920D02*
X555820Y690920D01*
X531300Y693100D02*
X531300Y686120D01*
X531300Y693100D02*
X538280Y693100D01*
X538280Y686120D01*
X531300Y686120D01*
X531300Y690920D02*
X538280Y690920D01*
D17*
X689610Y628260D03*
X689610Y611260D03*
D18*
X667660Y631600D03*
X667660Y638100D03*
X667660Y644600D03*
X667660Y651100D03*
X622660Y651100D03*
X622660Y644600D03*
X622660Y638100D03*
X622660Y631600D03*
D17*
X594360Y634610D03*
X594360Y617610D03*
D16*
X741480Y604200D02*
X741480Y597220D01*
X734500Y597220D01*
X734500Y604200D01*
X741480Y604200D01*
X741480Y602020D02*
X734500Y602020D01*
X759020Y604200D02*
X759020Y597220D01*
X752040Y597220D01*
X752040Y604200D01*
X759020Y604200D01*
X759020Y602020D02*
X752040Y602020D01*
D12*
X755260Y581660D03*
X738260Y581660D03*
D15*
X670560Y530860D03*
X645160Y530860D03*
X619760Y530860D03*
X594360Y530860D03*
D19*
X635160Y683870D03*
X635160Y664870D03*
X656160Y674370D03*
D17*
X619760Y684920D03*
X619760Y701920D03*
X594360Y668410D03*
X594360Y685410D03*
D20*
X635660Y604370D03*
X635660Y617370D03*
X654660Y604370D03*
X654660Y617370D03*
X654660Y610870D03*
D15*
X594360Y759460D03*
X695960Y530860D03*
D10*
X802640Y746760D03*
X1005840Y746760D03*
D11*
X1022350Y527050D03*
X784860Y764540D03*
D12*
X817490Y581660D03*
X800490Y581660D03*
X817490Y554990D03*
X800490Y554990D03*
D13*
X791290Y673160D03*
X791290Y617160D03*
D14*
X828040Y660160D03*
X828040Y650160D03*
X828040Y640160D03*
X828040Y630160D03*
D15*
X878840Y759460D03*
X904240Y759460D03*
X929640Y759460D03*
X955040Y759460D03*
D13*
X1017190Y617160D03*
X1017190Y673160D03*
D14*
X980440Y630160D03*
X980440Y640160D03*
X980440Y650160D03*
X980440Y660160D03*
D12*
X794140Y708660D03*
X811140Y708660D03*
D16*
X807920Y693100D02*
X807920Y686120D01*
X807920Y693100D02*
X814900Y693100D01*
X814900Y686120D01*
X807920Y686120D01*
X807920Y690920D02*
X814900Y690920D01*
X790380Y693100D02*
X790380Y686120D01*
X790380Y693100D02*
X797360Y693100D01*
X797360Y686120D01*
X790380Y686120D01*
X790380Y690920D02*
X797360Y690920D01*
D17*
X948690Y628260D03*
X948690Y611260D03*
D18*
X926740Y631600D03*
X926740Y638100D03*
X926740Y644600D03*
X926740Y651100D03*
X881740Y651100D03*
X881740Y644600D03*
X881740Y638100D03*
X881740Y631600D03*
D17*
X853440Y634610D03*
X853440Y617610D03*
D16*
X1000560Y604200D02*
X1000560Y597220D01*
X993580Y597220D01*
X993580Y604200D01*
X1000560Y604200D01*
X1000560Y602020D02*
X993580Y602020D01*
X1018100Y604200D02*
X1018100Y597220D01*
X1011120Y597220D01*
X1011120Y604200D01*
X1018100Y604200D01*
X1018100Y602020D02*
X1011120Y602020D01*
D12*
X1014340Y581660D03*
X997340Y581660D03*
D15*
X929640Y530860D03*
X904240Y530860D03*
X878840Y530860D03*
X853440Y530860D03*
D19*
X894240Y683870D03*
X894240Y664870D03*
X915240Y674370D03*
D17*
X878840Y684920D03*
X878840Y701920D03*
X853440Y668410D03*
X853440Y685410D03*
D20*
X894740Y604370D03*
X894740Y617370D03*
X913740Y604370D03*
X913740Y617370D03*
X913740Y610870D03*
D15*
X853440Y759460D03*
X955040Y530860D03*
D10*
X1061720Y746760D03*
X1264920Y746760D03*
D11*
X1281430Y527050D03*
X1043940Y764540D03*
D12*
X1076570Y581660D03*
X1059570Y581660D03*
X1076570Y554990D03*
X1059570Y554990D03*
D13*
X1050370Y673160D03*
X1050370Y617160D03*
D14*
X1087120Y660160D03*
X1087120Y650160D03*
X1087120Y640160D03*
X1087120Y630160D03*
D15*
X1137920Y759460D03*
X1163320Y759460D03*
X1188720Y759460D03*
X1214120Y759460D03*
D13*
X1276270Y617160D03*
X1276270Y673160D03*
D14*
X1239520Y630160D03*
X1239520Y640160D03*
X1239520Y650160D03*
X1239520Y660160D03*
D12*
X1053220Y708660D03*
X1070220Y708660D03*
D16*
X1067000Y693100D02*
X1067000Y686120D01*
X1067000Y693100D02*
X1073980Y693100D01*
X1073980Y686120D01*
X1067000Y686120D01*
X1067000Y690920D02*
X1073980Y690920D01*
X1049460Y693100D02*
X1049460Y686120D01*
X1049460Y693100D02*
X1056440Y693100D01*
X1056440Y686120D01*
X1049460Y686120D01*
X1049460Y690920D02*
X1056440Y690920D01*
D17*
X1207770Y628260D03*
X1207770Y611260D03*
D18*
X1185820Y631600D03*
X1185820Y638100D03*
X1185820Y644600D03*
X1185820Y651100D03*
X1140820Y651100D03*
X1140820Y644600D03*
X1140820Y638100D03*
X1140820Y631600D03*
D17*
X1112520Y634610D03*
X1112520Y617610D03*
D16*
X1259640Y604200D02*
X1259640Y597220D01*
X1252660Y597220D01*
X1252660Y604200D01*
X1259640Y604200D01*
X1259640Y602020D02*
X1252660Y602020D01*
X1277180Y604200D02*
X1277180Y597220D01*
X1270200Y597220D01*
X1270200Y604200D01*
X1277180Y604200D01*
X1277180Y602020D02*
X1270200Y602020D01*
D12*
X1273420Y581660D03*
X1256420Y581660D03*
D15*
X1188720Y530860D03*
X1163320Y530860D03*
X1137920Y530860D03*
X1112520Y530860D03*
D19*
X1153320Y683870D03*
X1153320Y664870D03*
X1174320Y674370D03*
D17*
X1137920Y684920D03*
X1137920Y701920D03*
X1112520Y668410D03*
X1112520Y685410D03*
D20*
X1153820Y604370D03*
X1153820Y617370D03*
X1172820Y604370D03*
X1172820Y617370D03*
X1172820Y610870D03*
D15*
X1112520Y759460D03*
X1214120Y530860D03*
D10*
X25400Y1005840D03*
X228600Y1005840D03*
D11*
X245110Y786130D03*
X7620Y1023620D03*
D12*
X40250Y840740D03*
X23250Y840740D03*
X40250Y814070D03*
X23250Y814070D03*
D13*
X14050Y932240D03*
X14050Y876240D03*
D14*
X50800Y919240D03*
X50800Y909240D03*
X50800Y899240D03*
X50800Y889240D03*
D15*
X101600Y1018540D03*
X127000Y1018540D03*
X152400Y1018540D03*
X177800Y1018540D03*
D13*
X239950Y876240D03*
X239950Y932240D03*
D14*
X203200Y889240D03*
X203200Y899240D03*
X203200Y909240D03*
X203200Y919240D03*
D12*
X16900Y967740D03*
X33900Y967740D03*
D16*
X30680Y952180D02*
X30680Y945200D01*
X30680Y952180D02*
X37660Y952180D01*
X37660Y945200D01*
X30680Y945200D01*
X30680Y950000D02*
X37660Y950000D01*
X13140Y952180D02*
X13140Y945200D01*
X13140Y952180D02*
X20120Y952180D01*
X20120Y945200D01*
X13140Y945200D01*
X13140Y950000D02*
X20120Y950000D01*
D17*
X171450Y887340D03*
X171450Y870340D03*
D18*
X149500Y890680D03*
X149500Y897180D03*
X149500Y903680D03*
X149500Y910180D03*
X104500Y910180D03*
X104500Y903680D03*
X104500Y897180D03*
X104500Y890680D03*
D17*
X76200Y893690D03*
X76200Y876690D03*
D16*
X223320Y863280D02*
X223320Y856300D01*
X216340Y856300D01*
X216340Y863280D01*
X223320Y863280D01*
X223320Y861100D02*
X216340Y861100D01*
X240860Y863280D02*
X240860Y856300D01*
X233880Y856300D01*
X233880Y863280D01*
X240860Y863280D01*
X240860Y861100D02*
X233880Y861100D01*
D12*
X237100Y840740D03*
X220100Y840740D03*
D15*
X152400Y789940D03*
X127000Y789940D03*
X101600Y789940D03*
X76200Y789940D03*
D19*
X117000Y942950D03*
X117000Y923950D03*
X138000Y933450D03*
D17*
X101600Y944000D03*
X101600Y961000D03*
X76200Y927490D03*
X76200Y944490D03*
D20*
X117500Y863450D03*
X117500Y876450D03*
X136500Y863450D03*
X136500Y876450D03*
X136500Y869950D03*
D15*
X76200Y1018540D03*
X177800Y789940D03*
D10*
X284480Y1005840D03*
X487680Y1005840D03*
D11*
X504190Y786130D03*
X266700Y1023620D03*
D12*
X299330Y840740D03*
X282330Y840740D03*
X299330Y814070D03*
X282330Y814070D03*
D13*
X273130Y932240D03*
X273130Y876240D03*
D14*
X309880Y919240D03*
X309880Y909240D03*
X309880Y899240D03*
X309880Y889240D03*
D15*
X360680Y1018540D03*
X386080Y1018540D03*
X411480Y1018540D03*
X436880Y1018540D03*
D13*
X499030Y876240D03*
X499030Y932240D03*
D14*
X462280Y889240D03*
X462280Y899240D03*
X462280Y909240D03*
X462280Y919240D03*
D12*
X275980Y967740D03*
X292980Y967740D03*
D16*
X289760Y952180D02*
X289760Y945200D01*
X289760Y952180D02*
X296740Y952180D01*
X296740Y945200D01*
X289760Y945200D01*
X289760Y950000D02*
X296740Y950000D01*
X272220Y952180D02*
X272220Y945200D01*
X272220Y952180D02*
X279200Y952180D01*
X279200Y945200D01*
X272220Y945200D01*
X272220Y950000D02*
X279200Y950000D01*
D17*
X430530Y887340D03*
X430530Y870340D03*
D18*
X408580Y890680D03*
X408580Y897180D03*
X408580Y903680D03*
X408580Y910180D03*
X363580Y910180D03*
X363580Y903680D03*
X363580Y897180D03*
X363580Y890680D03*
D17*
X335280Y893690D03*
X335280Y876690D03*
D16*
X482400Y863280D02*
X482400Y856300D01*
X475420Y856300D01*
X475420Y863280D01*
X482400Y863280D01*
X482400Y861100D02*
X475420Y861100D01*
X499940Y863280D02*
X499940Y856300D01*
X492960Y856300D01*
X492960Y863280D01*
X499940Y863280D01*
X499940Y861100D02*
X492960Y861100D01*
D12*
X496180Y840740D03*
X479180Y840740D03*
D15*
X411480Y789940D03*
X386080Y789940D03*
X360680Y789940D03*
X335280Y789940D03*
D19*
X376080Y942950D03*
X376080Y923950D03*
X397080Y933450D03*
D17*
X360680Y944000D03*
X360680Y961000D03*
X335280Y927490D03*
X335280Y944490D03*
D20*
X376580Y863450D03*
X376580Y876450D03*
X395580Y863450D03*
X395580Y876450D03*
X395580Y869950D03*
D15*
X335280Y1018540D03*
X436880Y789940D03*
D10*
X543560Y1005840D03*
X746760Y1005840D03*
D11*
X763270Y786130D03*
X525780Y1023620D03*
D12*
X558410Y840740D03*
X541410Y840740D03*
X558410Y814070D03*
X541410Y814070D03*
D13*
X532210Y932240D03*
X532210Y876240D03*
D14*
X568960Y919240D03*
X568960Y909240D03*
X568960Y899240D03*
X568960Y889240D03*
D15*
X619760Y1018540D03*
X645160Y1018540D03*
X670560Y1018540D03*
X695960Y1018540D03*
D13*
X758110Y876240D03*
X758110Y932240D03*
D14*
X721360Y889240D03*
X721360Y899240D03*
X721360Y909240D03*
X721360Y919240D03*
D12*
X535060Y967740D03*
X552060Y967740D03*
D16*
X548840Y952180D02*
X548840Y945200D01*
X548840Y952180D02*
X555820Y952180D01*
X555820Y945200D01*
X548840Y945200D01*
X548840Y950000D02*
X555820Y950000D01*
X531300Y952180D02*
X531300Y945200D01*
X531300Y952180D02*
X538280Y952180D01*
X538280Y945200D01*
X531300Y945200D01*
X531300Y950000D02*
X538280Y950000D01*
D17*
X689610Y887340D03*
X689610Y870340D03*
D18*
X667660Y890680D03*
X667660Y897180D03*
X667660Y903680D03*
X667660Y910180D03*
X622660Y910180D03*
X622660Y903680D03*
X622660Y897180D03*
X622660Y890680D03*
D17*
X594360Y893690D03*
X594360Y876690D03*
D16*
X741480Y863280D02*
X741480Y856300D01*
X734500Y856300D01*
X734500Y863280D01*
X741480Y863280D01*
X741480Y861100D02*
X734500Y861100D01*
X759020Y863280D02*
X759020Y856300D01*
X752040Y856300D01*
X752040Y863280D01*
X759020Y863280D01*
X759020Y861100D02*
X752040Y861100D01*
D12*
X755260Y840740D03*
X738260Y840740D03*
D15*
X670560Y789940D03*
X645160Y789940D03*
X619760Y789940D03*
X594360Y789940D03*
D19*
X635160Y942950D03*
X635160Y923950D03*
X656160Y933450D03*
D17*
X619760Y944000D03*
X619760Y961000D03*
X594360Y927490D03*
X594360Y944490D03*
D20*
X635660Y863450D03*
X635660Y876450D03*
X654660Y863450D03*
X654660Y876450D03*
X654660Y869950D03*
D15*
X594360Y1018540D03*
X695960Y789940D03*
D10*
X802640Y1005840D03*
X1005840Y1005840D03*
D11*
X1022350Y786130D03*
X784860Y1023620D03*
D12*
X817490Y840740D03*
X800490Y840740D03*
X817490Y814070D03*
X800490Y814070D03*
D13*
X791290Y932240D03*
X791290Y876240D03*
D14*
X828040Y919240D03*
X828040Y909240D03*
X828040Y899240D03*
X828040Y889240D03*
D15*
X878840Y1018540D03*
X904240Y1018540D03*
X929640Y1018540D03*
X955040Y1018540D03*
D13*
X1017190Y876240D03*
X1017190Y932240D03*
D14*
X980440Y889240D03*
X980440Y899240D03*
X980440Y909240D03*
X980440Y919240D03*
D12*
X794140Y967740D03*
X811140Y967740D03*
D16*
X807920Y952180D02*
X807920Y945200D01*
X807920Y952180D02*
X814900Y952180D01*
X814900Y945200D01*
X807920Y945200D01*
X807920Y950000D02*
X814900Y950000D01*
X790380Y952180D02*
X790380Y945200D01*
X790380Y952180D02*
X797360Y952180D01*
X797360Y945200D01*
X790380Y945200D01*
X790380Y950000D02*
X797360Y950000D01*
D17*
X948690Y887340D03*
X948690Y870340D03*
D18*
X926740Y890680D03*
X926740Y897180D03*
X926740Y903680D03*
X926740Y910180D03*
X881740Y910180D03*
X881740Y903680D03*
X881740Y897180D03*
X881740Y890680D03*
D17*
X853440Y893690D03*
X853440Y876690D03*
D16*
X1000560Y863280D02*
X1000560Y856300D01*
X993580Y856300D01*
X993580Y863280D01*
X1000560Y863280D01*
X1000560Y861100D02*
X993580Y861100D01*
X1018100Y863280D02*
X1018100Y856300D01*
X1011120Y856300D01*
X1011120Y863280D01*
X1018100Y863280D01*
X1018100Y861100D02*
X1011120Y861100D01*
D12*
X1014340Y840740D03*
X997340Y840740D03*
D15*
X929640Y789940D03*
X904240Y789940D03*
X878840Y789940D03*
X853440Y789940D03*
D19*
X894240Y942950D03*
X894240Y923950D03*
X915240Y933450D03*
D17*
X878840Y944000D03*
X878840Y961000D03*
X853440Y927490D03*
X853440Y944490D03*
D20*
X894740Y863450D03*
X894740Y876450D03*
X913740Y863450D03*
X913740Y876450D03*
X913740Y869950D03*
D15*
X853440Y1018540D03*
X955040Y789940D03*
D10*
X1061720Y1005840D03*
X1264920Y1005840D03*
D11*
X1281430Y786130D03*
X1043940Y1023620D03*
D12*
X1076570Y840740D03*
X1059570Y840740D03*
X1076570Y814070D03*
X1059570Y814070D03*
D13*
X1050370Y932240D03*
X1050370Y876240D03*
D14*
X1087120Y919240D03*
X1087120Y909240D03*
X1087120Y899240D03*
X1087120Y889240D03*
D15*
X1137920Y1018540D03*
X1163320Y1018540D03*
X1188720Y1018540D03*
X1214120Y1018540D03*
D13*
X1276270Y876240D03*
X1276270Y932240D03*
D14*
X1239520Y889240D03*
X1239520Y899240D03*
X1239520Y909240D03*
X1239520Y919240D03*
D12*
X1053220Y967740D03*
X1070220Y967740D03*
D16*
X1067000Y952180D02*
X1067000Y945200D01*
X1067000Y952180D02*
X1073980Y952180D01*
X1073980Y945200D01*
X1067000Y945200D01*
X1067000Y950000D02*
X1073980Y950000D01*
X1049460Y952180D02*
X1049460Y945200D01*
X1049460Y952180D02*
X1056440Y952180D01*
X1056440Y945200D01*
X1049460Y945200D01*
X1049460Y950000D02*
X1056440Y950000D01*
D17*
X1207770Y887340D03*
X1207770Y870340D03*
D18*
X1185820Y890680D03*
X1185820Y897180D03*
X1185820Y903680D03*
X1185820Y910180D03*
X1140820Y910180D03*
X1140820Y903680D03*
X1140820Y897180D03*
X1140820Y890680D03*
D17*
X1112520Y893690D03*
X1112520Y876690D03*
D16*
X1259640Y863280D02*
X1259640Y856300D01*
X1252660Y856300D01*
X1252660Y863280D01*
X1259640Y863280D01*
X1259640Y861100D02*
X1252660Y861100D01*
X1277180Y863280D02*
X1277180Y856300D01*
X1270200Y856300D01*
X1270200Y863280D01*
X1277180Y863280D01*
X1277180Y861100D02*
X1270200Y861100D01*
D12*
X1273420Y840740D03*
X1256420Y840740D03*
D15*
X1188720Y789940D03*
X1163320Y789940D03*
X1137920Y789940D03*
X1112520Y789940D03*
D19*
X1153320Y942950D03*
X1153320Y923950D03*
X1174320Y933450D03*
D17*
X1137920Y944000D03*
X1137920Y961000D03*
X1112520Y927490D03*
X1112520Y944490D03*
D20*
X1153820Y863450D03*
X1153820Y876450D03*
X1172820Y863450D03*
X1172820Y876450D03*
X1172820Y869950D03*
D15*
X1112520Y1018540D03*
X1214120Y789940D03*
D10*
X25400Y1264920D03*
X228600Y1264920D03*
D11*
X245110Y1045210D03*
X7620Y1282700D03*
D12*
X40250Y1099820D03*
X23250Y1099820D03*
X40250Y1073150D03*
X23250Y1073150D03*
D13*
X14050Y1191320D03*
X14050Y1135320D03*
D14*
X50800Y1178320D03*
X50800Y1168320D03*
X50800Y1158320D03*
X50800Y1148320D03*
D15*
X101600Y1277620D03*
X127000Y1277620D03*
X152400Y1277620D03*
X177800Y1277620D03*
D13*
X239950Y1135320D03*
X239950Y1191320D03*
D14*
X203200Y1148320D03*
X203200Y1158320D03*
X203200Y1168320D03*
X203200Y1178320D03*
D12*
X16900Y1226820D03*
X33900Y1226820D03*
D16*
X30680Y1211260D02*
X30680Y1204280D01*
X30680Y1211260D02*
X37660Y1211260D01*
X37660Y1204280D01*
X30680Y1204280D01*
X30680Y1209080D02*
X37660Y1209080D01*
X13140Y1211260D02*
X13140Y1204280D01*
X13140Y1211260D02*
X20120Y1211260D01*
X20120Y1204280D01*
X13140Y1204280D01*
X13140Y1209080D02*
X20120Y1209080D01*
D17*
X171450Y1146420D03*
X171450Y1129420D03*
D18*
X149500Y1149760D03*
X149500Y1156260D03*
X149500Y1162760D03*
X149500Y1169260D03*
X104500Y1169260D03*
X104500Y1162760D03*
X104500Y1156260D03*
X104500Y1149760D03*
D17*
X76200Y1152770D03*
X76200Y1135770D03*
D16*
X223320Y1122360D02*
X223320Y1115380D01*
X216340Y1115380D01*
X216340Y1122360D01*
X223320Y1122360D01*
X223320Y1120180D02*
X216340Y1120180D01*
X240860Y1122360D02*
X240860Y1115380D01*
X233880Y1115380D01*
X233880Y1122360D01*
X240860Y1122360D01*
X240860Y1120180D02*
X233880Y1120180D01*
D12*
X237100Y1099820D03*
X220100Y1099820D03*
D15*
X152400Y1049020D03*
X127000Y1049020D03*
X101600Y1049020D03*
X76200Y1049020D03*
D19*
X117000Y1202030D03*
X117000Y1183030D03*
X138000Y1192530D03*
D17*
X101600Y1203080D03*
X101600Y1220080D03*
X76200Y1186570D03*
X76200Y1203570D03*
D20*
X117500Y1122530D03*
X117500Y1135530D03*
X136500Y1122530D03*
X136500Y1135530D03*
X136500Y1129030D03*
D15*
X76200Y1277620D03*
X177800Y1049020D03*
D10*
X284480Y1264920D03*
X487680Y1264920D03*
D11*
X504190Y1045210D03*
X266700Y1282700D03*
D12*
X299330Y1099820D03*
X282330Y1099820D03*
X299330Y1073150D03*
X282330Y1073150D03*
D13*
X273130Y1191320D03*
X273130Y1135320D03*
D14*
X309880Y1178320D03*
X309880Y1168320D03*
X309880Y1158320D03*
X309880Y1148320D03*
D15*
X360680Y1277620D03*
X386080Y1277620D03*
X411480Y1277620D03*
X436880Y1277620D03*
D13*
X499030Y1135320D03*
X499030Y1191320D03*
D14*
X462280Y1148320D03*
X462280Y1158320D03*
X462280Y1168320D03*
X462280Y1178320D03*
D12*
X275980Y1226820D03*
X292980Y1226820D03*
D16*
X289760Y1211260D02*
X289760Y1204280D01*
X289760Y1211260D02*
X296740Y1211260D01*
X296740Y1204280D01*
X289760Y1204280D01*
X289760Y1209080D02*
X296740Y1209080D01*
X272220Y1211260D02*
X272220Y1204280D01*
X272220Y1211260D02*
X279200Y1211260D01*
X279200Y1204280D01*
X272220Y1204280D01*
X272220Y1209080D02*
X279200Y1209080D01*
D17*
X430530Y1146420D03*
X430530Y1129420D03*
D18*
X408580Y1149760D03*
X408580Y1156260D03*
X408580Y1162760D03*
X408580Y1169260D03*
X363580Y1169260D03*
X363580Y1162760D03*
X363580Y1156260D03*
X363580Y1149760D03*
D17*
X335280Y1152770D03*
X335280Y1135770D03*
D16*
X482400Y1122360D02*
X482400Y1115380D01*
X475420Y1115380D01*
X475420Y1122360D01*
X482400Y1122360D01*
X482400Y1120180D02*
X475420Y1120180D01*
X499940Y1122360D02*
X499940Y1115380D01*
X492960Y1115380D01*
X492960Y1122360D01*
X499940Y1122360D01*
X499940Y1120180D02*
X492960Y1120180D01*
D12*
X496180Y1099820D03*
X479180Y1099820D03*
D15*
X411480Y1049020D03*
X386080Y1049020D03*
X360680Y1049020D03*
X335280Y1049020D03*
D19*
X376080Y1202030D03*
X376080Y1183030D03*
X397080Y1192530D03*
D17*
X360680Y1203080D03*
X360680Y1220080D03*
X335280Y1186570D03*
X335280Y1203570D03*
D20*
X376580Y1122530D03*
X376580Y1135530D03*
X395580Y1122530D03*
X395580Y1135530D03*
X395580Y1129030D03*
D15*
X335280Y1277620D03*
X436880Y1049020D03*
D10*
X543560Y1264920D03*
X746760Y1264920D03*
D11*
X763270Y1045210D03*
X525780Y1282700D03*
D12*
X558410Y1099820D03*
X541410Y1099820D03*
X558410Y1073150D03*
X541410Y1073150D03*
D13*
X532210Y1191320D03*
X532210Y1135320D03*
D14*
X568960Y1178320D03*
X568960Y1168320D03*
X568960Y1158320D03*
X568960Y1148320D03*
D15*
X619760Y1277620D03*
X645160Y1277620D03*
X670560Y1277620D03*
X695960Y1277620D03*
D13*
X758110Y1135320D03*
X758110Y1191320D03*
D14*
X721360Y1148320D03*
X721360Y1158320D03*
X721360Y1168320D03*
X721360Y1178320D03*
D12*
X535060Y1226820D03*
X552060Y1226820D03*
D16*
X548840Y1211260D02*
X548840Y1204280D01*
X548840Y1211260D02*
X555820Y1211260D01*
X555820Y1204280D01*
X548840Y1204280D01*
X548840Y1209080D02*
X555820Y1209080D01*
X531300Y1211260D02*
X531300Y1204280D01*
X531300Y1211260D02*
X538280Y1211260D01*
X538280Y1204280D01*
X531300Y1204280D01*
X531300Y1209080D02*
X538280Y1209080D01*
D17*
X689610Y1146420D03*
X689610Y1129420D03*
D18*
X667660Y1149760D03*
X667660Y1156260D03*
X667660Y1162760D03*
X667660Y1169260D03*
X622660Y1169260D03*
X622660Y1162760D03*
X622660Y1156260D03*
X622660Y1149760D03*
D17*
X594360Y1152770D03*
X594360Y1135770D03*
D16*
X741480Y1122360D02*
X741480Y1115380D01*
X734500Y1115380D01*
X734500Y1122360D01*
X741480Y1122360D01*
X741480Y1120180D02*
X734500Y1120180D01*
X759020Y1122360D02*
X759020Y1115380D01*
X752040Y1115380D01*
X752040Y1122360D01*
X759020Y1122360D01*
X759020Y1120180D02*
X752040Y1120180D01*
D12*
X755260Y1099820D03*
X738260Y1099820D03*
D15*
X670560Y1049020D03*
X645160Y1049020D03*
X619760Y1049020D03*
X594360Y1049020D03*
D19*
X635160Y1202030D03*
X635160Y1183030D03*
X656160Y1192530D03*
D17*
X619760Y1203080D03*
X619760Y1220080D03*
X594360Y1186570D03*
X594360Y1203570D03*
D20*
X635660Y1122530D03*
X635660Y1135530D03*
X654660Y1122530D03*
X654660Y1135530D03*
X654660Y1129030D03*
D15*
X594360Y1277620D03*
X695960Y1049020D03*
D10*
X802640Y1264920D03*
X1005840Y1264920D03*
D11*
X1022350Y1045210D03*
X784860Y1282700D03*
D12*
X817490Y1099820D03*
X800490Y1099820D03*
X817490Y1073150D03*
X800490Y1073150D03*
D13*
X791290Y1191320D03*
X791290Y1135320D03*
D14*
X828040Y1178320D03*
X828040Y1168320D03*
X828040Y1158320D03*
X828040Y1148320D03*
D15*
X878840Y1277620D03*
X904240Y1277620D03*
X929640Y1277620D03*
X955040Y1277620D03*
D13*
X1017190Y1135320D03*
X1017190Y1191320D03*
D14*
X980440Y1148320D03*
X980440Y1158320D03*
X980440Y1168320D03*
X980440Y1178320D03*
D12*
X794140Y1226820D03*
X811140Y1226820D03*
D16*
X807920Y1211260D02*
X807920Y1204280D01*
X807920Y1211260D02*
X814900Y1211260D01*
X814900Y1204280D01*
X807920Y1204280D01*
X807920Y1209080D02*
X814900Y1209080D01*
X790380Y1211260D02*
X790380Y1204280D01*
X790380Y1211260D02*
X797360Y1211260D01*
X797360Y1204280D01*
X790380Y1204280D01*
X790380Y1209080D02*
X797360Y1209080D01*
D17*
X948690Y1146420D03*
X948690Y1129420D03*
D18*
X926740Y1149760D03*
X926740Y1156260D03*
X926740Y1162760D03*
X926740Y1169260D03*
X881740Y1169260D03*
X881740Y1162760D03*
X881740Y1156260D03*
X881740Y1149760D03*
D17*
X853440Y1152770D03*
X853440Y1135770D03*
D16*
X1000560Y1122360D02*
X1000560Y1115380D01*
X993580Y1115380D01*
X993580Y1122360D01*
X1000560Y1122360D01*
X1000560Y1120180D02*
X993580Y1120180D01*
X1018100Y1122360D02*
X1018100Y1115380D01*
X1011120Y1115380D01*
X1011120Y1122360D01*
X1018100Y1122360D01*
X1018100Y1120180D02*
X1011120Y1120180D01*
D12*
X1014340Y1099820D03*
X997340Y1099820D03*
D15*
X929640Y1049020D03*
X904240Y1049020D03*
X878840Y1049020D03*
X853440Y1049020D03*
D19*
X894240Y1202030D03*
X894240Y1183030D03*
X915240Y1192530D03*
D17*
X878840Y1203080D03*
X878840Y1220080D03*
X853440Y1186570D03*
X853440Y1203570D03*
D20*
X894740Y1122530D03*
X894740Y1135530D03*
X913740Y1122530D03*
X913740Y1135530D03*
X913740Y1129030D03*
D15*
X853440Y1277620D03*
X955040Y1049020D03*
D10*
X1061720Y1264920D03*
X1264920Y1264920D03*
D11*
X1281430Y1045210D03*
X1043940Y1282700D03*
D12*
X1076570Y1099820D03*
X1059570Y1099820D03*
X1076570Y1073150D03*
X1059570Y1073150D03*
D13*
X1050370Y1191320D03*
X1050370Y1135320D03*
D14*
X1087120Y1178320D03*
X1087120Y1168320D03*
X1087120Y1158320D03*
X1087120Y1148320D03*
D15*
X1137920Y1277620D03*
X1163320Y1277620D03*
X1188720Y1277620D03*
X1214120Y1277620D03*
D13*
X1276270Y1135320D03*
X1276270Y1191320D03*
D14*
X1239520Y1148320D03*
X1239520Y1158320D03*
X1239520Y1168320D03*
X1239520Y1178320D03*
D12*
X1053220Y1226820D03*
X1070220Y1226820D03*
D16*
X1067000Y1211260D02*
X1067000Y1204280D01*
X1067000Y1211260D02*
X1073980Y1211260D01*
X1073980Y1204280D01*
X1067000Y1204280D01*
X1067000Y1209080D02*
X1073980Y1209080D01*
X1049460Y1211260D02*
X1049460Y1204280D01*
X1049460Y1211260D02*
X1056440Y1211260D01*
X1056440Y1204280D01*
X1049460Y1204280D01*
X1049460Y1209080D02*
X1056440Y1209080D01*
D17*
X1207770Y1146420D03*
X1207770Y1129420D03*
D18*
X1185820Y1149760D03*
X1185820Y1156260D03*
X1185820Y1162760D03*
X1185820Y1169260D03*
X1140820Y1169260D03*
X1140820Y1162760D03*
X1140820Y1156260D03*
X1140820Y1149760D03*
D17*
X1112520Y1152770D03*
X1112520Y1135770D03*
D16*
X1259640Y1122360D02*
X1259640Y1115380D01*
X1252660Y1115380D01*
X1252660Y1122360D01*
X1259640Y1122360D01*
X1259640Y1120180D02*
X1252660Y1120180D01*
X1277180Y1122360D02*
X1277180Y1115380D01*
X1270200Y1115380D01*
X1270200Y1122360D01*
X1277180Y1122360D01*
X1277180Y1120180D02*
X1270200Y1120180D01*
D12*
X1273420Y1099820D03*
X1256420Y1099820D03*
D15*
X1188720Y1049020D03*
X1163320Y1049020D03*
X1137920Y1049020D03*
X1112520Y1049020D03*
D19*
X1153320Y1202030D03*
X1153320Y1183030D03*
X1174320Y1192530D03*
D17*
X1137920Y1203080D03*
X1137920Y1220080D03*
X1112520Y1186570D03*
X1112520Y1203570D03*
D20*
X1153820Y1122530D03*
X1153820Y1135530D03*
X1172820Y1122530D03*
X1172820Y1135530D03*
X1172820Y1129030D03*
D15*
X1112520Y1277620D03*
X1214120Y1049020D03*
D11*
X68580Y1311275D03*
X1221105Y1311275D03*
D21*
X59525Y-20955D02*
X59528Y-20733D01*
X59536Y-20511D01*
X59550Y-20289D01*
X59569Y-20067D01*
X59593Y-19847D01*
X59623Y-19626D01*
X59658Y-19407D01*
X59699Y-19188D01*
X59745Y-18971D01*
X59796Y-18755D01*
X59853Y-18540D01*
X59915Y-18326D01*
X59982Y-18115D01*
X60054Y-17904D01*
X60132Y-17696D01*
X60214Y-17490D01*
X60302Y-17286D01*
X60394Y-17083D01*
X60492Y-16884D01*
X60594Y-16687D01*
X60701Y-16492D01*
X60813Y-16300D01*
X60930Y-16111D01*
X61051Y-15924D01*
X61177Y-15741D01*
X61307Y-15561D01*
X61442Y-15384D01*
X61580Y-15211D01*
X61723Y-15041D01*
X61871Y-14874D01*
X62022Y-14711D01*
X62177Y-14552D01*
X62336Y-14397D01*
X62499Y-14246D01*
X62666Y-14098D01*
X62836Y-13955D01*
X63009Y-13817D01*
X63186Y-13682D01*
X63366Y-13552D01*
X63549Y-13426D01*
X63736Y-13305D01*
X63925Y-13188D01*
X64117Y-13076D01*
X64312Y-12969D01*
X64509Y-12867D01*
X64708Y-12769D01*
X64911Y-12677D01*
X65115Y-12589D01*
X65321Y-12507D01*
X65529Y-12429D01*
X65740Y-12357D01*
X65951Y-12290D01*
X66165Y-12228D01*
X66380Y-12171D01*
X66596Y-12120D01*
X66813Y-12074D01*
X67032Y-12033D01*
X67251Y-11998D01*
X67472Y-11968D01*
X67692Y-11944D01*
X67914Y-11925D01*
X68136Y-11911D01*
X68358Y-11903D01*
X68580Y-11900D01*
X68802Y-11903D01*
X69024Y-11911D01*
X69246Y-11925D01*
X69468Y-11944D01*
X69688Y-11968D01*
X69909Y-11998D01*
X70128Y-12033D01*
X70347Y-12074D01*
X70564Y-12120D01*
X70780Y-12171D01*
X70995Y-12228D01*
X71209Y-12290D01*
X71420Y-12357D01*
X71631Y-12429D01*
X71839Y-12507D01*
X72045Y-12589D01*
X72249Y-12677D01*
X72452Y-12769D01*
X72651Y-12867D01*
X72848Y-12969D01*
X73043Y-13076D01*
X73235Y-13188D01*
X73424Y-13305D01*
X73611Y-13426D01*
X73794Y-13552D01*
X73974Y-13682D01*
X74151Y-13817D01*
X74324Y-13955D01*
X74494Y-14098D01*
X74661Y-14246D01*
X74824Y-14397D01*
X74983Y-14552D01*
X75138Y-14711D01*
X75289Y-14874D01*
X75437Y-15041D01*
X75580Y-15211D01*
X75718Y-15384D01*
X75853Y-15561D01*
X75983Y-15741D01*
X76109Y-15924D01*
X76230Y-16111D01*
X76347Y-16300D01*
X76459Y-16492D01*
X76566Y-16687D01*
X76668Y-16884D01*
X76766Y-17083D01*
X76858Y-17286D01*
X76946Y-17490D01*
X77028Y-17696D01*
X77106Y-17904D01*
X77178Y-18115D01*
X77245Y-18326D01*
X77307Y-18540D01*
X77364Y-18755D01*
X77415Y-18971D01*
X77461Y-19188D01*
X77502Y-19407D01*
X77537Y-19626D01*
X77567Y-19847D01*
X77591Y-20067D01*
X77610Y-20289D01*
X77624Y-20511D01*
X77632Y-20733D01*
X77635Y-20955D01*
X77632Y-21177D01*
X77624Y-21399D01*
X77610Y-21621D01*
X77591Y-21843D01*
X77567Y-22063D01*
X77537Y-22284D01*
X77502Y-22503D01*
X77461Y-22722D01*
X77415Y-22939D01*
X77364Y-23155D01*
X77307Y-23370D01*
X77245Y-23584D01*
X77178Y-23795D01*
X77106Y-24006D01*
X77028Y-24214D01*
X76946Y-24420D01*
X76858Y-24624D01*
X76766Y-24827D01*
X76668Y-25026D01*
X76566Y-25223D01*
X76459Y-25418D01*
X76347Y-25610D01*
X76230Y-25799D01*
X76109Y-25986D01*
X75983Y-26169D01*
X75853Y-26349D01*
X75718Y-26526D01*
X75580Y-26699D01*
X75437Y-26869D01*
X75289Y-27036D01*
X75138Y-27199D01*
X74983Y-27358D01*
X74824Y-27513D01*
X74661Y-27664D01*
X74494Y-27812D01*
X74324Y-27955D01*
X74151Y-28093D01*
X73974Y-28228D01*
X73794Y-28358D01*
X73611Y-28484D01*
X73424Y-28605D01*
X73235Y-28722D01*
X73043Y-28834D01*
X72848Y-28941D01*
X72651Y-29043D01*
X72452Y-29141D01*
X72249Y-29233D01*
X72045Y-29321D01*
X71839Y-29403D01*
X71631Y-29481D01*
X71420Y-29553D01*
X71209Y-29620D01*
X70995Y-29682D01*
X70780Y-29739D01*
X70564Y-29790D01*
X70347Y-29836D01*
X70128Y-29877D01*
X69909Y-29912D01*
X69688Y-29942D01*
X69468Y-29966D01*
X69246Y-29985D01*
X69024Y-29999D01*
X68802Y-30007D01*
X68580Y-30010D01*
X68358Y-30007D01*
X68136Y-29999D01*
X67914Y-29985D01*
X67692Y-29966D01*
X67472Y-29942D01*
X67251Y-29912D01*
X67032Y-29877D01*
X66813Y-29836D01*
X66596Y-29790D01*
X66380Y-29739D01*
X66165Y-29682D01*
X65951Y-29620D01*
X65740Y-29553D01*
X65529Y-29481D01*
X65321Y-29403D01*
X65115Y-29321D01*
X64911Y-29233D01*
X64708Y-29141D01*
X64509Y-29043D01*
X64312Y-28941D01*
X64117Y-28834D01*
X63925Y-28722D01*
X63736Y-28605D01*
X63549Y-28484D01*
X63366Y-28358D01*
X63186Y-28228D01*
X63009Y-28093D01*
X62836Y-27955D01*
X62666Y-27812D01*
X62499Y-27664D01*
X62336Y-27513D01*
X62177Y-27358D01*
X62022Y-27199D01*
X61871Y-27036D01*
X61723Y-26869D01*
X61580Y-26699D01*
X61442Y-26526D01*
X61307Y-26349D01*
X61177Y-26169D01*
X61051Y-25986D01*
X60930Y-25799D01*
X60813Y-25610D01*
X60701Y-25418D01*
X60594Y-25223D01*
X60492Y-25026D01*
X60394Y-24827D01*
X60302Y-24624D01*
X60214Y-24420D01*
X60132Y-24214D01*
X60054Y-24006D01*
X59982Y-23795D01*
X59915Y-23584D01*
X59853Y-23370D01*
X59796Y-23155D01*
X59745Y-22939D01*
X59699Y-22722D01*
X59658Y-22503D01*
X59623Y-22284D01*
X59593Y-22063D01*
X59569Y-21843D01*
X59550Y-21621D01*
X59536Y-21399D01*
X59528Y-21177D01*
X59525Y-20955D01*
D22*
X68580Y-20955D03*
M02*
