G04 EAGLE Gerber RS-274X export*
G75*
%MOMM*%
%FSLAX34Y34*%
%LPD*%
%INSolderpaste Top*%
%IPPOS*%
%AMOC8*
5,1,8,0,0,1.08239X$1,22.5*%
G01*
%ADD10R,1.100000X1.000000*%
%ADD11R,2.000000X1.200000*%
%ADD12R,1.350000X0.600000*%
%ADD13C,0.300000*%
%ADD14R,1.000000X1.100000*%
%ADD15R,1.100000X0.400000*%
%ADD16R,0.900000X0.800000*%
%ADD17R,0.700000X0.420000*%


D10*
X40250Y63500D03*
X23250Y63500D03*
X40250Y36830D03*
X23250Y36830D03*
D11*
X14050Y155000D03*
X14050Y99000D03*
D12*
X50800Y142000D03*
X50800Y132000D03*
X50800Y122000D03*
X50800Y112000D03*
D11*
X239950Y99000D03*
X239950Y155000D03*
D12*
X203200Y112000D03*
X203200Y122000D03*
X203200Y132000D03*
X203200Y142000D03*
D10*
X16900Y190500D03*
X33900Y190500D03*
D13*
X30670Y174950D02*
X30670Y167950D01*
X30670Y174950D02*
X37670Y174950D01*
X37670Y167950D01*
X30670Y167950D01*
X30670Y170800D02*
X37670Y170800D01*
X37670Y173650D02*
X30670Y173650D01*
X13130Y174950D02*
X13130Y167950D01*
X13130Y174950D02*
X20130Y174950D01*
X20130Y167950D01*
X13130Y167950D01*
X13130Y170800D02*
X20130Y170800D01*
X20130Y173650D02*
X13130Y173650D01*
D14*
X171450Y110100D03*
X171450Y93100D03*
D15*
X149500Y113440D03*
X149500Y119940D03*
X149500Y126440D03*
X149500Y132940D03*
X104500Y132940D03*
X104500Y126440D03*
X104500Y119940D03*
X104500Y113440D03*
D14*
X76200Y116450D03*
X76200Y99450D03*
D13*
X223330Y86050D02*
X223330Y79050D01*
X216330Y79050D01*
X216330Y86050D01*
X223330Y86050D01*
X223330Y81900D02*
X216330Y81900D01*
X216330Y84750D02*
X223330Y84750D01*
X240870Y86050D02*
X240870Y79050D01*
X233870Y79050D01*
X233870Y86050D01*
X240870Y86050D01*
X240870Y81900D02*
X233870Y81900D01*
X233870Y84750D02*
X240870Y84750D01*
D10*
X237100Y63500D03*
X220100Y63500D03*
D16*
X117000Y165710D03*
X117000Y146710D03*
X138000Y156210D03*
D14*
X101600Y166760D03*
X101600Y183760D03*
X76200Y150250D03*
X76200Y167250D03*
D17*
X117500Y86210D03*
X117500Y99210D03*
X136500Y86210D03*
X136500Y99210D03*
X136500Y92710D03*
D10*
X299330Y63500D03*
X282330Y63500D03*
X299330Y36830D03*
X282330Y36830D03*
D11*
X273130Y155000D03*
X273130Y99000D03*
D12*
X309880Y142000D03*
X309880Y132000D03*
X309880Y122000D03*
X309880Y112000D03*
D11*
X499030Y99000D03*
X499030Y155000D03*
D12*
X462280Y112000D03*
X462280Y122000D03*
X462280Y132000D03*
X462280Y142000D03*
D10*
X275980Y190500D03*
X292980Y190500D03*
D13*
X289750Y174950D02*
X289750Y167950D01*
X289750Y174950D02*
X296750Y174950D01*
X296750Y167950D01*
X289750Y167950D01*
X289750Y170800D02*
X296750Y170800D01*
X296750Y173650D02*
X289750Y173650D01*
X272210Y174950D02*
X272210Y167950D01*
X272210Y174950D02*
X279210Y174950D01*
X279210Y167950D01*
X272210Y167950D01*
X272210Y170800D02*
X279210Y170800D01*
X279210Y173650D02*
X272210Y173650D01*
D14*
X430530Y110100D03*
X430530Y93100D03*
D15*
X408580Y113440D03*
X408580Y119940D03*
X408580Y126440D03*
X408580Y132940D03*
X363580Y132940D03*
X363580Y126440D03*
X363580Y119940D03*
X363580Y113440D03*
D14*
X335280Y116450D03*
X335280Y99450D03*
D13*
X482410Y86050D02*
X482410Y79050D01*
X475410Y79050D01*
X475410Y86050D01*
X482410Y86050D01*
X482410Y81900D02*
X475410Y81900D01*
X475410Y84750D02*
X482410Y84750D01*
X499950Y86050D02*
X499950Y79050D01*
X492950Y79050D01*
X492950Y86050D01*
X499950Y86050D01*
X499950Y81900D02*
X492950Y81900D01*
X492950Y84750D02*
X499950Y84750D01*
D10*
X496180Y63500D03*
X479180Y63500D03*
D16*
X376080Y165710D03*
X376080Y146710D03*
X397080Y156210D03*
D14*
X360680Y166760D03*
X360680Y183760D03*
X335280Y150250D03*
X335280Y167250D03*
D17*
X376580Y86210D03*
X376580Y99210D03*
X395580Y86210D03*
X395580Y99210D03*
X395580Y92710D03*
D10*
X558410Y63500D03*
X541410Y63500D03*
X558410Y36830D03*
X541410Y36830D03*
D11*
X532210Y155000D03*
X532210Y99000D03*
D12*
X568960Y142000D03*
X568960Y132000D03*
X568960Y122000D03*
X568960Y112000D03*
D11*
X758110Y99000D03*
X758110Y155000D03*
D12*
X721360Y112000D03*
X721360Y122000D03*
X721360Y132000D03*
X721360Y142000D03*
D10*
X535060Y190500D03*
X552060Y190500D03*
D13*
X548830Y174950D02*
X548830Y167950D01*
X548830Y174950D02*
X555830Y174950D01*
X555830Y167950D01*
X548830Y167950D01*
X548830Y170800D02*
X555830Y170800D01*
X555830Y173650D02*
X548830Y173650D01*
X531290Y174950D02*
X531290Y167950D01*
X531290Y174950D02*
X538290Y174950D01*
X538290Y167950D01*
X531290Y167950D01*
X531290Y170800D02*
X538290Y170800D01*
X538290Y173650D02*
X531290Y173650D01*
D14*
X689610Y110100D03*
X689610Y93100D03*
D15*
X667660Y113440D03*
X667660Y119940D03*
X667660Y126440D03*
X667660Y132940D03*
X622660Y132940D03*
X622660Y126440D03*
X622660Y119940D03*
X622660Y113440D03*
D14*
X594360Y116450D03*
X594360Y99450D03*
D13*
X741490Y86050D02*
X741490Y79050D01*
X734490Y79050D01*
X734490Y86050D01*
X741490Y86050D01*
X741490Y81900D02*
X734490Y81900D01*
X734490Y84750D02*
X741490Y84750D01*
X759030Y86050D02*
X759030Y79050D01*
X752030Y79050D01*
X752030Y86050D01*
X759030Y86050D01*
X759030Y81900D02*
X752030Y81900D01*
X752030Y84750D02*
X759030Y84750D01*
D10*
X755260Y63500D03*
X738260Y63500D03*
D16*
X635160Y165710D03*
X635160Y146710D03*
X656160Y156210D03*
D14*
X619760Y166760D03*
X619760Y183760D03*
X594360Y150250D03*
X594360Y167250D03*
D17*
X635660Y86210D03*
X635660Y99210D03*
X654660Y86210D03*
X654660Y99210D03*
X654660Y92710D03*
D10*
X817490Y63500D03*
X800490Y63500D03*
X817490Y36830D03*
X800490Y36830D03*
D11*
X791290Y155000D03*
X791290Y99000D03*
D12*
X828040Y142000D03*
X828040Y132000D03*
X828040Y122000D03*
X828040Y112000D03*
D11*
X1017190Y99000D03*
X1017190Y155000D03*
D12*
X980440Y112000D03*
X980440Y122000D03*
X980440Y132000D03*
X980440Y142000D03*
D10*
X794140Y190500D03*
X811140Y190500D03*
D13*
X807910Y174950D02*
X807910Y167950D01*
X807910Y174950D02*
X814910Y174950D01*
X814910Y167950D01*
X807910Y167950D01*
X807910Y170800D02*
X814910Y170800D01*
X814910Y173650D02*
X807910Y173650D01*
X790370Y174950D02*
X790370Y167950D01*
X790370Y174950D02*
X797370Y174950D01*
X797370Y167950D01*
X790370Y167950D01*
X790370Y170800D02*
X797370Y170800D01*
X797370Y173650D02*
X790370Y173650D01*
D14*
X948690Y110100D03*
X948690Y93100D03*
D15*
X926740Y113440D03*
X926740Y119940D03*
X926740Y126440D03*
X926740Y132940D03*
X881740Y132940D03*
X881740Y126440D03*
X881740Y119940D03*
X881740Y113440D03*
D14*
X853440Y116450D03*
X853440Y99450D03*
D13*
X1000570Y86050D02*
X1000570Y79050D01*
X993570Y79050D01*
X993570Y86050D01*
X1000570Y86050D01*
X1000570Y81900D02*
X993570Y81900D01*
X993570Y84750D02*
X1000570Y84750D01*
X1018110Y86050D02*
X1018110Y79050D01*
X1011110Y79050D01*
X1011110Y86050D01*
X1018110Y86050D01*
X1018110Y81900D02*
X1011110Y81900D01*
X1011110Y84750D02*
X1018110Y84750D01*
D10*
X1014340Y63500D03*
X997340Y63500D03*
D16*
X894240Y165710D03*
X894240Y146710D03*
X915240Y156210D03*
D14*
X878840Y166760D03*
X878840Y183760D03*
X853440Y150250D03*
X853440Y167250D03*
D17*
X894740Y86210D03*
X894740Y99210D03*
X913740Y86210D03*
X913740Y99210D03*
X913740Y92710D03*
D10*
X1076570Y63500D03*
X1059570Y63500D03*
X1076570Y36830D03*
X1059570Y36830D03*
D11*
X1050370Y155000D03*
X1050370Y99000D03*
D12*
X1087120Y142000D03*
X1087120Y132000D03*
X1087120Y122000D03*
X1087120Y112000D03*
D11*
X1276270Y99000D03*
X1276270Y155000D03*
D12*
X1239520Y112000D03*
X1239520Y122000D03*
X1239520Y132000D03*
X1239520Y142000D03*
D10*
X1053220Y190500D03*
X1070220Y190500D03*
D13*
X1066990Y174950D02*
X1066990Y167950D01*
X1066990Y174950D02*
X1073990Y174950D01*
X1073990Y167950D01*
X1066990Y167950D01*
X1066990Y170800D02*
X1073990Y170800D01*
X1073990Y173650D02*
X1066990Y173650D01*
X1049450Y174950D02*
X1049450Y167950D01*
X1049450Y174950D02*
X1056450Y174950D01*
X1056450Y167950D01*
X1049450Y167950D01*
X1049450Y170800D02*
X1056450Y170800D01*
X1056450Y173650D02*
X1049450Y173650D01*
D14*
X1207770Y110100D03*
X1207770Y93100D03*
D15*
X1185820Y113440D03*
X1185820Y119940D03*
X1185820Y126440D03*
X1185820Y132940D03*
X1140820Y132940D03*
X1140820Y126440D03*
X1140820Y119940D03*
X1140820Y113440D03*
D14*
X1112520Y116450D03*
X1112520Y99450D03*
D13*
X1259650Y86050D02*
X1259650Y79050D01*
X1252650Y79050D01*
X1252650Y86050D01*
X1259650Y86050D01*
X1259650Y81900D02*
X1252650Y81900D01*
X1252650Y84750D02*
X1259650Y84750D01*
X1277190Y86050D02*
X1277190Y79050D01*
X1270190Y79050D01*
X1270190Y86050D01*
X1277190Y86050D01*
X1277190Y81900D02*
X1270190Y81900D01*
X1270190Y84750D02*
X1277190Y84750D01*
D10*
X1273420Y63500D03*
X1256420Y63500D03*
D16*
X1153320Y165710D03*
X1153320Y146710D03*
X1174320Y156210D03*
D14*
X1137920Y166760D03*
X1137920Y183760D03*
X1112520Y150250D03*
X1112520Y167250D03*
D17*
X1153820Y86210D03*
X1153820Y99210D03*
X1172820Y86210D03*
X1172820Y99210D03*
X1172820Y92710D03*
D10*
X40250Y322580D03*
X23250Y322580D03*
X40250Y295910D03*
X23250Y295910D03*
D11*
X14050Y414080D03*
X14050Y358080D03*
D12*
X50800Y401080D03*
X50800Y391080D03*
X50800Y381080D03*
X50800Y371080D03*
D11*
X239950Y358080D03*
X239950Y414080D03*
D12*
X203200Y371080D03*
X203200Y381080D03*
X203200Y391080D03*
X203200Y401080D03*
D10*
X16900Y449580D03*
X33900Y449580D03*
D13*
X30670Y434030D02*
X30670Y427030D01*
X30670Y434030D02*
X37670Y434030D01*
X37670Y427030D01*
X30670Y427030D01*
X30670Y429880D02*
X37670Y429880D01*
X37670Y432730D02*
X30670Y432730D01*
X13130Y434030D02*
X13130Y427030D01*
X13130Y434030D02*
X20130Y434030D01*
X20130Y427030D01*
X13130Y427030D01*
X13130Y429880D02*
X20130Y429880D01*
X20130Y432730D02*
X13130Y432730D01*
D14*
X171450Y369180D03*
X171450Y352180D03*
D15*
X149500Y372520D03*
X149500Y379020D03*
X149500Y385520D03*
X149500Y392020D03*
X104500Y392020D03*
X104500Y385520D03*
X104500Y379020D03*
X104500Y372520D03*
D14*
X76200Y375530D03*
X76200Y358530D03*
D13*
X223330Y345130D02*
X223330Y338130D01*
X216330Y338130D01*
X216330Y345130D01*
X223330Y345130D01*
X223330Y340980D02*
X216330Y340980D01*
X216330Y343830D02*
X223330Y343830D01*
X240870Y345130D02*
X240870Y338130D01*
X233870Y338130D01*
X233870Y345130D01*
X240870Y345130D01*
X240870Y340980D02*
X233870Y340980D01*
X233870Y343830D02*
X240870Y343830D01*
D10*
X237100Y322580D03*
X220100Y322580D03*
D16*
X117000Y424790D03*
X117000Y405790D03*
X138000Y415290D03*
D14*
X101600Y425840D03*
X101600Y442840D03*
X76200Y409330D03*
X76200Y426330D03*
D17*
X117500Y345290D03*
X117500Y358290D03*
X136500Y345290D03*
X136500Y358290D03*
X136500Y351790D03*
D10*
X299330Y322580D03*
X282330Y322580D03*
X299330Y295910D03*
X282330Y295910D03*
D11*
X273130Y414080D03*
X273130Y358080D03*
D12*
X309880Y401080D03*
X309880Y391080D03*
X309880Y381080D03*
X309880Y371080D03*
D11*
X499030Y358080D03*
X499030Y414080D03*
D12*
X462280Y371080D03*
X462280Y381080D03*
X462280Y391080D03*
X462280Y401080D03*
D10*
X275980Y449580D03*
X292980Y449580D03*
D13*
X289750Y434030D02*
X289750Y427030D01*
X289750Y434030D02*
X296750Y434030D01*
X296750Y427030D01*
X289750Y427030D01*
X289750Y429880D02*
X296750Y429880D01*
X296750Y432730D02*
X289750Y432730D01*
X272210Y434030D02*
X272210Y427030D01*
X272210Y434030D02*
X279210Y434030D01*
X279210Y427030D01*
X272210Y427030D01*
X272210Y429880D02*
X279210Y429880D01*
X279210Y432730D02*
X272210Y432730D01*
D14*
X430530Y369180D03*
X430530Y352180D03*
D15*
X408580Y372520D03*
X408580Y379020D03*
X408580Y385520D03*
X408580Y392020D03*
X363580Y392020D03*
X363580Y385520D03*
X363580Y379020D03*
X363580Y372520D03*
D14*
X335280Y375530D03*
X335280Y358530D03*
D13*
X482410Y345130D02*
X482410Y338130D01*
X475410Y338130D01*
X475410Y345130D01*
X482410Y345130D01*
X482410Y340980D02*
X475410Y340980D01*
X475410Y343830D02*
X482410Y343830D01*
X499950Y345130D02*
X499950Y338130D01*
X492950Y338130D01*
X492950Y345130D01*
X499950Y345130D01*
X499950Y340980D02*
X492950Y340980D01*
X492950Y343830D02*
X499950Y343830D01*
D10*
X496180Y322580D03*
X479180Y322580D03*
D16*
X376080Y424790D03*
X376080Y405790D03*
X397080Y415290D03*
D14*
X360680Y425840D03*
X360680Y442840D03*
X335280Y409330D03*
X335280Y426330D03*
D17*
X376580Y345290D03*
X376580Y358290D03*
X395580Y345290D03*
X395580Y358290D03*
X395580Y351790D03*
D10*
X558410Y322580D03*
X541410Y322580D03*
X558410Y295910D03*
X541410Y295910D03*
D11*
X532210Y414080D03*
X532210Y358080D03*
D12*
X568960Y401080D03*
X568960Y391080D03*
X568960Y381080D03*
X568960Y371080D03*
D11*
X758110Y358080D03*
X758110Y414080D03*
D12*
X721360Y371080D03*
X721360Y381080D03*
X721360Y391080D03*
X721360Y401080D03*
D10*
X535060Y449580D03*
X552060Y449580D03*
D13*
X548830Y434030D02*
X548830Y427030D01*
X548830Y434030D02*
X555830Y434030D01*
X555830Y427030D01*
X548830Y427030D01*
X548830Y429880D02*
X555830Y429880D01*
X555830Y432730D02*
X548830Y432730D01*
X531290Y434030D02*
X531290Y427030D01*
X531290Y434030D02*
X538290Y434030D01*
X538290Y427030D01*
X531290Y427030D01*
X531290Y429880D02*
X538290Y429880D01*
X538290Y432730D02*
X531290Y432730D01*
D14*
X689610Y369180D03*
X689610Y352180D03*
D15*
X667660Y372520D03*
X667660Y379020D03*
X667660Y385520D03*
X667660Y392020D03*
X622660Y392020D03*
X622660Y385520D03*
X622660Y379020D03*
X622660Y372520D03*
D14*
X594360Y375530D03*
X594360Y358530D03*
D13*
X741490Y345130D02*
X741490Y338130D01*
X734490Y338130D01*
X734490Y345130D01*
X741490Y345130D01*
X741490Y340980D02*
X734490Y340980D01*
X734490Y343830D02*
X741490Y343830D01*
X759030Y345130D02*
X759030Y338130D01*
X752030Y338130D01*
X752030Y345130D01*
X759030Y345130D01*
X759030Y340980D02*
X752030Y340980D01*
X752030Y343830D02*
X759030Y343830D01*
D10*
X755260Y322580D03*
X738260Y322580D03*
D16*
X635160Y424790D03*
X635160Y405790D03*
X656160Y415290D03*
D14*
X619760Y425840D03*
X619760Y442840D03*
X594360Y409330D03*
X594360Y426330D03*
D17*
X635660Y345290D03*
X635660Y358290D03*
X654660Y345290D03*
X654660Y358290D03*
X654660Y351790D03*
D10*
X817490Y322580D03*
X800490Y322580D03*
X817490Y295910D03*
X800490Y295910D03*
D11*
X791290Y414080D03*
X791290Y358080D03*
D12*
X828040Y401080D03*
X828040Y391080D03*
X828040Y381080D03*
X828040Y371080D03*
D11*
X1017190Y358080D03*
X1017190Y414080D03*
D12*
X980440Y371080D03*
X980440Y381080D03*
X980440Y391080D03*
X980440Y401080D03*
D10*
X794140Y449580D03*
X811140Y449580D03*
D13*
X807910Y434030D02*
X807910Y427030D01*
X807910Y434030D02*
X814910Y434030D01*
X814910Y427030D01*
X807910Y427030D01*
X807910Y429880D02*
X814910Y429880D01*
X814910Y432730D02*
X807910Y432730D01*
X790370Y434030D02*
X790370Y427030D01*
X790370Y434030D02*
X797370Y434030D01*
X797370Y427030D01*
X790370Y427030D01*
X790370Y429880D02*
X797370Y429880D01*
X797370Y432730D02*
X790370Y432730D01*
D14*
X948690Y369180D03*
X948690Y352180D03*
D15*
X926740Y372520D03*
X926740Y379020D03*
X926740Y385520D03*
X926740Y392020D03*
X881740Y392020D03*
X881740Y385520D03*
X881740Y379020D03*
X881740Y372520D03*
D14*
X853440Y375530D03*
X853440Y358530D03*
D13*
X1000570Y345130D02*
X1000570Y338130D01*
X993570Y338130D01*
X993570Y345130D01*
X1000570Y345130D01*
X1000570Y340980D02*
X993570Y340980D01*
X993570Y343830D02*
X1000570Y343830D01*
X1018110Y345130D02*
X1018110Y338130D01*
X1011110Y338130D01*
X1011110Y345130D01*
X1018110Y345130D01*
X1018110Y340980D02*
X1011110Y340980D01*
X1011110Y343830D02*
X1018110Y343830D01*
D10*
X1014340Y322580D03*
X997340Y322580D03*
D16*
X894240Y424790D03*
X894240Y405790D03*
X915240Y415290D03*
D14*
X878840Y425840D03*
X878840Y442840D03*
X853440Y409330D03*
X853440Y426330D03*
D17*
X894740Y345290D03*
X894740Y358290D03*
X913740Y345290D03*
X913740Y358290D03*
X913740Y351790D03*
D10*
X1076570Y322580D03*
X1059570Y322580D03*
X1076570Y295910D03*
X1059570Y295910D03*
D11*
X1050370Y414080D03*
X1050370Y358080D03*
D12*
X1087120Y401080D03*
X1087120Y391080D03*
X1087120Y381080D03*
X1087120Y371080D03*
D11*
X1276270Y358080D03*
X1276270Y414080D03*
D12*
X1239520Y371080D03*
X1239520Y381080D03*
X1239520Y391080D03*
X1239520Y401080D03*
D10*
X1053220Y449580D03*
X1070220Y449580D03*
D13*
X1066990Y434030D02*
X1066990Y427030D01*
X1066990Y434030D02*
X1073990Y434030D01*
X1073990Y427030D01*
X1066990Y427030D01*
X1066990Y429880D02*
X1073990Y429880D01*
X1073990Y432730D02*
X1066990Y432730D01*
X1049450Y434030D02*
X1049450Y427030D01*
X1049450Y434030D02*
X1056450Y434030D01*
X1056450Y427030D01*
X1049450Y427030D01*
X1049450Y429880D02*
X1056450Y429880D01*
X1056450Y432730D02*
X1049450Y432730D01*
D14*
X1207770Y369180D03*
X1207770Y352180D03*
D15*
X1185820Y372520D03*
X1185820Y379020D03*
X1185820Y385520D03*
X1185820Y392020D03*
X1140820Y392020D03*
X1140820Y385520D03*
X1140820Y379020D03*
X1140820Y372520D03*
D14*
X1112520Y375530D03*
X1112520Y358530D03*
D13*
X1259650Y345130D02*
X1259650Y338130D01*
X1252650Y338130D01*
X1252650Y345130D01*
X1259650Y345130D01*
X1259650Y340980D02*
X1252650Y340980D01*
X1252650Y343830D02*
X1259650Y343830D01*
X1277190Y345130D02*
X1277190Y338130D01*
X1270190Y338130D01*
X1270190Y345130D01*
X1277190Y345130D01*
X1277190Y340980D02*
X1270190Y340980D01*
X1270190Y343830D02*
X1277190Y343830D01*
D10*
X1273420Y322580D03*
X1256420Y322580D03*
D16*
X1153320Y424790D03*
X1153320Y405790D03*
X1174320Y415290D03*
D14*
X1137920Y425840D03*
X1137920Y442840D03*
X1112520Y409330D03*
X1112520Y426330D03*
D17*
X1153820Y345290D03*
X1153820Y358290D03*
X1172820Y345290D03*
X1172820Y358290D03*
X1172820Y351790D03*
D10*
X40250Y581660D03*
X23250Y581660D03*
X40250Y554990D03*
X23250Y554990D03*
D11*
X14050Y673160D03*
X14050Y617160D03*
D12*
X50800Y660160D03*
X50800Y650160D03*
X50800Y640160D03*
X50800Y630160D03*
D11*
X239950Y617160D03*
X239950Y673160D03*
D12*
X203200Y630160D03*
X203200Y640160D03*
X203200Y650160D03*
X203200Y660160D03*
D10*
X16900Y708660D03*
X33900Y708660D03*
D13*
X30670Y693110D02*
X30670Y686110D01*
X30670Y693110D02*
X37670Y693110D01*
X37670Y686110D01*
X30670Y686110D01*
X30670Y688960D02*
X37670Y688960D01*
X37670Y691810D02*
X30670Y691810D01*
X13130Y693110D02*
X13130Y686110D01*
X13130Y693110D02*
X20130Y693110D01*
X20130Y686110D01*
X13130Y686110D01*
X13130Y688960D02*
X20130Y688960D01*
X20130Y691810D02*
X13130Y691810D01*
D14*
X171450Y628260D03*
X171450Y611260D03*
D15*
X149500Y631600D03*
X149500Y638100D03*
X149500Y644600D03*
X149500Y651100D03*
X104500Y651100D03*
X104500Y644600D03*
X104500Y638100D03*
X104500Y631600D03*
D14*
X76200Y634610D03*
X76200Y617610D03*
D13*
X223330Y604210D02*
X223330Y597210D01*
X216330Y597210D01*
X216330Y604210D01*
X223330Y604210D01*
X223330Y600060D02*
X216330Y600060D01*
X216330Y602910D02*
X223330Y602910D01*
X240870Y604210D02*
X240870Y597210D01*
X233870Y597210D01*
X233870Y604210D01*
X240870Y604210D01*
X240870Y600060D02*
X233870Y600060D01*
X233870Y602910D02*
X240870Y602910D01*
D10*
X237100Y581660D03*
X220100Y581660D03*
D16*
X117000Y683870D03*
X117000Y664870D03*
X138000Y674370D03*
D14*
X101600Y684920D03*
X101600Y701920D03*
X76200Y668410D03*
X76200Y685410D03*
D17*
X117500Y604370D03*
X117500Y617370D03*
X136500Y604370D03*
X136500Y617370D03*
X136500Y610870D03*
D10*
X299330Y581660D03*
X282330Y581660D03*
X299330Y554990D03*
X282330Y554990D03*
D11*
X273130Y673160D03*
X273130Y617160D03*
D12*
X309880Y660160D03*
X309880Y650160D03*
X309880Y640160D03*
X309880Y630160D03*
D11*
X499030Y617160D03*
X499030Y673160D03*
D12*
X462280Y630160D03*
X462280Y640160D03*
X462280Y650160D03*
X462280Y660160D03*
D10*
X275980Y708660D03*
X292980Y708660D03*
D13*
X289750Y693110D02*
X289750Y686110D01*
X289750Y693110D02*
X296750Y693110D01*
X296750Y686110D01*
X289750Y686110D01*
X289750Y688960D02*
X296750Y688960D01*
X296750Y691810D02*
X289750Y691810D01*
X272210Y693110D02*
X272210Y686110D01*
X272210Y693110D02*
X279210Y693110D01*
X279210Y686110D01*
X272210Y686110D01*
X272210Y688960D02*
X279210Y688960D01*
X279210Y691810D02*
X272210Y691810D01*
D14*
X430530Y628260D03*
X430530Y611260D03*
D15*
X408580Y631600D03*
X408580Y638100D03*
X408580Y644600D03*
X408580Y651100D03*
X363580Y651100D03*
X363580Y644600D03*
X363580Y638100D03*
X363580Y631600D03*
D14*
X335280Y634610D03*
X335280Y617610D03*
D13*
X482410Y604210D02*
X482410Y597210D01*
X475410Y597210D01*
X475410Y604210D01*
X482410Y604210D01*
X482410Y600060D02*
X475410Y600060D01*
X475410Y602910D02*
X482410Y602910D01*
X499950Y604210D02*
X499950Y597210D01*
X492950Y597210D01*
X492950Y604210D01*
X499950Y604210D01*
X499950Y600060D02*
X492950Y600060D01*
X492950Y602910D02*
X499950Y602910D01*
D10*
X496180Y581660D03*
X479180Y581660D03*
D16*
X376080Y683870D03*
X376080Y664870D03*
X397080Y674370D03*
D14*
X360680Y684920D03*
X360680Y701920D03*
X335280Y668410D03*
X335280Y685410D03*
D17*
X376580Y604370D03*
X376580Y617370D03*
X395580Y604370D03*
X395580Y617370D03*
X395580Y610870D03*
D10*
X558410Y581660D03*
X541410Y581660D03*
X558410Y554990D03*
X541410Y554990D03*
D11*
X532210Y673160D03*
X532210Y617160D03*
D12*
X568960Y660160D03*
X568960Y650160D03*
X568960Y640160D03*
X568960Y630160D03*
D11*
X758110Y617160D03*
X758110Y673160D03*
D12*
X721360Y630160D03*
X721360Y640160D03*
X721360Y650160D03*
X721360Y660160D03*
D10*
X535060Y708660D03*
X552060Y708660D03*
D13*
X548830Y693110D02*
X548830Y686110D01*
X548830Y693110D02*
X555830Y693110D01*
X555830Y686110D01*
X548830Y686110D01*
X548830Y688960D02*
X555830Y688960D01*
X555830Y691810D02*
X548830Y691810D01*
X531290Y693110D02*
X531290Y686110D01*
X531290Y693110D02*
X538290Y693110D01*
X538290Y686110D01*
X531290Y686110D01*
X531290Y688960D02*
X538290Y688960D01*
X538290Y691810D02*
X531290Y691810D01*
D14*
X689610Y628260D03*
X689610Y611260D03*
D15*
X667660Y631600D03*
X667660Y638100D03*
X667660Y644600D03*
X667660Y651100D03*
X622660Y651100D03*
X622660Y644600D03*
X622660Y638100D03*
X622660Y631600D03*
D14*
X594360Y634610D03*
X594360Y617610D03*
D13*
X741490Y604210D02*
X741490Y597210D01*
X734490Y597210D01*
X734490Y604210D01*
X741490Y604210D01*
X741490Y600060D02*
X734490Y600060D01*
X734490Y602910D02*
X741490Y602910D01*
X759030Y604210D02*
X759030Y597210D01*
X752030Y597210D01*
X752030Y604210D01*
X759030Y604210D01*
X759030Y600060D02*
X752030Y600060D01*
X752030Y602910D02*
X759030Y602910D01*
D10*
X755260Y581660D03*
X738260Y581660D03*
D16*
X635160Y683870D03*
X635160Y664870D03*
X656160Y674370D03*
D14*
X619760Y684920D03*
X619760Y701920D03*
X594360Y668410D03*
X594360Y685410D03*
D17*
X635660Y604370D03*
X635660Y617370D03*
X654660Y604370D03*
X654660Y617370D03*
X654660Y610870D03*
D10*
X817490Y581660D03*
X800490Y581660D03*
X817490Y554990D03*
X800490Y554990D03*
D11*
X791290Y673160D03*
X791290Y617160D03*
D12*
X828040Y660160D03*
X828040Y650160D03*
X828040Y640160D03*
X828040Y630160D03*
D11*
X1017190Y617160D03*
X1017190Y673160D03*
D12*
X980440Y630160D03*
X980440Y640160D03*
X980440Y650160D03*
X980440Y660160D03*
D10*
X794140Y708660D03*
X811140Y708660D03*
D13*
X807910Y693110D02*
X807910Y686110D01*
X807910Y693110D02*
X814910Y693110D01*
X814910Y686110D01*
X807910Y686110D01*
X807910Y688960D02*
X814910Y688960D01*
X814910Y691810D02*
X807910Y691810D01*
X790370Y693110D02*
X790370Y686110D01*
X790370Y693110D02*
X797370Y693110D01*
X797370Y686110D01*
X790370Y686110D01*
X790370Y688960D02*
X797370Y688960D01*
X797370Y691810D02*
X790370Y691810D01*
D14*
X948690Y628260D03*
X948690Y611260D03*
D15*
X926740Y631600D03*
X926740Y638100D03*
X926740Y644600D03*
X926740Y651100D03*
X881740Y651100D03*
X881740Y644600D03*
X881740Y638100D03*
X881740Y631600D03*
D14*
X853440Y634610D03*
X853440Y617610D03*
D13*
X1000570Y604210D02*
X1000570Y597210D01*
X993570Y597210D01*
X993570Y604210D01*
X1000570Y604210D01*
X1000570Y600060D02*
X993570Y600060D01*
X993570Y602910D02*
X1000570Y602910D01*
X1018110Y604210D02*
X1018110Y597210D01*
X1011110Y597210D01*
X1011110Y604210D01*
X1018110Y604210D01*
X1018110Y600060D02*
X1011110Y600060D01*
X1011110Y602910D02*
X1018110Y602910D01*
D10*
X1014340Y581660D03*
X997340Y581660D03*
D16*
X894240Y683870D03*
X894240Y664870D03*
X915240Y674370D03*
D14*
X878840Y684920D03*
X878840Y701920D03*
X853440Y668410D03*
X853440Y685410D03*
D17*
X894740Y604370D03*
X894740Y617370D03*
X913740Y604370D03*
X913740Y617370D03*
X913740Y610870D03*
D10*
X1076570Y581660D03*
X1059570Y581660D03*
X1076570Y554990D03*
X1059570Y554990D03*
D11*
X1050370Y673160D03*
X1050370Y617160D03*
D12*
X1087120Y660160D03*
X1087120Y650160D03*
X1087120Y640160D03*
X1087120Y630160D03*
D11*
X1276270Y617160D03*
X1276270Y673160D03*
D12*
X1239520Y630160D03*
X1239520Y640160D03*
X1239520Y650160D03*
X1239520Y660160D03*
D10*
X1053220Y708660D03*
X1070220Y708660D03*
D13*
X1066990Y693110D02*
X1066990Y686110D01*
X1066990Y693110D02*
X1073990Y693110D01*
X1073990Y686110D01*
X1066990Y686110D01*
X1066990Y688960D02*
X1073990Y688960D01*
X1073990Y691810D02*
X1066990Y691810D01*
X1049450Y693110D02*
X1049450Y686110D01*
X1049450Y693110D02*
X1056450Y693110D01*
X1056450Y686110D01*
X1049450Y686110D01*
X1049450Y688960D02*
X1056450Y688960D01*
X1056450Y691810D02*
X1049450Y691810D01*
D14*
X1207770Y628260D03*
X1207770Y611260D03*
D15*
X1185820Y631600D03*
X1185820Y638100D03*
X1185820Y644600D03*
X1185820Y651100D03*
X1140820Y651100D03*
X1140820Y644600D03*
X1140820Y638100D03*
X1140820Y631600D03*
D14*
X1112520Y634610D03*
X1112520Y617610D03*
D13*
X1259650Y604210D02*
X1259650Y597210D01*
X1252650Y597210D01*
X1252650Y604210D01*
X1259650Y604210D01*
X1259650Y600060D02*
X1252650Y600060D01*
X1252650Y602910D02*
X1259650Y602910D01*
X1277190Y604210D02*
X1277190Y597210D01*
X1270190Y597210D01*
X1270190Y604210D01*
X1277190Y604210D01*
X1277190Y600060D02*
X1270190Y600060D01*
X1270190Y602910D02*
X1277190Y602910D01*
D10*
X1273420Y581660D03*
X1256420Y581660D03*
D16*
X1153320Y683870D03*
X1153320Y664870D03*
X1174320Y674370D03*
D14*
X1137920Y684920D03*
X1137920Y701920D03*
X1112520Y668410D03*
X1112520Y685410D03*
D17*
X1153820Y604370D03*
X1153820Y617370D03*
X1172820Y604370D03*
X1172820Y617370D03*
X1172820Y610870D03*
D10*
X40250Y840740D03*
X23250Y840740D03*
X40250Y814070D03*
X23250Y814070D03*
D11*
X14050Y932240D03*
X14050Y876240D03*
D12*
X50800Y919240D03*
X50800Y909240D03*
X50800Y899240D03*
X50800Y889240D03*
D11*
X239950Y876240D03*
X239950Y932240D03*
D12*
X203200Y889240D03*
X203200Y899240D03*
X203200Y909240D03*
X203200Y919240D03*
D10*
X16900Y967740D03*
X33900Y967740D03*
D13*
X30670Y952190D02*
X30670Y945190D01*
X30670Y952190D02*
X37670Y952190D01*
X37670Y945190D01*
X30670Y945190D01*
X30670Y948040D02*
X37670Y948040D01*
X37670Y950890D02*
X30670Y950890D01*
X13130Y952190D02*
X13130Y945190D01*
X13130Y952190D02*
X20130Y952190D01*
X20130Y945190D01*
X13130Y945190D01*
X13130Y948040D02*
X20130Y948040D01*
X20130Y950890D02*
X13130Y950890D01*
D14*
X171450Y887340D03*
X171450Y870340D03*
D15*
X149500Y890680D03*
X149500Y897180D03*
X149500Y903680D03*
X149500Y910180D03*
X104500Y910180D03*
X104500Y903680D03*
X104500Y897180D03*
X104500Y890680D03*
D14*
X76200Y893690D03*
X76200Y876690D03*
D13*
X223330Y863290D02*
X223330Y856290D01*
X216330Y856290D01*
X216330Y863290D01*
X223330Y863290D01*
X223330Y859140D02*
X216330Y859140D01*
X216330Y861990D02*
X223330Y861990D01*
X240870Y863290D02*
X240870Y856290D01*
X233870Y856290D01*
X233870Y863290D01*
X240870Y863290D01*
X240870Y859140D02*
X233870Y859140D01*
X233870Y861990D02*
X240870Y861990D01*
D10*
X237100Y840740D03*
X220100Y840740D03*
D16*
X117000Y942950D03*
X117000Y923950D03*
X138000Y933450D03*
D14*
X101600Y944000D03*
X101600Y961000D03*
X76200Y927490D03*
X76200Y944490D03*
D17*
X117500Y863450D03*
X117500Y876450D03*
X136500Y863450D03*
X136500Y876450D03*
X136500Y869950D03*
D10*
X299330Y840740D03*
X282330Y840740D03*
X299330Y814070D03*
X282330Y814070D03*
D11*
X273130Y932240D03*
X273130Y876240D03*
D12*
X309880Y919240D03*
X309880Y909240D03*
X309880Y899240D03*
X309880Y889240D03*
D11*
X499030Y876240D03*
X499030Y932240D03*
D12*
X462280Y889240D03*
X462280Y899240D03*
X462280Y909240D03*
X462280Y919240D03*
D10*
X275980Y967740D03*
X292980Y967740D03*
D13*
X289750Y952190D02*
X289750Y945190D01*
X289750Y952190D02*
X296750Y952190D01*
X296750Y945190D01*
X289750Y945190D01*
X289750Y948040D02*
X296750Y948040D01*
X296750Y950890D02*
X289750Y950890D01*
X272210Y952190D02*
X272210Y945190D01*
X272210Y952190D02*
X279210Y952190D01*
X279210Y945190D01*
X272210Y945190D01*
X272210Y948040D02*
X279210Y948040D01*
X279210Y950890D02*
X272210Y950890D01*
D14*
X430530Y887340D03*
X430530Y870340D03*
D15*
X408580Y890680D03*
X408580Y897180D03*
X408580Y903680D03*
X408580Y910180D03*
X363580Y910180D03*
X363580Y903680D03*
X363580Y897180D03*
X363580Y890680D03*
D14*
X335280Y893690D03*
X335280Y876690D03*
D13*
X482410Y863290D02*
X482410Y856290D01*
X475410Y856290D01*
X475410Y863290D01*
X482410Y863290D01*
X482410Y859140D02*
X475410Y859140D01*
X475410Y861990D02*
X482410Y861990D01*
X499950Y863290D02*
X499950Y856290D01*
X492950Y856290D01*
X492950Y863290D01*
X499950Y863290D01*
X499950Y859140D02*
X492950Y859140D01*
X492950Y861990D02*
X499950Y861990D01*
D10*
X496180Y840740D03*
X479180Y840740D03*
D16*
X376080Y942950D03*
X376080Y923950D03*
X397080Y933450D03*
D14*
X360680Y944000D03*
X360680Y961000D03*
X335280Y927490D03*
X335280Y944490D03*
D17*
X376580Y863450D03*
X376580Y876450D03*
X395580Y863450D03*
X395580Y876450D03*
X395580Y869950D03*
D10*
X558410Y840740D03*
X541410Y840740D03*
X558410Y814070D03*
X541410Y814070D03*
D11*
X532210Y932240D03*
X532210Y876240D03*
D12*
X568960Y919240D03*
X568960Y909240D03*
X568960Y899240D03*
X568960Y889240D03*
D11*
X758110Y876240D03*
X758110Y932240D03*
D12*
X721360Y889240D03*
X721360Y899240D03*
X721360Y909240D03*
X721360Y919240D03*
D10*
X535060Y967740D03*
X552060Y967740D03*
D13*
X548830Y952190D02*
X548830Y945190D01*
X548830Y952190D02*
X555830Y952190D01*
X555830Y945190D01*
X548830Y945190D01*
X548830Y948040D02*
X555830Y948040D01*
X555830Y950890D02*
X548830Y950890D01*
X531290Y952190D02*
X531290Y945190D01*
X531290Y952190D02*
X538290Y952190D01*
X538290Y945190D01*
X531290Y945190D01*
X531290Y948040D02*
X538290Y948040D01*
X538290Y950890D02*
X531290Y950890D01*
D14*
X689610Y887340D03*
X689610Y870340D03*
D15*
X667660Y890680D03*
X667660Y897180D03*
X667660Y903680D03*
X667660Y910180D03*
X622660Y910180D03*
X622660Y903680D03*
X622660Y897180D03*
X622660Y890680D03*
D14*
X594360Y893690D03*
X594360Y876690D03*
D13*
X741490Y863290D02*
X741490Y856290D01*
X734490Y856290D01*
X734490Y863290D01*
X741490Y863290D01*
X741490Y859140D02*
X734490Y859140D01*
X734490Y861990D02*
X741490Y861990D01*
X759030Y863290D02*
X759030Y856290D01*
X752030Y856290D01*
X752030Y863290D01*
X759030Y863290D01*
X759030Y859140D02*
X752030Y859140D01*
X752030Y861990D02*
X759030Y861990D01*
D10*
X755260Y840740D03*
X738260Y840740D03*
D16*
X635160Y942950D03*
X635160Y923950D03*
X656160Y933450D03*
D14*
X619760Y944000D03*
X619760Y961000D03*
X594360Y927490D03*
X594360Y944490D03*
D17*
X635660Y863450D03*
X635660Y876450D03*
X654660Y863450D03*
X654660Y876450D03*
X654660Y869950D03*
D10*
X817490Y840740D03*
X800490Y840740D03*
X817490Y814070D03*
X800490Y814070D03*
D11*
X791290Y932240D03*
X791290Y876240D03*
D12*
X828040Y919240D03*
X828040Y909240D03*
X828040Y899240D03*
X828040Y889240D03*
D11*
X1017190Y876240D03*
X1017190Y932240D03*
D12*
X980440Y889240D03*
X980440Y899240D03*
X980440Y909240D03*
X980440Y919240D03*
D10*
X794140Y967740D03*
X811140Y967740D03*
D13*
X807910Y952190D02*
X807910Y945190D01*
X807910Y952190D02*
X814910Y952190D01*
X814910Y945190D01*
X807910Y945190D01*
X807910Y948040D02*
X814910Y948040D01*
X814910Y950890D02*
X807910Y950890D01*
X790370Y952190D02*
X790370Y945190D01*
X790370Y952190D02*
X797370Y952190D01*
X797370Y945190D01*
X790370Y945190D01*
X790370Y948040D02*
X797370Y948040D01*
X797370Y950890D02*
X790370Y950890D01*
D14*
X948690Y887340D03*
X948690Y870340D03*
D15*
X926740Y890680D03*
X926740Y897180D03*
X926740Y903680D03*
X926740Y910180D03*
X881740Y910180D03*
X881740Y903680D03*
X881740Y897180D03*
X881740Y890680D03*
D14*
X853440Y893690D03*
X853440Y876690D03*
D13*
X1000570Y863290D02*
X1000570Y856290D01*
X993570Y856290D01*
X993570Y863290D01*
X1000570Y863290D01*
X1000570Y859140D02*
X993570Y859140D01*
X993570Y861990D02*
X1000570Y861990D01*
X1018110Y863290D02*
X1018110Y856290D01*
X1011110Y856290D01*
X1011110Y863290D01*
X1018110Y863290D01*
X1018110Y859140D02*
X1011110Y859140D01*
X1011110Y861990D02*
X1018110Y861990D01*
D10*
X1014340Y840740D03*
X997340Y840740D03*
D16*
X894240Y942950D03*
X894240Y923950D03*
X915240Y933450D03*
D14*
X878840Y944000D03*
X878840Y961000D03*
X853440Y927490D03*
X853440Y944490D03*
D17*
X894740Y863450D03*
X894740Y876450D03*
X913740Y863450D03*
X913740Y876450D03*
X913740Y869950D03*
D10*
X1076570Y840740D03*
X1059570Y840740D03*
X1076570Y814070D03*
X1059570Y814070D03*
D11*
X1050370Y932240D03*
X1050370Y876240D03*
D12*
X1087120Y919240D03*
X1087120Y909240D03*
X1087120Y899240D03*
X1087120Y889240D03*
D11*
X1276270Y876240D03*
X1276270Y932240D03*
D12*
X1239520Y889240D03*
X1239520Y899240D03*
X1239520Y909240D03*
X1239520Y919240D03*
D10*
X1053220Y967740D03*
X1070220Y967740D03*
D13*
X1066990Y952190D02*
X1066990Y945190D01*
X1066990Y952190D02*
X1073990Y952190D01*
X1073990Y945190D01*
X1066990Y945190D01*
X1066990Y948040D02*
X1073990Y948040D01*
X1073990Y950890D02*
X1066990Y950890D01*
X1049450Y952190D02*
X1049450Y945190D01*
X1049450Y952190D02*
X1056450Y952190D01*
X1056450Y945190D01*
X1049450Y945190D01*
X1049450Y948040D02*
X1056450Y948040D01*
X1056450Y950890D02*
X1049450Y950890D01*
D14*
X1207770Y887340D03*
X1207770Y870340D03*
D15*
X1185820Y890680D03*
X1185820Y897180D03*
X1185820Y903680D03*
X1185820Y910180D03*
X1140820Y910180D03*
X1140820Y903680D03*
X1140820Y897180D03*
X1140820Y890680D03*
D14*
X1112520Y893690D03*
X1112520Y876690D03*
D13*
X1259650Y863290D02*
X1259650Y856290D01*
X1252650Y856290D01*
X1252650Y863290D01*
X1259650Y863290D01*
X1259650Y859140D02*
X1252650Y859140D01*
X1252650Y861990D02*
X1259650Y861990D01*
X1277190Y863290D02*
X1277190Y856290D01*
X1270190Y856290D01*
X1270190Y863290D01*
X1277190Y863290D01*
X1277190Y859140D02*
X1270190Y859140D01*
X1270190Y861990D02*
X1277190Y861990D01*
D10*
X1273420Y840740D03*
X1256420Y840740D03*
D16*
X1153320Y942950D03*
X1153320Y923950D03*
X1174320Y933450D03*
D14*
X1137920Y944000D03*
X1137920Y961000D03*
X1112520Y927490D03*
X1112520Y944490D03*
D17*
X1153820Y863450D03*
X1153820Y876450D03*
X1172820Y863450D03*
X1172820Y876450D03*
X1172820Y869950D03*
D10*
X40250Y1099820D03*
X23250Y1099820D03*
X40250Y1073150D03*
X23250Y1073150D03*
D11*
X14050Y1191320D03*
X14050Y1135320D03*
D12*
X50800Y1178320D03*
X50800Y1168320D03*
X50800Y1158320D03*
X50800Y1148320D03*
D11*
X239950Y1135320D03*
X239950Y1191320D03*
D12*
X203200Y1148320D03*
X203200Y1158320D03*
X203200Y1168320D03*
X203200Y1178320D03*
D10*
X16900Y1226820D03*
X33900Y1226820D03*
D13*
X30670Y1211270D02*
X30670Y1204270D01*
X30670Y1211270D02*
X37670Y1211270D01*
X37670Y1204270D01*
X30670Y1204270D01*
X30670Y1207120D02*
X37670Y1207120D01*
X37670Y1209970D02*
X30670Y1209970D01*
X13130Y1211270D02*
X13130Y1204270D01*
X13130Y1211270D02*
X20130Y1211270D01*
X20130Y1204270D01*
X13130Y1204270D01*
X13130Y1207120D02*
X20130Y1207120D01*
X20130Y1209970D02*
X13130Y1209970D01*
D14*
X171450Y1146420D03*
X171450Y1129420D03*
D15*
X149500Y1149760D03*
X149500Y1156260D03*
X149500Y1162760D03*
X149500Y1169260D03*
X104500Y1169260D03*
X104500Y1162760D03*
X104500Y1156260D03*
X104500Y1149760D03*
D14*
X76200Y1152770D03*
X76200Y1135770D03*
D13*
X223330Y1122370D02*
X223330Y1115370D01*
X216330Y1115370D01*
X216330Y1122370D01*
X223330Y1122370D01*
X223330Y1118220D02*
X216330Y1118220D01*
X216330Y1121070D02*
X223330Y1121070D01*
X240870Y1122370D02*
X240870Y1115370D01*
X233870Y1115370D01*
X233870Y1122370D01*
X240870Y1122370D01*
X240870Y1118220D02*
X233870Y1118220D01*
X233870Y1121070D02*
X240870Y1121070D01*
D10*
X237100Y1099820D03*
X220100Y1099820D03*
D16*
X117000Y1202030D03*
X117000Y1183030D03*
X138000Y1192530D03*
D14*
X101600Y1203080D03*
X101600Y1220080D03*
X76200Y1186570D03*
X76200Y1203570D03*
D17*
X117500Y1122530D03*
X117500Y1135530D03*
X136500Y1122530D03*
X136500Y1135530D03*
X136500Y1129030D03*
D10*
X299330Y1099820D03*
X282330Y1099820D03*
X299330Y1073150D03*
X282330Y1073150D03*
D11*
X273130Y1191320D03*
X273130Y1135320D03*
D12*
X309880Y1178320D03*
X309880Y1168320D03*
X309880Y1158320D03*
X309880Y1148320D03*
D11*
X499030Y1135320D03*
X499030Y1191320D03*
D12*
X462280Y1148320D03*
X462280Y1158320D03*
X462280Y1168320D03*
X462280Y1178320D03*
D10*
X275980Y1226820D03*
X292980Y1226820D03*
D13*
X289750Y1211270D02*
X289750Y1204270D01*
X289750Y1211270D02*
X296750Y1211270D01*
X296750Y1204270D01*
X289750Y1204270D01*
X289750Y1207120D02*
X296750Y1207120D01*
X296750Y1209970D02*
X289750Y1209970D01*
X272210Y1211270D02*
X272210Y1204270D01*
X272210Y1211270D02*
X279210Y1211270D01*
X279210Y1204270D01*
X272210Y1204270D01*
X272210Y1207120D02*
X279210Y1207120D01*
X279210Y1209970D02*
X272210Y1209970D01*
D14*
X430530Y1146420D03*
X430530Y1129420D03*
D15*
X408580Y1149760D03*
X408580Y1156260D03*
X408580Y1162760D03*
X408580Y1169260D03*
X363580Y1169260D03*
X363580Y1162760D03*
X363580Y1156260D03*
X363580Y1149760D03*
D14*
X335280Y1152770D03*
X335280Y1135770D03*
D13*
X482410Y1122370D02*
X482410Y1115370D01*
X475410Y1115370D01*
X475410Y1122370D01*
X482410Y1122370D01*
X482410Y1118220D02*
X475410Y1118220D01*
X475410Y1121070D02*
X482410Y1121070D01*
X499950Y1122370D02*
X499950Y1115370D01*
X492950Y1115370D01*
X492950Y1122370D01*
X499950Y1122370D01*
X499950Y1118220D02*
X492950Y1118220D01*
X492950Y1121070D02*
X499950Y1121070D01*
D10*
X496180Y1099820D03*
X479180Y1099820D03*
D16*
X376080Y1202030D03*
X376080Y1183030D03*
X397080Y1192530D03*
D14*
X360680Y1203080D03*
X360680Y1220080D03*
X335280Y1186570D03*
X335280Y1203570D03*
D17*
X376580Y1122530D03*
X376580Y1135530D03*
X395580Y1122530D03*
X395580Y1135530D03*
X395580Y1129030D03*
D10*
X558410Y1099820D03*
X541410Y1099820D03*
X558410Y1073150D03*
X541410Y1073150D03*
D11*
X532210Y1191320D03*
X532210Y1135320D03*
D12*
X568960Y1178320D03*
X568960Y1168320D03*
X568960Y1158320D03*
X568960Y1148320D03*
D11*
X758110Y1135320D03*
X758110Y1191320D03*
D12*
X721360Y1148320D03*
X721360Y1158320D03*
X721360Y1168320D03*
X721360Y1178320D03*
D10*
X535060Y1226820D03*
X552060Y1226820D03*
D13*
X548830Y1211270D02*
X548830Y1204270D01*
X548830Y1211270D02*
X555830Y1211270D01*
X555830Y1204270D01*
X548830Y1204270D01*
X548830Y1207120D02*
X555830Y1207120D01*
X555830Y1209970D02*
X548830Y1209970D01*
X531290Y1211270D02*
X531290Y1204270D01*
X531290Y1211270D02*
X538290Y1211270D01*
X538290Y1204270D01*
X531290Y1204270D01*
X531290Y1207120D02*
X538290Y1207120D01*
X538290Y1209970D02*
X531290Y1209970D01*
D14*
X689610Y1146420D03*
X689610Y1129420D03*
D15*
X667660Y1149760D03*
X667660Y1156260D03*
X667660Y1162760D03*
X667660Y1169260D03*
X622660Y1169260D03*
X622660Y1162760D03*
X622660Y1156260D03*
X622660Y1149760D03*
D14*
X594360Y1152770D03*
X594360Y1135770D03*
D13*
X741490Y1122370D02*
X741490Y1115370D01*
X734490Y1115370D01*
X734490Y1122370D01*
X741490Y1122370D01*
X741490Y1118220D02*
X734490Y1118220D01*
X734490Y1121070D02*
X741490Y1121070D01*
X759030Y1122370D02*
X759030Y1115370D01*
X752030Y1115370D01*
X752030Y1122370D01*
X759030Y1122370D01*
X759030Y1118220D02*
X752030Y1118220D01*
X752030Y1121070D02*
X759030Y1121070D01*
D10*
X755260Y1099820D03*
X738260Y1099820D03*
D16*
X635160Y1202030D03*
X635160Y1183030D03*
X656160Y1192530D03*
D14*
X619760Y1203080D03*
X619760Y1220080D03*
X594360Y1186570D03*
X594360Y1203570D03*
D17*
X635660Y1122530D03*
X635660Y1135530D03*
X654660Y1122530D03*
X654660Y1135530D03*
X654660Y1129030D03*
D10*
X817490Y1099820D03*
X800490Y1099820D03*
X817490Y1073150D03*
X800490Y1073150D03*
D11*
X791290Y1191320D03*
X791290Y1135320D03*
D12*
X828040Y1178320D03*
X828040Y1168320D03*
X828040Y1158320D03*
X828040Y1148320D03*
D11*
X1017190Y1135320D03*
X1017190Y1191320D03*
D12*
X980440Y1148320D03*
X980440Y1158320D03*
X980440Y1168320D03*
X980440Y1178320D03*
D10*
X794140Y1226820D03*
X811140Y1226820D03*
D13*
X807910Y1211270D02*
X807910Y1204270D01*
X807910Y1211270D02*
X814910Y1211270D01*
X814910Y1204270D01*
X807910Y1204270D01*
X807910Y1207120D02*
X814910Y1207120D01*
X814910Y1209970D02*
X807910Y1209970D01*
X790370Y1211270D02*
X790370Y1204270D01*
X790370Y1211270D02*
X797370Y1211270D01*
X797370Y1204270D01*
X790370Y1204270D01*
X790370Y1207120D02*
X797370Y1207120D01*
X797370Y1209970D02*
X790370Y1209970D01*
D14*
X948690Y1146420D03*
X948690Y1129420D03*
D15*
X926740Y1149760D03*
X926740Y1156260D03*
X926740Y1162760D03*
X926740Y1169260D03*
X881740Y1169260D03*
X881740Y1162760D03*
X881740Y1156260D03*
X881740Y1149760D03*
D14*
X853440Y1152770D03*
X853440Y1135770D03*
D13*
X1000570Y1122370D02*
X1000570Y1115370D01*
X993570Y1115370D01*
X993570Y1122370D01*
X1000570Y1122370D01*
X1000570Y1118220D02*
X993570Y1118220D01*
X993570Y1121070D02*
X1000570Y1121070D01*
X1018110Y1122370D02*
X1018110Y1115370D01*
X1011110Y1115370D01*
X1011110Y1122370D01*
X1018110Y1122370D01*
X1018110Y1118220D02*
X1011110Y1118220D01*
X1011110Y1121070D02*
X1018110Y1121070D01*
D10*
X1014340Y1099820D03*
X997340Y1099820D03*
D16*
X894240Y1202030D03*
X894240Y1183030D03*
X915240Y1192530D03*
D14*
X878840Y1203080D03*
X878840Y1220080D03*
X853440Y1186570D03*
X853440Y1203570D03*
D17*
X894740Y1122530D03*
X894740Y1135530D03*
X913740Y1122530D03*
X913740Y1135530D03*
X913740Y1129030D03*
D10*
X1076570Y1099820D03*
X1059570Y1099820D03*
X1076570Y1073150D03*
X1059570Y1073150D03*
D11*
X1050370Y1191320D03*
X1050370Y1135320D03*
D12*
X1087120Y1178320D03*
X1087120Y1168320D03*
X1087120Y1158320D03*
X1087120Y1148320D03*
D11*
X1276270Y1135320D03*
X1276270Y1191320D03*
D12*
X1239520Y1148320D03*
X1239520Y1158320D03*
X1239520Y1168320D03*
X1239520Y1178320D03*
D10*
X1053220Y1226820D03*
X1070220Y1226820D03*
D13*
X1066990Y1211270D02*
X1066990Y1204270D01*
X1066990Y1211270D02*
X1073990Y1211270D01*
X1073990Y1204270D01*
X1066990Y1204270D01*
X1066990Y1207120D02*
X1073990Y1207120D01*
X1073990Y1209970D02*
X1066990Y1209970D01*
X1049450Y1211270D02*
X1049450Y1204270D01*
X1049450Y1211270D02*
X1056450Y1211270D01*
X1056450Y1204270D01*
X1049450Y1204270D01*
X1049450Y1207120D02*
X1056450Y1207120D01*
X1056450Y1209970D02*
X1049450Y1209970D01*
D14*
X1207770Y1146420D03*
X1207770Y1129420D03*
D15*
X1185820Y1149760D03*
X1185820Y1156260D03*
X1185820Y1162760D03*
X1185820Y1169260D03*
X1140820Y1169260D03*
X1140820Y1162760D03*
X1140820Y1156260D03*
X1140820Y1149760D03*
D14*
X1112520Y1152770D03*
X1112520Y1135770D03*
D13*
X1259650Y1122370D02*
X1259650Y1115370D01*
X1252650Y1115370D01*
X1252650Y1122370D01*
X1259650Y1122370D01*
X1259650Y1118220D02*
X1252650Y1118220D01*
X1252650Y1121070D02*
X1259650Y1121070D01*
X1277190Y1122370D02*
X1277190Y1115370D01*
X1270190Y1115370D01*
X1270190Y1122370D01*
X1277190Y1122370D01*
X1277190Y1118220D02*
X1270190Y1118220D01*
X1270190Y1121070D02*
X1277190Y1121070D01*
D10*
X1273420Y1099820D03*
X1256420Y1099820D03*
D16*
X1153320Y1202030D03*
X1153320Y1183030D03*
X1174320Y1192530D03*
D14*
X1137920Y1203080D03*
X1137920Y1220080D03*
X1112520Y1186570D03*
X1112520Y1203570D03*
D17*
X1153820Y1122530D03*
X1153820Y1135530D03*
X1172820Y1122530D03*
X1172820Y1135530D03*
X1172820Y1129030D03*
M02*
