M48
;GenerationSoftware,Autodesk,EAGLE,9.6.0*%
;CreationDate,2020-04-27T16:46:52Z*%
FMAT,2
ICI,OFF
METRIC,TZ,000.000
T3C0.305
T2C1.016
T1C3.302
%
G90
M71
T1
X74676Y100584
X106172Y126492
X2540Y22860
X22860Y22860
X28448Y22860
X48768Y22860
X54356Y22860
X74676Y22860
X80264Y22860
X100584Y22860
X106172Y22860
X126492Y22860
X2540Y48768
X22860Y48768
X28448Y48768
X48768Y48768
X54356Y48768
X74676Y48768
X80264Y48768
X100584Y48768
X106172Y48768
X126492Y48768
X2540Y74676
X22860Y74676
X28448Y74676
X48768Y74676
X54356Y74676
X74676Y74676
X80264Y74676
X100584Y74676
X106172Y74676
X126492Y74676
X2540Y100584
X22860Y100584
X28448Y100584
X48768Y100584
X54356Y100584
X126492Y126492
X80264Y100584
X100584Y100584
X106172Y100584
X126492Y100584
X2540Y126492
X22860Y126492
X28448Y126492
X48768Y126492
X54356Y126492
X74676Y126492
X80264Y126492
X100584Y126492
T2
X113792Y1270
X121412Y104902
X10160Y24130
X12700Y24130
X15240Y24130
X17780Y24130
X15240Y1270
X12700Y1270
X10160Y1270
X7620Y1270
X7620Y24130
X17780Y1270
X36068Y24130
X38608Y24130
X41148Y24130
X43688Y24130
X41148Y1270
X38608Y1270
X36068Y1270
X33528Y1270
X33528Y24130
X43688Y1270
X61976Y24130
X64516Y24130
X67056Y24130
X69596Y24130
X67056Y1270
X64516Y1270
X61976Y1270
X59436Y1270
X59436Y24130
X69596Y1270
X87884Y24130
X90424Y24130
X92964Y24130
X95504Y24130
X92964Y1270
X90424Y1270
X87884Y1270
X85344Y1270
X85344Y24130
X95504Y1270
X113792Y24130
X116332Y24130
X118872Y24130
X121412Y24130
X118872Y1270
X116332Y1270
X111252Y1270
X111252Y24130
X121412Y1270
X10160Y50038
X12700Y50038
X15240Y50038
X17780Y50038
X15240Y27178
X12700Y27178
X10160Y27178
X7620Y27178
X7620Y50038
X17780Y27178
X36068Y50038
X38608Y50038
X41148Y50038
X43688Y50038
X41148Y27178
X38608Y27178
X36068Y27178
X33528Y27178
X33528Y50038
X43688Y27178
X61976Y50038
X64516Y50038
X67056Y50038
X69596Y50038
X67056Y27178
X64516Y27178
X61976Y27178
X59436Y27178
X59436Y50038
X69596Y27178
X87884Y50038
X90424Y50038
X92964Y50038
X95504Y50038
X92964Y27178
X90424Y27178
X87884Y27178
X85344Y27178
X85344Y50038
X95504Y27178
X113792Y50038
X116332Y50038
X118872Y50038
X121412Y50038
X118872Y27178
X116332Y27178
X113792Y27178
X111252Y27178
X111252Y50038
X121412Y27178
X10160Y75946
X12700Y75946
X15240Y75946
X17780Y75946
X15240Y53086
X12700Y53086
X10160Y53086
X7620Y53086
X7620Y75946
X17780Y53086
X36068Y75946
X38608Y75946
X41148Y75946
X43688Y75946
X41148Y53086
X38608Y53086
X36068Y53086
X33528Y53086
X33528Y75946
X43688Y53086
X61976Y75946
X64516Y75946
X67056Y75946
X69596Y75946
X67056Y53086
X64516Y53086
X61976Y53086
X59436Y53086
X59436Y75946
X69596Y53086
X87884Y75946
X90424Y75946
X92964Y75946
X95504Y75946
X92964Y53086
X90424Y53086
X87884Y53086
X85344Y53086
X85344Y75946
X95504Y53086
X113792Y75946
X116332Y75946
X118872Y75946
X121412Y75946
X118872Y53086
X116332Y53086
X113792Y53086
X111252Y53086
X111252Y75946
X121412Y53086
X10160Y101854
X12700Y101854
X15240Y101854
X17780Y101854
X15240Y78994
X12700Y78994
X10160Y78994
X7620Y78994
X7620Y101854
X17780Y78994
X36068Y101854
X38608Y101854
X41148Y101854
X43688Y101854
X41148Y78994
X38608Y78994
X36068Y78994
X33528Y78994
X33528Y101854
X43688Y78994
X61976Y101854
X64516Y101854
X67056Y101854
X69596Y101854
X67056Y78994
X64516Y78994
X61976Y78994
X59436Y78994
X59436Y101854
X69596Y78994
X87884Y101854
X90424Y101854
X92964Y101854
X95504Y101854
X92964Y78994
X90424Y78994
X87884Y78994
X85344Y78994
X85344Y101854
X95504Y78994
X113792Y101854
X116332Y101854
X118872Y101854
X121412Y101854
X118872Y78994
X116332Y78994
X113792Y78994
X111252Y78994
X111252Y101854
X121412Y78994
X10160Y127762
X12700Y127762
X15240Y127762
X17780Y127762
X15240Y104902
X12700Y104902
X10160Y104902
X7620Y104902
X7620Y127762
X17780Y104902
X36068Y127762
X38608Y127762
X41148Y127762
X43688Y127762
X41148Y104902
X38608Y104902
X36068Y104902
X33528Y104902
X33528Y127762
X43688Y104902
X61976Y127762
X64516Y127762
X67056Y127762
X69596Y127762
X67056Y104902
X64516Y104902
X61976Y104902
X59436Y104902
X59436Y127762
X69596Y104902
X87884Y127762
X90424Y127762
X92964Y127762
X95504Y127762
X92964Y104902
X90424Y104902
X87884Y104902
X85344Y104902
X85344Y127762
X95504Y104902
X113792Y127762
X116332Y127762
X118872Y127762
X121412Y127762
X118872Y104902
X116332Y104902
X113792Y104902
X111252Y104902
X111252Y127762
T3
X1905Y27940
X1143Y32258
X4572Y45212
X8890Y38100
X3683Y38100
X21717Y39751
X15494Y40259
X9144Y39116
X4826Y36068
X21717Y40894
X14478Y40551
X20828Y31877
X19050Y38100
X21590Y38100
X18288Y36449
X10795Y36322
X10160Y41405
X12700Y38100
X32258Y40894
X35687Y34798
X29718Y40132
X47498Y37084
X33528Y43815
X33528Y34671
X43053Y34036
X40513Y35941
X42037Y39370
X27178Y34163
X30734Y34163
X34544Y32639
X30734Y30988
X45593Y27813
X39878Y30353
X37338Y30353
X49403Y38608
X40513Y43053
X43688Y43053
X47244Y43053
X31623Y48768
X32258Y45593
X39878Y47498
X30734Y28575
X26924Y26797
X37338Y44958
X43688Y44323
X46863Y44323
X36068Y46228
X31623Y46863
X39878Y44323
X41148Y34163
X43688Y30353
X27178Y37338
X44196Y39370
X27813Y27940
X27051Y32258
X30480Y45212
X34798Y38100
X29591Y38100
X47625Y39751
X41402Y40259
X35052Y39116
X30734Y36068
X47625Y40894
X40386Y40551
X46736Y31877
X44958Y38100
X47498Y38100
X44196Y36449
X36703Y36322
X36068Y41405
X38608Y38100
X58166Y40894
X61595Y34798
X55626Y40132
X73406Y37084
X59436Y43815
X59436Y34671
X68961Y34036
X66421Y35941
X67945Y39370
X53086Y34163
X56642Y34163
X60452Y32639
X56642Y30988
X71501Y27813
X65786Y30353
X63246Y30353
X75311Y38608
X66421Y43053
X69596Y43053
X73152Y43053
X57531Y48768
X58166Y45593
X65786Y47498
X56642Y28575
X52832Y26797
X63246Y44958
X69596Y44323
X72771Y44323
X61976Y46228
X57531Y46863
X65786Y44323
X67056Y34163
X69596Y30353
X53086Y37338
X70104Y39370
X53721Y27940
X52959Y32258
X56388Y45212
X60706Y38100
X55499Y38100
X73533Y39751
X67310Y40259
X60960Y39116
X56642Y36068
X73533Y40894
X66294Y40551
X72644Y31877
X70866Y38100
X73406Y38100
X70104Y36449
X62611Y36322
X61976Y41405
X64516Y38100
X84074Y40894
X87503Y34798
X81534Y40132
X99314Y37084
X85344Y43815
X85344Y34671
X94869Y34036
X92329Y35941
X93853Y39370
X78994Y34163
X82550Y34163
X86360Y32639
X82550Y30988
X97409Y27813
X91694Y30353
X89154Y30353
X101219Y38608
X92329Y43053
X95504Y43053
X99060Y43053
X83439Y48768
X84074Y45593
X91694Y47498
X82550Y28575
X78740Y26797
X89154Y44958
X95504Y44323
X98679Y44323
X87884Y46228
X83439Y46863
X91694Y44323
X92964Y34163
X95504Y30353
X78994Y37338
X96012Y39370
X79629Y27940
X78867Y32258
X82296Y45212
X86614Y38100
X81407Y38100
X99441Y39751
X93218Y40259
X86868Y39116
X82550Y36068
X99441Y40894
X92202Y40551
X98552Y31877
X96774Y38100
X99314Y38100
X96012Y36449
X88519Y36322
X87884Y41405
X90424Y38100
X109982Y40894
X113411Y34798
X107442Y40132
X125222Y37084
X111252Y43815
X111252Y34671
X120777Y34036
X118237Y35941
X119761Y39370
X104902Y34163
X108458Y34163
X112268Y32639
X108458Y30988
X123317Y27813
X117602Y30353
X115062Y30353
X127127Y38608
X118237Y43053
X121412Y43053
X124968Y43053
X109347Y48768
X109982Y45593
X117602Y47498
X108458Y28575
X104648Y26797
X115062Y44958
X121412Y44323
X124587Y44323
X113792Y46228
X109347Y46863
X117602Y44323
X118872Y34163
X121412Y30353
X104902Y37338
X121920Y39370
X105537Y27940
X104775Y32258
X108204Y45212
X112522Y38100
X107315Y38100
X125349Y39751
X119126Y40259
X112776Y39116
X108458Y36068
X125349Y40894
X118110Y40551
X124460Y31877
X122682Y38100
X125222Y38100
X121920Y36449
X114427Y36322
X113792Y41405
X116332Y38100
X6350Y66802
X9779Y60706
X3810Y66040
X21590Y62992
X7620Y69723
X7620Y60579
X17145Y59944
X14605Y61849
X16129Y65278
X1270Y60071
X4826Y60071
X8636Y58547
X4826Y56896
X19685Y53721
X13970Y56261
X11430Y56261
X23495Y64516
X14605Y68961
X17780Y68961
X21336Y68961
X5715Y74676
X6350Y71501
X13970Y73406
X4826Y54483
X1016Y52705
X11430Y70866
X17780Y70231
X20955Y70231
X10160Y72136
X5715Y72771
X13970Y70231
X15240Y60071
X17780Y56261
X1270Y63246
X18288Y65278
X1905Y53848
X1143Y58166
X4572Y71120
X8890Y64008
X3683Y64008
X21717Y65659
X15494Y66167
X9144Y65024
X4826Y61976
X21717Y66802
X14478Y66459
X20828Y57785
X19050Y64008
X21590Y64008
X18288Y62357
X10795Y62230
X10160Y67313
X12700Y64008
X32258Y66802
X35687Y60706
X29718Y66040
X47498Y62992
X33528Y69723
X33528Y60579
X43053Y59944
X40513Y61849
X42037Y65278
X27178Y60071
X30734Y60071
X34544Y58547
X30734Y56896
X45593Y53721
X39878Y56261
X37338Y56261
X49403Y64516
X40513Y68961
X43688Y68961
X47244Y68961
X31623Y74676
X32258Y71501
X39878Y73406
X30734Y54483
X26924Y52705
X37338Y70866
X43688Y70231
X46863Y70231
X36068Y72136
X31623Y72771
X39878Y70231
X41148Y60071
X43688Y56261
X27178Y63246
X44196Y65278
X27813Y53848
X27051Y58166
X30480Y71120
X34798Y64008
X29591Y64008
X47625Y65659
X41402Y66167
X35052Y65024
X30734Y61976
X47625Y66802
X40386Y66459
X46736Y57785
X44958Y64008
X47498Y64008
X44196Y62357
X36703Y62230
X36068Y67313
X38608Y64008
X58166Y66802
X61595Y60706
X55626Y66040
X73406Y62992
X59436Y69723
X59436Y60579
X68961Y59944
X66421Y61849
X67945Y65278
X53086Y60071
X56642Y60071
X60452Y58547
X56642Y56896
X71501Y53721
X65786Y56261
X63246Y56261
X75311Y64516
X66421Y68961
X69596Y68961
X73152Y68961
X57531Y74676
X58166Y71501
X65786Y73406
X56642Y54483
X52832Y52705
X63246Y70866
X69596Y70231
X72771Y70231
X61976Y72136
X57531Y72771
X65786Y70231
X67056Y60071
X69596Y56261
X53086Y63246
X70104Y65278
X53721Y53848
X52959Y58166
X56388Y71120
X60706Y64008
X55499Y64008
X73533Y65659
X67310Y66167
X60960Y65024
X56642Y61976
X73533Y66802
X66294Y66459
X72644Y57785
X70866Y64008
X73406Y64008
X70104Y62357
X62611Y62230
X61976Y67313
X64516Y64008
X84074Y66802
X87503Y60706
X81534Y66040
X99314Y62992
X85344Y69723
X85344Y60579
X94869Y59944
X92329Y61849
X93853Y65278
X78994Y60071
X82550Y60071
X86360Y58547
X82550Y56896
X97409Y53721
X91694Y56261
X89154Y56261
X101219Y64516
X92329Y68961
X95504Y68961
X99060Y68961
X83439Y74676
X84074Y71501
X91694Y73406
X82550Y54483
X78740Y52705
X89154Y70866
X95504Y70231
X98679Y70231
X87884Y72136
X83439Y72771
X91694Y70231
X92964Y60071
X95504Y56261
X78994Y63246
X96012Y65278
X79629Y53848
X78867Y58166
X82296Y71120
X86614Y64008
X81407Y64008
X99441Y65659
X93218Y66167
X86868Y65024
X82550Y61976
X99441Y66802
X92202Y66459
X98552Y57785
X96774Y64008
X99314Y64008
X96012Y62357
X88519Y62230
X87884Y67313
X90424Y64008
X109982Y66802
X113411Y60706
X107442Y66040
X125222Y62992
X111252Y69723
X111252Y60579
X120777Y59944
X118237Y61849
X119761Y65278
X104902Y60071
X108458Y60071
X112268Y58547
X108458Y56896
X123317Y53721
X117602Y56261
X115062Y56261
X127127Y64516
X118237Y68961
X121412Y68961
X124968Y68961
X109347Y74676
X109982Y71501
X117602Y73406
X108458Y54483
X104648Y52705
X115062Y70866
X121412Y70231
X124587Y70231
X113792Y72136
X109347Y72771
X117602Y70231
X118872Y60071
X121412Y56261
X104902Y63246
X121920Y65278
X105537Y53848
X104775Y58166
X108204Y71120
X112522Y64008
X107315Y64008
X125349Y65659
X119126Y66167
X112776Y65024
X108458Y61976
X125349Y66802
X118110Y66459
X124460Y57785
X122682Y64008
X125222Y64008
X121920Y62357
X114427Y62230
X113792Y67313
X116332Y64008
X6350Y92710
X9779Y86614
X3810Y91948
X21590Y88900
X7620Y95631
X7620Y86487
X17145Y85852
X14605Y87757
X16129Y91186
X1270Y85979
X4826Y85979
X8636Y84455
X4826Y82804
X19685Y79629
X13970Y82169
X11430Y82169
X23495Y90424
X99441Y14986
X17780Y94869
X21336Y94869
X5715Y100584
X6350Y97409
X13970Y99314
X4826Y80391
X1016Y78613
X11430Y96774
X17780Y96139
X20955Y96139
X10160Y98044
X5715Y98679
X13970Y96139
X15240Y85979
X17780Y82169
X1270Y89154
X18288Y91186
X1905Y79756
X1143Y84074
X4572Y97028
X8890Y89916
X3683Y89916
X21717Y91567
X15494Y92075
X9144Y90932
X4826Y87884
X21717Y92710
X14478Y92367
X20828Y83693
X19050Y89916
X21590Y89916
X18288Y88265
X10795Y88138
X10160Y93220
X12700Y89916
X32258Y92710
X35687Y86614
X29718Y91948
X47498Y88900
X33528Y95631
X33528Y86487
X43053Y85852
X40513Y87757
X42037Y91186
X27178Y85979
X30734Y85979
X34544Y84455
X30734Y82804
X45593Y79629
X39878Y82169
X37338Y82169
X49403Y90424
X40513Y94869
X43688Y94869
X47244Y94869
X31623Y100584
X32258Y97409
X39878Y99314
X30734Y80391
X26924Y78613
X37338Y96774
X43688Y96139
X46863Y96139
X36068Y98044
X31623Y98679
X39878Y96139
X41148Y85979
X43688Y82169
X27178Y89154
X44196Y91186
X27813Y79756
X27051Y84074
X30480Y97028
X34798Y89916
X29591Y89916
X47625Y91567
X41402Y92075
X35052Y90932
X30734Y87884
X47625Y92710
X40386Y92367
X46736Y83693
X44958Y89916
X47498Y89916
X44196Y88265
X36703Y88138
X36068Y93220
X38608Y89916
X58166Y92710
X61595Y86614
X55626Y91948
X73406Y88900
X59436Y95631
X59436Y86487
X68961Y85852
X66421Y87757
X67945Y91186
X53086Y85979
X56642Y85979
X60452Y84455
X56642Y82804
X71501Y79629
X65786Y82169
X63246Y82169
X75311Y90424
X66421Y94869
X69596Y94869
X73152Y94869
X57531Y100584
X58166Y97409
X65786Y99314
X56642Y80391
X52832Y78613
X63246Y96774
X69596Y96139
X72771Y96139
X61976Y98044
X57531Y98679
X65786Y96139
X67056Y85979
X69596Y82169
X53086Y89154
X70104Y91186
X53721Y79756
X52959Y84074
X56388Y97028
X60706Y89916
X55499Y89916
X73533Y91567
X67310Y92075
X60960Y90932
X56642Y87884
X73533Y92710
X66294Y92367
X72644Y83693
X70866Y89916
X73406Y89916
X70104Y88265
X62611Y88138
X61976Y93220
X64516Y89916
X84074Y92710
X87503Y86614
X81534Y91948
X99314Y88900
X85344Y95631
X85344Y86487
X94869Y85852
X92329Y87757
X93853Y91186
X78994Y85979
X82550Y85979
X86360Y84455
X82550Y82804
X97409Y79629
X91694Y82169
X89154Y82169
X101219Y90424
X92329Y94869
X95504Y94869
X99060Y94869
X83439Y100584
X84074Y97409
X91694Y99314
X82550Y80391
X78740Y78613
X89154Y96774
X95504Y96139
X98679Y96139
X87884Y98044
X83439Y98679
X91694Y96139
X92964Y85979
X95504Y82169
X78994Y89154
X96012Y91186
X79629Y79756
X78867Y84074
X82296Y97028
X86614Y89916
X81407Y89916
X99441Y91567
X93218Y92075
X86868Y90932
X82550Y87884
X99441Y92710
X92202Y92367
X98552Y83693
X96774Y89916
X99314Y89916
X96012Y88265
X88519Y88138
X87884Y93220
X90424Y89916
X109982Y92710
X113411Y86614
X107442Y91948
X125222Y88900
X111252Y95631
X111252Y86487
X120777Y85852
X118237Y87757
X119761Y91186
X104902Y85979
X108458Y85979
X112268Y84455
X108458Y82804
X123317Y79629
X117602Y82169
X115062Y82169
X127127Y90424
X118237Y94869
X121412Y94869
X124968Y94869
X109347Y100584
X109982Y97409
X117602Y99314
X108458Y80391
X104648Y78613
X115062Y96774
X121412Y96139
X124587Y96139
X113792Y98044
X109347Y98679
X117602Y96139
X118872Y85979
X121412Y82169
X104902Y89154
X121920Y91186
X105537Y79756
X104775Y84074
X108204Y97028
X112522Y89916
X107315Y89916
X125349Y91567
X119126Y92075
X112776Y90932
X108458Y87884
X125349Y92710
X118110Y92367
X124460Y83693
X122682Y89916
X125222Y89916
X121920Y88265
X114427Y88138
X113792Y93220
X116332Y89916
X6350Y118618
X9779Y112522
X3810Y117856
X21590Y114808
X7620Y121539
X7620Y112395
X17145Y111760
X14605Y113665
X16129Y117094
X1270Y111887
X4826Y111887
X8636Y110363
X4826Y108712
X19685Y105537
X13970Y108077
X11430Y108077
X23495Y116332
X14605Y120777
X17780Y120777
X21336Y120777
X5715Y126492
X6350Y123317
X13970Y125222
X4826Y106299
X1016Y104521
X11430Y122682
X17780Y122047
X20955Y122047
X10160Y123952
X5715Y124587
X13970Y122047
X15240Y111887
X17780Y108077
X1270Y115062
X18288Y117094
X1905Y105664
X1143Y109982
X4572Y122936
X8890Y115824
X3683Y115824
X21717Y117475
X15494Y117983
X9144Y116840
X4826Y113792
X21717Y118618
X14478Y118275
X20828Y109601
X19050Y115824
X21590Y115824
X18288Y114173
X10795Y114046
X10160Y119128
X12700Y115824
X32258Y118618
X35687Y112522
X29718Y117856
X47498Y114808
X33528Y121539
X33528Y112395
X43053Y111760
X40513Y113665
X42037Y117094
X27178Y111887
X30734Y111887
X34544Y110363
X30734Y108712
X45593Y105537
X39878Y108077
X37338Y108077
X49403Y116332
X40513Y120777
X43688Y120777
X47244Y120777
X31623Y126492
X32258Y123317
X39878Y125222
X30734Y106299
X26924Y104521
X37338Y122682
X43688Y122047
X46863Y122047
X36068Y123952
X31623Y124587
X39878Y122047
X41148Y111887
X43688Y108077
X27178Y115062
X44196Y117094
X27813Y105664
X27051Y109982
X30480Y122936
X34798Y115824
X29591Y115824
X47625Y117475
X41402Y117983
X35052Y116840
X30734Y113792
X47625Y118618
X40386Y118275
X46736Y109601
X44958Y115824
X47498Y115824
X44196Y114173
X36703Y114046
X36068Y119128
X38608Y115824
X58166Y118618
X61595Y112522
X55626Y117856
X73406Y114808
X59436Y121539
X59436Y112395
X68961Y111760
X66421Y113665
X67945Y117094
X53086Y111887
X56642Y111887
X60452Y110363
X56642Y108712
X71501Y105537
X65786Y108077
X63246Y108077
X75311Y116332
X66421Y120777
X69596Y120777
X73152Y120777
X57531Y126492
X58166Y123317
X65786Y125222
X56642Y106299
X52832Y104521
X63246Y122682
X69596Y122047
X72771Y122047
X61976Y123952
X57531Y124587
X65786Y122047
X67056Y111887
X69596Y108077
X53086Y115062
X70104Y117094
X53721Y105664
X52959Y109982
X56388Y122936
X60706Y115824
X55499Y115824
X73533Y117475
X67310Y117983
X60960Y116840
X56642Y113792
X73533Y118618
X66294Y118275
X72644Y109601
X70866Y115824
X73406Y115824
X70104Y114173
X62611Y114046
X61976Y119128
X6350Y14986
X84074Y118618
X87503Y112522
X81534Y117856
X99314Y114808
X85344Y121539
X85344Y112395
X94869Y111760
X92329Y113665
X93853Y117094
X78994Y111887
X82550Y111887
X86360Y110363
X82550Y108712
X97409Y105537
X91694Y108077
X89154Y108077
X101219Y116332
X92329Y120777
X95504Y120777
X99060Y120777
X83439Y126492
X84074Y123317
X91694Y125222
X82550Y106299
X78740Y104521
X89154Y122682
X95504Y122047
X98679Y122047
X87884Y123952
X83439Y124587
X91694Y122047
X92964Y111887
X95504Y108077
X78994Y115062
X96012Y117094
X79629Y105664
X78867Y109982
X82296Y122936
X86614Y115824
X81407Y115824
X99441Y117475
X93218Y117983
X86868Y116840
X82550Y113792
X99441Y118618
X92202Y118275
X98552Y109601
X96774Y115824
X99314Y115824
X96012Y114173
X88519Y114046
X87884Y119128
X90424Y115824
X109982Y118618
X113411Y112522
X107442Y117856
X125222Y114808
X111252Y121539
X111252Y112395
X120777Y111760
X118237Y113665
X119761Y117094
X104902Y111887
X108458Y111887
X112268Y110363
X108458Y108712
X123317Y105537
X117602Y108077
X115062Y108077
X127127Y116332
X118237Y120777
X121412Y120777
X124968Y120777
X109347Y126492
X109982Y123317
X117602Y125222
X108458Y106299
X104648Y104521
X115062Y122682
X121412Y122047
X124587Y122047
X113792Y123952
X109347Y124587
X117602Y122047
X118872Y111887
X121412Y108077
X104902Y115062
X121920Y117094
X105537Y105664
X104775Y109982
X108204Y122936
X112522Y115824
X107315Y115824
X125349Y117475
X119126Y117983
X112776Y116840
X108458Y113792
X125349Y118618
X118110Y118275
X124460Y109601
X122682Y115824
X125222Y115824
X121920Y114173
X114427Y114046
X113792Y119128
X116332Y115824
X9779Y8890
X3810Y14224
X21590Y11176
X7620Y17907
X7620Y8763
X17145Y8128
X14605Y10033
X16129Y13462
X1270Y8255
X4826Y8255
X8636Y6731
X4826Y5080
X19685Y1905
X13970Y4445
X11430Y4445
X23495Y12700
X14605Y17145
X17780Y17145
X21336Y17145
X5715Y22860
X6350Y19685
X13970Y21590
X4826Y2667
X1016Y889
X11430Y19050
X17780Y18415
X20955Y18415
X10160Y20320
X5715Y20955
X13970Y18415
X15240Y8255
X17780Y4445
X1270Y11430
X18288Y13462
X1905Y2032
X1143Y6350
X4572Y19304
X8890Y12192
X3683Y12192
X21717Y13843
X15494Y14351
X9144Y13208
X4826Y10160
X21717Y14986
X14478Y14643
X20828Y5969
X19050Y12192
X21590Y12192
X18288Y10541
X10795Y10414
X10160Y15496
X12700Y12192
X32258Y14986
X35687Y8890
X29718Y14224
X47498Y11176
X33528Y17907
X33528Y8763
X43053Y8128
X40513Y10033
X42037Y13462
X27178Y8255
X30734Y8255
X34544Y6731
X30734Y5080
X45593Y1905
X39878Y4445
X37338Y4445
X49403Y12700
X40513Y17145
X43688Y17145
X47244Y17145
X31623Y22860
X32258Y19685
X39878Y21590
X30734Y2667
X26924Y889
X37338Y19050
X43688Y18415
X46863Y18415
X36068Y20320
X31623Y20955
X39878Y18415
X41148Y8255
X43688Y4445
X27178Y11430
X44196Y13462
X27813Y2032
X27051Y6350
X30480Y19304
X34798Y12192
X29591Y12192
X47625Y13843
X41402Y14351
X35052Y13208
X30734Y10160
X14605Y94869
X47625Y14986
X40386Y14643
X46736Y5969
X44958Y12192
X47498Y12192
X44196Y10541
X36703Y10414
X36068Y15496
X38608Y12192
X58166Y14986
X61595Y8890
X55626Y14224
X73406Y11176
X59436Y17907
X59436Y8763
X68961Y8128
X66421Y10033
X67945Y13462
X53086Y8255
X56642Y8255
X60452Y6731
X56642Y5080
X71501Y1905
X65786Y4445
X63246Y4445
X75311Y12700
X66421Y17145
X69596Y17145
X73152Y17145
X57531Y22860
X58166Y19685
X65786Y21590
X56642Y2667
X52832Y889
X63246Y19050
X69596Y18415
X72771Y18415
X61976Y20320
X57531Y20955
X65786Y18415
X67056Y8255
X69596Y4445
X53086Y11430
X70104Y13462
X53721Y2032
X52959Y6350
X56388Y19304
X60706Y12192
X55499Y12192
X73533Y13843
X67310Y14351
X60960Y13208
X56642Y10160
X73533Y14986
X66294Y14643
X72644Y5969
X70866Y12192
X73406Y12192
X70104Y10541
X62611Y10414
X61976Y15496
X64516Y12192
X84074Y14986
X87503Y8890
X81534Y14224
X99314Y11176
X85344Y17907
X85344Y8763
X94869Y8128
X92329Y10033
X93853Y13462
X78994Y8255
X82550Y8255
X86360Y6731
X82550Y5080
X97409Y1905
X91694Y4445
X89154Y4445
X101219Y12700
X92329Y17145
X95504Y17145
X99060Y17145
X83439Y22860
X84074Y19685
X91694Y21590
X82550Y2667
X78740Y889
X89154Y19050
X95504Y18415
X98679Y18415
X87884Y20320
X83439Y20955
X91694Y18415
X92964Y8255
X95504Y4445
X78994Y11430
X96012Y13462
X79629Y2032
X78867Y6350
X82296Y19304
X86614Y12192
X81407Y12192
X99441Y13843
X93218Y14351
X86868Y13208
X82550Y10160
X92202Y14643
X98552Y5969
X96774Y12192
X99314Y12192
X96012Y10541
X88519Y10414
X87884Y15496
X90424Y12192
X109982Y14986
X113411Y8890
X107442Y14224
X125222Y11176
X111252Y17907
X111252Y8763
X120777Y8128
X118237Y10033
X119761Y13462
X104902Y8255
X108458Y8255
X112268Y6731
X108458Y5080
X123317Y1905
X117602Y4445
X115062Y4445
X127127Y12700
X118237Y17145
X121412Y17145
X124968Y17145
X109347Y22860
X109982Y19685
X117602Y21590
X108458Y2667
X104648Y889
X115062Y19050
X121412Y18415
X124587Y18415
X113792Y20320
X109347Y20955
X117602Y18415
X118872Y8255
X121412Y4445
X104902Y11430
X121920Y13462
X105537Y2032
X104775Y6350
X108204Y19304
X112522Y12192
X107315Y12192
X125349Y13843
X119126Y14351
X112776Y13208
X108458Y10160
X125349Y14986
X118110Y14643
X124460Y5969
X122682Y12192
X125222Y12192
X121920Y10541
X114427Y10414
X113792Y15496
X116332Y12192
X6350Y40894
X9779Y34798
X3810Y40132
X21590Y37084
X7620Y43815
X7620Y34671
X17145Y34036
X14605Y35941
X16129Y39370
X1270Y34163
X4826Y34163
X8636Y32639
X4826Y30988
X19685Y27813
X13970Y30353
X11430Y30353
X23495Y38608
X14605Y43053
X17780Y43053
X21336Y43053
X5715Y48768
X6350Y45593
X13970Y47498
X4826Y28575
X1016Y26797
X11430Y44958
X17780Y44323
X20955Y44323
X10160Y46228
X5715Y46863
X13970Y44323
X15240Y34163
X17780Y30353
X1270Y37338
X18288Y39370
X64516Y115824
M30