G04 EAGLE Gerber RS-274X export*
G75*
%MOMM*%
%FSLAX34Y34*%
%LPD*%
%INSolderpaste Top*%
%IPPOS*%
%AMOC8*
5,1,8,0,0,1.08239X$1,22.5*%
G01*
%ADD10R,1.100000X1.000000*%
%ADD11R,2.000000X1.200000*%
%ADD12R,1.350000X0.600000*%
%ADD13C,0.300000*%
%ADD14R,1.000000X1.100000*%
%ADD15R,1.100000X0.400000*%
%ADD16R,0.800000X0.900000*%
%ADD17R,0.700000X0.420000*%
%ADD18R,0.750000X0.250000*%


D10*
X40250Y63500D03*
X23250Y63500D03*
X40250Y36830D03*
X23250Y36830D03*
D11*
X14050Y155000D03*
X14050Y99000D03*
D12*
X50800Y142000D03*
X50800Y132000D03*
X50800Y122000D03*
X50800Y112000D03*
D11*
X239950Y99000D03*
X239950Y155000D03*
D12*
X203200Y112000D03*
X203200Y122000D03*
X203200Y132000D03*
X203200Y142000D03*
D10*
X16900Y190500D03*
X33900Y190500D03*
D13*
X30670Y174950D02*
X30670Y167950D01*
X30670Y174950D02*
X37670Y174950D01*
X37670Y167950D01*
X30670Y167950D01*
X30670Y170800D02*
X37670Y170800D01*
X37670Y173650D02*
X30670Y173650D01*
X13130Y174950D02*
X13130Y167950D01*
X13130Y174950D02*
X20130Y174950D01*
X20130Y167950D01*
X13130Y167950D01*
X13130Y170800D02*
X20130Y170800D01*
X20130Y173650D02*
X13130Y173650D01*
D14*
X182880Y107560D03*
X182880Y90560D03*
D15*
X149500Y117250D03*
X149500Y123750D03*
X149500Y130250D03*
X149500Y136750D03*
X104500Y136750D03*
X104500Y130250D03*
X104500Y123750D03*
X104500Y117250D03*
D14*
X76200Y116450D03*
X76200Y99450D03*
D13*
X223330Y86050D02*
X223330Y79050D01*
X216330Y79050D01*
X216330Y86050D01*
X223330Y86050D01*
X223330Y81900D02*
X216330Y81900D01*
X216330Y84750D02*
X223330Y84750D01*
X240870Y86050D02*
X240870Y79050D01*
X233870Y79050D01*
X233870Y86050D01*
X240870Y86050D01*
X240870Y81900D02*
X233870Y81900D01*
X233870Y84750D02*
X240870Y84750D01*
D10*
X237100Y63500D03*
X220100Y63500D03*
D16*
X128880Y181450D03*
X109880Y181450D03*
X119380Y160450D03*
D14*
X157480Y165490D03*
X157480Y182490D03*
X91440Y160410D03*
X91440Y177410D03*
D17*
X140360Y82400D03*
X140360Y95400D03*
X159360Y82400D03*
X159360Y95400D03*
X159360Y88900D03*
D14*
X177800Y182490D03*
X177800Y165490D03*
D10*
X211210Y190500D03*
X228210Y190500D03*
D18*
X92450Y87510D03*
X92450Y82510D03*
X92450Y77510D03*
X92450Y72510D03*
X123450Y87510D03*
X123450Y82510D03*
X123450Y77510D03*
X123450Y72510D03*
D10*
X116450Y101600D03*
X99450Y101600D03*
X299330Y63500D03*
X282330Y63500D03*
X299330Y36830D03*
X282330Y36830D03*
D11*
X273130Y155000D03*
X273130Y99000D03*
D12*
X309880Y142000D03*
X309880Y132000D03*
X309880Y122000D03*
X309880Y112000D03*
D11*
X499030Y99000D03*
X499030Y155000D03*
D12*
X462280Y112000D03*
X462280Y122000D03*
X462280Y132000D03*
X462280Y142000D03*
D10*
X275980Y190500D03*
X292980Y190500D03*
D13*
X289750Y174950D02*
X289750Y167950D01*
X289750Y174950D02*
X296750Y174950D01*
X296750Y167950D01*
X289750Y167950D01*
X289750Y170800D02*
X296750Y170800D01*
X296750Y173650D02*
X289750Y173650D01*
X272210Y174950D02*
X272210Y167950D01*
X272210Y174950D02*
X279210Y174950D01*
X279210Y167950D01*
X272210Y167950D01*
X272210Y170800D02*
X279210Y170800D01*
X279210Y173650D02*
X272210Y173650D01*
D14*
X441960Y107560D03*
X441960Y90560D03*
D15*
X408580Y117250D03*
X408580Y123750D03*
X408580Y130250D03*
X408580Y136750D03*
X363580Y136750D03*
X363580Y130250D03*
X363580Y123750D03*
X363580Y117250D03*
D14*
X335280Y116450D03*
X335280Y99450D03*
D13*
X482410Y86050D02*
X482410Y79050D01*
X475410Y79050D01*
X475410Y86050D01*
X482410Y86050D01*
X482410Y81900D02*
X475410Y81900D01*
X475410Y84750D02*
X482410Y84750D01*
X499950Y86050D02*
X499950Y79050D01*
X492950Y79050D01*
X492950Y86050D01*
X499950Y86050D01*
X499950Y81900D02*
X492950Y81900D01*
X492950Y84750D02*
X499950Y84750D01*
D10*
X496180Y63500D03*
X479180Y63500D03*
D16*
X387960Y181450D03*
X368960Y181450D03*
X378460Y160450D03*
D14*
X416560Y165490D03*
X416560Y182490D03*
X350520Y160410D03*
X350520Y177410D03*
D17*
X399440Y82400D03*
X399440Y95400D03*
X418440Y82400D03*
X418440Y95400D03*
X418440Y88900D03*
D14*
X436880Y182490D03*
X436880Y165490D03*
D10*
X470290Y190500D03*
X487290Y190500D03*
D18*
X351530Y87510D03*
X351530Y82510D03*
X351530Y77510D03*
X351530Y72510D03*
X382530Y87510D03*
X382530Y82510D03*
X382530Y77510D03*
X382530Y72510D03*
D10*
X375530Y101600D03*
X358530Y101600D03*
X558410Y63500D03*
X541410Y63500D03*
X558410Y36830D03*
X541410Y36830D03*
D11*
X532210Y155000D03*
X532210Y99000D03*
D12*
X568960Y142000D03*
X568960Y132000D03*
X568960Y122000D03*
X568960Y112000D03*
D11*
X758110Y99000D03*
X758110Y155000D03*
D12*
X721360Y112000D03*
X721360Y122000D03*
X721360Y132000D03*
X721360Y142000D03*
D10*
X535060Y190500D03*
X552060Y190500D03*
D13*
X548830Y174950D02*
X548830Y167950D01*
X548830Y174950D02*
X555830Y174950D01*
X555830Y167950D01*
X548830Y167950D01*
X548830Y170800D02*
X555830Y170800D01*
X555830Y173650D02*
X548830Y173650D01*
X531290Y174950D02*
X531290Y167950D01*
X531290Y174950D02*
X538290Y174950D01*
X538290Y167950D01*
X531290Y167950D01*
X531290Y170800D02*
X538290Y170800D01*
X538290Y173650D02*
X531290Y173650D01*
D14*
X701040Y107560D03*
X701040Y90560D03*
D15*
X667660Y117250D03*
X667660Y123750D03*
X667660Y130250D03*
X667660Y136750D03*
X622660Y136750D03*
X622660Y130250D03*
X622660Y123750D03*
X622660Y117250D03*
D14*
X594360Y116450D03*
X594360Y99450D03*
D13*
X741490Y86050D02*
X741490Y79050D01*
X734490Y79050D01*
X734490Y86050D01*
X741490Y86050D01*
X741490Y81900D02*
X734490Y81900D01*
X734490Y84750D02*
X741490Y84750D01*
X759030Y86050D02*
X759030Y79050D01*
X752030Y79050D01*
X752030Y86050D01*
X759030Y86050D01*
X759030Y81900D02*
X752030Y81900D01*
X752030Y84750D02*
X759030Y84750D01*
D10*
X755260Y63500D03*
X738260Y63500D03*
D16*
X647040Y181450D03*
X628040Y181450D03*
X637540Y160450D03*
D14*
X675640Y165490D03*
X675640Y182490D03*
X609600Y160410D03*
X609600Y177410D03*
D17*
X658520Y82400D03*
X658520Y95400D03*
X677520Y82400D03*
X677520Y95400D03*
X677520Y88900D03*
D14*
X695960Y182490D03*
X695960Y165490D03*
D10*
X729370Y190500D03*
X746370Y190500D03*
D18*
X610610Y87510D03*
X610610Y82510D03*
X610610Y77510D03*
X610610Y72510D03*
X641610Y87510D03*
X641610Y82510D03*
X641610Y77510D03*
X641610Y72510D03*
D10*
X634610Y101600D03*
X617610Y101600D03*
X817490Y63500D03*
X800490Y63500D03*
X817490Y36830D03*
X800490Y36830D03*
D11*
X791290Y155000D03*
X791290Y99000D03*
D12*
X828040Y142000D03*
X828040Y132000D03*
X828040Y122000D03*
X828040Y112000D03*
D11*
X1017190Y99000D03*
X1017190Y155000D03*
D12*
X980440Y112000D03*
X980440Y122000D03*
X980440Y132000D03*
X980440Y142000D03*
D10*
X794140Y190500D03*
X811140Y190500D03*
D13*
X807910Y174950D02*
X807910Y167950D01*
X807910Y174950D02*
X814910Y174950D01*
X814910Y167950D01*
X807910Y167950D01*
X807910Y170800D02*
X814910Y170800D01*
X814910Y173650D02*
X807910Y173650D01*
X790370Y174950D02*
X790370Y167950D01*
X790370Y174950D02*
X797370Y174950D01*
X797370Y167950D01*
X790370Y167950D01*
X790370Y170800D02*
X797370Y170800D01*
X797370Y173650D02*
X790370Y173650D01*
D14*
X960120Y107560D03*
X960120Y90560D03*
D15*
X926740Y117250D03*
X926740Y123750D03*
X926740Y130250D03*
X926740Y136750D03*
X881740Y136750D03*
X881740Y130250D03*
X881740Y123750D03*
X881740Y117250D03*
D14*
X853440Y116450D03*
X853440Y99450D03*
D13*
X1000570Y86050D02*
X1000570Y79050D01*
X993570Y79050D01*
X993570Y86050D01*
X1000570Y86050D01*
X1000570Y81900D02*
X993570Y81900D01*
X993570Y84750D02*
X1000570Y84750D01*
X1018110Y86050D02*
X1018110Y79050D01*
X1011110Y79050D01*
X1011110Y86050D01*
X1018110Y86050D01*
X1018110Y81900D02*
X1011110Y81900D01*
X1011110Y84750D02*
X1018110Y84750D01*
D10*
X1014340Y63500D03*
X997340Y63500D03*
D16*
X906120Y181450D03*
X887120Y181450D03*
X896620Y160450D03*
D14*
X934720Y165490D03*
X934720Y182490D03*
X868680Y160410D03*
X868680Y177410D03*
D17*
X917600Y82400D03*
X917600Y95400D03*
X936600Y82400D03*
X936600Y95400D03*
X936600Y88900D03*
D14*
X955040Y182490D03*
X955040Y165490D03*
D10*
X988450Y190500D03*
X1005450Y190500D03*
D18*
X869690Y87510D03*
X869690Y82510D03*
X869690Y77510D03*
X869690Y72510D03*
X900690Y87510D03*
X900690Y82510D03*
X900690Y77510D03*
X900690Y72510D03*
D10*
X893690Y101600D03*
X876690Y101600D03*
X1076570Y63500D03*
X1059570Y63500D03*
X1076570Y36830D03*
X1059570Y36830D03*
D11*
X1050370Y155000D03*
X1050370Y99000D03*
D12*
X1087120Y142000D03*
X1087120Y132000D03*
X1087120Y122000D03*
X1087120Y112000D03*
D11*
X1276270Y99000D03*
X1276270Y155000D03*
D12*
X1239520Y112000D03*
X1239520Y122000D03*
X1239520Y132000D03*
X1239520Y142000D03*
D10*
X1053220Y190500D03*
X1070220Y190500D03*
D13*
X1066990Y174950D02*
X1066990Y167950D01*
X1066990Y174950D02*
X1073990Y174950D01*
X1073990Y167950D01*
X1066990Y167950D01*
X1066990Y170800D02*
X1073990Y170800D01*
X1073990Y173650D02*
X1066990Y173650D01*
X1049450Y174950D02*
X1049450Y167950D01*
X1049450Y174950D02*
X1056450Y174950D01*
X1056450Y167950D01*
X1049450Y167950D01*
X1049450Y170800D02*
X1056450Y170800D01*
X1056450Y173650D02*
X1049450Y173650D01*
D14*
X1219200Y107560D03*
X1219200Y90560D03*
D15*
X1185820Y117250D03*
X1185820Y123750D03*
X1185820Y130250D03*
X1185820Y136750D03*
X1140820Y136750D03*
X1140820Y130250D03*
X1140820Y123750D03*
X1140820Y117250D03*
D14*
X1112520Y116450D03*
X1112520Y99450D03*
D13*
X1259650Y86050D02*
X1259650Y79050D01*
X1252650Y79050D01*
X1252650Y86050D01*
X1259650Y86050D01*
X1259650Y81900D02*
X1252650Y81900D01*
X1252650Y84750D02*
X1259650Y84750D01*
X1277190Y86050D02*
X1277190Y79050D01*
X1270190Y79050D01*
X1270190Y86050D01*
X1277190Y86050D01*
X1277190Y81900D02*
X1270190Y81900D01*
X1270190Y84750D02*
X1277190Y84750D01*
D10*
X1273420Y63500D03*
X1256420Y63500D03*
D16*
X1165200Y181450D03*
X1146200Y181450D03*
X1155700Y160450D03*
D14*
X1193800Y165490D03*
X1193800Y182490D03*
X1127760Y160410D03*
X1127760Y177410D03*
D17*
X1176680Y82400D03*
X1176680Y95400D03*
X1195680Y82400D03*
X1195680Y95400D03*
X1195680Y88900D03*
D14*
X1214120Y182490D03*
X1214120Y165490D03*
D10*
X1247530Y190500D03*
X1264530Y190500D03*
D18*
X1128770Y87510D03*
X1128770Y82510D03*
X1128770Y77510D03*
X1128770Y72510D03*
X1159770Y87510D03*
X1159770Y82510D03*
X1159770Y77510D03*
X1159770Y72510D03*
D10*
X1152770Y101600D03*
X1135770Y101600D03*
X40250Y322580D03*
X23250Y322580D03*
X40250Y295910D03*
X23250Y295910D03*
D11*
X14050Y414080D03*
X14050Y358080D03*
D12*
X50800Y401080D03*
X50800Y391080D03*
X50800Y381080D03*
X50800Y371080D03*
D11*
X239950Y358080D03*
X239950Y414080D03*
D12*
X203200Y371080D03*
X203200Y381080D03*
X203200Y391080D03*
X203200Y401080D03*
D10*
X16900Y449580D03*
X33900Y449580D03*
D13*
X30670Y434030D02*
X30670Y427030D01*
X30670Y434030D02*
X37670Y434030D01*
X37670Y427030D01*
X30670Y427030D01*
X30670Y429880D02*
X37670Y429880D01*
X37670Y432730D02*
X30670Y432730D01*
X13130Y434030D02*
X13130Y427030D01*
X13130Y434030D02*
X20130Y434030D01*
X20130Y427030D01*
X13130Y427030D01*
X13130Y429880D02*
X20130Y429880D01*
X20130Y432730D02*
X13130Y432730D01*
D14*
X182880Y366640D03*
X182880Y349640D03*
D15*
X149500Y376330D03*
X149500Y382830D03*
X149500Y389330D03*
X149500Y395830D03*
X104500Y395830D03*
X104500Y389330D03*
X104500Y382830D03*
X104500Y376330D03*
D14*
X76200Y375530D03*
X76200Y358530D03*
D13*
X223330Y345130D02*
X223330Y338130D01*
X216330Y338130D01*
X216330Y345130D01*
X223330Y345130D01*
X223330Y340980D02*
X216330Y340980D01*
X216330Y343830D02*
X223330Y343830D01*
X240870Y345130D02*
X240870Y338130D01*
X233870Y338130D01*
X233870Y345130D01*
X240870Y345130D01*
X240870Y340980D02*
X233870Y340980D01*
X233870Y343830D02*
X240870Y343830D01*
D10*
X237100Y322580D03*
X220100Y322580D03*
D16*
X128880Y440530D03*
X109880Y440530D03*
X119380Y419530D03*
D14*
X157480Y424570D03*
X157480Y441570D03*
X91440Y419490D03*
X91440Y436490D03*
D17*
X140360Y341480D03*
X140360Y354480D03*
X159360Y341480D03*
X159360Y354480D03*
X159360Y347980D03*
D14*
X177800Y441570D03*
X177800Y424570D03*
D10*
X211210Y449580D03*
X228210Y449580D03*
D18*
X92450Y346590D03*
X92450Y341590D03*
X92450Y336590D03*
X92450Y331590D03*
X123450Y346590D03*
X123450Y341590D03*
X123450Y336590D03*
X123450Y331590D03*
D10*
X116450Y360680D03*
X99450Y360680D03*
X299330Y322580D03*
X282330Y322580D03*
X299330Y295910D03*
X282330Y295910D03*
D11*
X273130Y414080D03*
X273130Y358080D03*
D12*
X309880Y401080D03*
X309880Y391080D03*
X309880Y381080D03*
X309880Y371080D03*
D11*
X499030Y358080D03*
X499030Y414080D03*
D12*
X462280Y371080D03*
X462280Y381080D03*
X462280Y391080D03*
X462280Y401080D03*
D10*
X275980Y449580D03*
X292980Y449580D03*
D13*
X289750Y434030D02*
X289750Y427030D01*
X289750Y434030D02*
X296750Y434030D01*
X296750Y427030D01*
X289750Y427030D01*
X289750Y429880D02*
X296750Y429880D01*
X296750Y432730D02*
X289750Y432730D01*
X272210Y434030D02*
X272210Y427030D01*
X272210Y434030D02*
X279210Y434030D01*
X279210Y427030D01*
X272210Y427030D01*
X272210Y429880D02*
X279210Y429880D01*
X279210Y432730D02*
X272210Y432730D01*
D14*
X441960Y366640D03*
X441960Y349640D03*
D15*
X408580Y376330D03*
X408580Y382830D03*
X408580Y389330D03*
X408580Y395830D03*
X363580Y395830D03*
X363580Y389330D03*
X363580Y382830D03*
X363580Y376330D03*
D14*
X335280Y375530D03*
X335280Y358530D03*
D13*
X482410Y345130D02*
X482410Y338130D01*
X475410Y338130D01*
X475410Y345130D01*
X482410Y345130D01*
X482410Y340980D02*
X475410Y340980D01*
X475410Y343830D02*
X482410Y343830D01*
X499950Y345130D02*
X499950Y338130D01*
X492950Y338130D01*
X492950Y345130D01*
X499950Y345130D01*
X499950Y340980D02*
X492950Y340980D01*
X492950Y343830D02*
X499950Y343830D01*
D10*
X496180Y322580D03*
X479180Y322580D03*
D16*
X387960Y440530D03*
X368960Y440530D03*
X378460Y419530D03*
D14*
X416560Y424570D03*
X416560Y441570D03*
X350520Y419490D03*
X350520Y436490D03*
D17*
X399440Y341480D03*
X399440Y354480D03*
X418440Y341480D03*
X418440Y354480D03*
X418440Y347980D03*
D14*
X436880Y441570D03*
X436880Y424570D03*
D10*
X470290Y449580D03*
X487290Y449580D03*
D18*
X351530Y346590D03*
X351530Y341590D03*
X351530Y336590D03*
X351530Y331590D03*
X382530Y346590D03*
X382530Y341590D03*
X382530Y336590D03*
X382530Y331590D03*
D10*
X375530Y360680D03*
X358530Y360680D03*
X558410Y322580D03*
X541410Y322580D03*
X558410Y295910D03*
X541410Y295910D03*
D11*
X532210Y414080D03*
X532210Y358080D03*
D12*
X568960Y401080D03*
X568960Y391080D03*
X568960Y381080D03*
X568960Y371080D03*
D11*
X758110Y358080D03*
X758110Y414080D03*
D12*
X721360Y371080D03*
X721360Y381080D03*
X721360Y391080D03*
X721360Y401080D03*
D10*
X535060Y449580D03*
X552060Y449580D03*
D13*
X548830Y434030D02*
X548830Y427030D01*
X548830Y434030D02*
X555830Y434030D01*
X555830Y427030D01*
X548830Y427030D01*
X548830Y429880D02*
X555830Y429880D01*
X555830Y432730D02*
X548830Y432730D01*
X531290Y434030D02*
X531290Y427030D01*
X531290Y434030D02*
X538290Y434030D01*
X538290Y427030D01*
X531290Y427030D01*
X531290Y429880D02*
X538290Y429880D01*
X538290Y432730D02*
X531290Y432730D01*
D14*
X701040Y366640D03*
X701040Y349640D03*
D15*
X667660Y376330D03*
X667660Y382830D03*
X667660Y389330D03*
X667660Y395830D03*
X622660Y395830D03*
X622660Y389330D03*
X622660Y382830D03*
X622660Y376330D03*
D14*
X594360Y375530D03*
X594360Y358530D03*
D13*
X741490Y345130D02*
X741490Y338130D01*
X734490Y338130D01*
X734490Y345130D01*
X741490Y345130D01*
X741490Y340980D02*
X734490Y340980D01*
X734490Y343830D02*
X741490Y343830D01*
X759030Y345130D02*
X759030Y338130D01*
X752030Y338130D01*
X752030Y345130D01*
X759030Y345130D01*
X759030Y340980D02*
X752030Y340980D01*
X752030Y343830D02*
X759030Y343830D01*
D10*
X755260Y322580D03*
X738260Y322580D03*
D16*
X647040Y440530D03*
X628040Y440530D03*
X637540Y419530D03*
D14*
X675640Y424570D03*
X675640Y441570D03*
X609600Y419490D03*
X609600Y436490D03*
D17*
X658520Y341480D03*
X658520Y354480D03*
X677520Y341480D03*
X677520Y354480D03*
X677520Y347980D03*
D14*
X695960Y441570D03*
X695960Y424570D03*
D10*
X729370Y449580D03*
X746370Y449580D03*
D18*
X610610Y346590D03*
X610610Y341590D03*
X610610Y336590D03*
X610610Y331590D03*
X641610Y346590D03*
X641610Y341590D03*
X641610Y336590D03*
X641610Y331590D03*
D10*
X634610Y360680D03*
X617610Y360680D03*
X817490Y322580D03*
X800490Y322580D03*
X817490Y295910D03*
X800490Y295910D03*
D11*
X791290Y414080D03*
X791290Y358080D03*
D12*
X828040Y401080D03*
X828040Y391080D03*
X828040Y381080D03*
X828040Y371080D03*
D11*
X1017190Y358080D03*
X1017190Y414080D03*
D12*
X980440Y371080D03*
X980440Y381080D03*
X980440Y391080D03*
X980440Y401080D03*
D10*
X794140Y449580D03*
X811140Y449580D03*
D13*
X807910Y434030D02*
X807910Y427030D01*
X807910Y434030D02*
X814910Y434030D01*
X814910Y427030D01*
X807910Y427030D01*
X807910Y429880D02*
X814910Y429880D01*
X814910Y432730D02*
X807910Y432730D01*
X790370Y434030D02*
X790370Y427030D01*
X790370Y434030D02*
X797370Y434030D01*
X797370Y427030D01*
X790370Y427030D01*
X790370Y429880D02*
X797370Y429880D01*
X797370Y432730D02*
X790370Y432730D01*
D14*
X960120Y366640D03*
X960120Y349640D03*
D15*
X926740Y376330D03*
X926740Y382830D03*
X926740Y389330D03*
X926740Y395830D03*
X881740Y395830D03*
X881740Y389330D03*
X881740Y382830D03*
X881740Y376330D03*
D14*
X853440Y375530D03*
X853440Y358530D03*
D13*
X1000570Y345130D02*
X1000570Y338130D01*
X993570Y338130D01*
X993570Y345130D01*
X1000570Y345130D01*
X1000570Y340980D02*
X993570Y340980D01*
X993570Y343830D02*
X1000570Y343830D01*
X1018110Y345130D02*
X1018110Y338130D01*
X1011110Y338130D01*
X1011110Y345130D01*
X1018110Y345130D01*
X1018110Y340980D02*
X1011110Y340980D01*
X1011110Y343830D02*
X1018110Y343830D01*
D10*
X1014340Y322580D03*
X997340Y322580D03*
D16*
X906120Y440530D03*
X887120Y440530D03*
X896620Y419530D03*
D14*
X934720Y424570D03*
X934720Y441570D03*
X868680Y419490D03*
X868680Y436490D03*
D17*
X917600Y341480D03*
X917600Y354480D03*
X936600Y341480D03*
X936600Y354480D03*
X936600Y347980D03*
D14*
X955040Y441570D03*
X955040Y424570D03*
D10*
X988450Y449580D03*
X1005450Y449580D03*
D18*
X869690Y346590D03*
X869690Y341590D03*
X869690Y336590D03*
X869690Y331590D03*
X900690Y346590D03*
X900690Y341590D03*
X900690Y336590D03*
X900690Y331590D03*
D10*
X893690Y360680D03*
X876690Y360680D03*
X1076570Y322580D03*
X1059570Y322580D03*
X1076570Y295910D03*
X1059570Y295910D03*
D11*
X1050370Y414080D03*
X1050370Y358080D03*
D12*
X1087120Y401080D03*
X1087120Y391080D03*
X1087120Y381080D03*
X1087120Y371080D03*
D11*
X1276270Y358080D03*
X1276270Y414080D03*
D12*
X1239520Y371080D03*
X1239520Y381080D03*
X1239520Y391080D03*
X1239520Y401080D03*
D10*
X1053220Y449580D03*
X1070220Y449580D03*
D13*
X1066990Y434030D02*
X1066990Y427030D01*
X1066990Y434030D02*
X1073990Y434030D01*
X1073990Y427030D01*
X1066990Y427030D01*
X1066990Y429880D02*
X1073990Y429880D01*
X1073990Y432730D02*
X1066990Y432730D01*
X1049450Y434030D02*
X1049450Y427030D01*
X1049450Y434030D02*
X1056450Y434030D01*
X1056450Y427030D01*
X1049450Y427030D01*
X1049450Y429880D02*
X1056450Y429880D01*
X1056450Y432730D02*
X1049450Y432730D01*
D14*
X1219200Y366640D03*
X1219200Y349640D03*
D15*
X1185820Y376330D03*
X1185820Y382830D03*
X1185820Y389330D03*
X1185820Y395830D03*
X1140820Y395830D03*
X1140820Y389330D03*
X1140820Y382830D03*
X1140820Y376330D03*
D14*
X1112520Y375530D03*
X1112520Y358530D03*
D13*
X1259650Y345130D02*
X1259650Y338130D01*
X1252650Y338130D01*
X1252650Y345130D01*
X1259650Y345130D01*
X1259650Y340980D02*
X1252650Y340980D01*
X1252650Y343830D02*
X1259650Y343830D01*
X1277190Y345130D02*
X1277190Y338130D01*
X1270190Y338130D01*
X1270190Y345130D01*
X1277190Y345130D01*
X1277190Y340980D02*
X1270190Y340980D01*
X1270190Y343830D02*
X1277190Y343830D01*
D10*
X1273420Y322580D03*
X1256420Y322580D03*
D16*
X1165200Y440530D03*
X1146200Y440530D03*
X1155700Y419530D03*
D14*
X1193800Y424570D03*
X1193800Y441570D03*
X1127760Y419490D03*
X1127760Y436490D03*
D17*
X1176680Y341480D03*
X1176680Y354480D03*
X1195680Y341480D03*
X1195680Y354480D03*
X1195680Y347980D03*
D14*
X1214120Y441570D03*
X1214120Y424570D03*
D10*
X1247530Y449580D03*
X1264530Y449580D03*
D18*
X1128770Y346590D03*
X1128770Y341590D03*
X1128770Y336590D03*
X1128770Y331590D03*
X1159770Y346590D03*
X1159770Y341590D03*
X1159770Y336590D03*
X1159770Y331590D03*
D10*
X1152770Y360680D03*
X1135770Y360680D03*
X40250Y581660D03*
X23250Y581660D03*
X40250Y554990D03*
X23250Y554990D03*
D11*
X14050Y673160D03*
X14050Y617160D03*
D12*
X50800Y660160D03*
X50800Y650160D03*
X50800Y640160D03*
X50800Y630160D03*
D11*
X239950Y617160D03*
X239950Y673160D03*
D12*
X203200Y630160D03*
X203200Y640160D03*
X203200Y650160D03*
X203200Y660160D03*
D10*
X16900Y708660D03*
X33900Y708660D03*
D13*
X30670Y693110D02*
X30670Y686110D01*
X30670Y693110D02*
X37670Y693110D01*
X37670Y686110D01*
X30670Y686110D01*
X30670Y688960D02*
X37670Y688960D01*
X37670Y691810D02*
X30670Y691810D01*
X13130Y693110D02*
X13130Y686110D01*
X13130Y693110D02*
X20130Y693110D01*
X20130Y686110D01*
X13130Y686110D01*
X13130Y688960D02*
X20130Y688960D01*
X20130Y691810D02*
X13130Y691810D01*
D14*
X182880Y625720D03*
X182880Y608720D03*
D15*
X149500Y635410D03*
X149500Y641910D03*
X149500Y648410D03*
X149500Y654910D03*
X104500Y654910D03*
X104500Y648410D03*
X104500Y641910D03*
X104500Y635410D03*
D14*
X76200Y634610D03*
X76200Y617610D03*
D13*
X223330Y604210D02*
X223330Y597210D01*
X216330Y597210D01*
X216330Y604210D01*
X223330Y604210D01*
X223330Y600060D02*
X216330Y600060D01*
X216330Y602910D02*
X223330Y602910D01*
X240870Y604210D02*
X240870Y597210D01*
X233870Y597210D01*
X233870Y604210D01*
X240870Y604210D01*
X240870Y600060D02*
X233870Y600060D01*
X233870Y602910D02*
X240870Y602910D01*
D10*
X237100Y581660D03*
X220100Y581660D03*
D16*
X128880Y699610D03*
X109880Y699610D03*
X119380Y678610D03*
D14*
X157480Y683650D03*
X157480Y700650D03*
X91440Y678570D03*
X91440Y695570D03*
D17*
X140360Y600560D03*
X140360Y613560D03*
X159360Y600560D03*
X159360Y613560D03*
X159360Y607060D03*
D14*
X177800Y700650D03*
X177800Y683650D03*
D10*
X211210Y708660D03*
X228210Y708660D03*
D18*
X92450Y605670D03*
X92450Y600670D03*
X92450Y595670D03*
X92450Y590670D03*
X123450Y605670D03*
X123450Y600670D03*
X123450Y595670D03*
X123450Y590670D03*
D10*
X116450Y619760D03*
X99450Y619760D03*
X299330Y581660D03*
X282330Y581660D03*
X299330Y554990D03*
X282330Y554990D03*
D11*
X273130Y673160D03*
X273130Y617160D03*
D12*
X309880Y660160D03*
X309880Y650160D03*
X309880Y640160D03*
X309880Y630160D03*
D11*
X499030Y617160D03*
X499030Y673160D03*
D12*
X462280Y630160D03*
X462280Y640160D03*
X462280Y650160D03*
X462280Y660160D03*
D10*
X275980Y708660D03*
X292980Y708660D03*
D13*
X289750Y693110D02*
X289750Y686110D01*
X289750Y693110D02*
X296750Y693110D01*
X296750Y686110D01*
X289750Y686110D01*
X289750Y688960D02*
X296750Y688960D01*
X296750Y691810D02*
X289750Y691810D01*
X272210Y693110D02*
X272210Y686110D01*
X272210Y693110D02*
X279210Y693110D01*
X279210Y686110D01*
X272210Y686110D01*
X272210Y688960D02*
X279210Y688960D01*
X279210Y691810D02*
X272210Y691810D01*
D14*
X441960Y625720D03*
X441960Y608720D03*
D15*
X408580Y635410D03*
X408580Y641910D03*
X408580Y648410D03*
X408580Y654910D03*
X363580Y654910D03*
X363580Y648410D03*
X363580Y641910D03*
X363580Y635410D03*
D14*
X335280Y634610D03*
X335280Y617610D03*
D13*
X482410Y604210D02*
X482410Y597210D01*
X475410Y597210D01*
X475410Y604210D01*
X482410Y604210D01*
X482410Y600060D02*
X475410Y600060D01*
X475410Y602910D02*
X482410Y602910D01*
X499950Y604210D02*
X499950Y597210D01*
X492950Y597210D01*
X492950Y604210D01*
X499950Y604210D01*
X499950Y600060D02*
X492950Y600060D01*
X492950Y602910D02*
X499950Y602910D01*
D10*
X496180Y581660D03*
X479180Y581660D03*
D16*
X387960Y699610D03*
X368960Y699610D03*
X378460Y678610D03*
D14*
X416560Y683650D03*
X416560Y700650D03*
X350520Y678570D03*
X350520Y695570D03*
D17*
X399440Y600560D03*
X399440Y613560D03*
X418440Y600560D03*
X418440Y613560D03*
X418440Y607060D03*
D14*
X436880Y700650D03*
X436880Y683650D03*
D10*
X470290Y708660D03*
X487290Y708660D03*
D18*
X351530Y605670D03*
X351530Y600670D03*
X351530Y595670D03*
X351530Y590670D03*
X382530Y605670D03*
X382530Y600670D03*
X382530Y595670D03*
X382530Y590670D03*
D10*
X375530Y619760D03*
X358530Y619760D03*
X558410Y581660D03*
X541410Y581660D03*
X558410Y554990D03*
X541410Y554990D03*
D11*
X532210Y673160D03*
X532210Y617160D03*
D12*
X568960Y660160D03*
X568960Y650160D03*
X568960Y640160D03*
X568960Y630160D03*
D11*
X758110Y617160D03*
X758110Y673160D03*
D12*
X721360Y630160D03*
X721360Y640160D03*
X721360Y650160D03*
X721360Y660160D03*
D10*
X535060Y708660D03*
X552060Y708660D03*
D13*
X548830Y693110D02*
X548830Y686110D01*
X548830Y693110D02*
X555830Y693110D01*
X555830Y686110D01*
X548830Y686110D01*
X548830Y688960D02*
X555830Y688960D01*
X555830Y691810D02*
X548830Y691810D01*
X531290Y693110D02*
X531290Y686110D01*
X531290Y693110D02*
X538290Y693110D01*
X538290Y686110D01*
X531290Y686110D01*
X531290Y688960D02*
X538290Y688960D01*
X538290Y691810D02*
X531290Y691810D01*
D14*
X701040Y625720D03*
X701040Y608720D03*
D15*
X667660Y635410D03*
X667660Y641910D03*
X667660Y648410D03*
X667660Y654910D03*
X622660Y654910D03*
X622660Y648410D03*
X622660Y641910D03*
X622660Y635410D03*
D14*
X594360Y634610D03*
X594360Y617610D03*
D13*
X741490Y604210D02*
X741490Y597210D01*
X734490Y597210D01*
X734490Y604210D01*
X741490Y604210D01*
X741490Y600060D02*
X734490Y600060D01*
X734490Y602910D02*
X741490Y602910D01*
X759030Y604210D02*
X759030Y597210D01*
X752030Y597210D01*
X752030Y604210D01*
X759030Y604210D01*
X759030Y600060D02*
X752030Y600060D01*
X752030Y602910D02*
X759030Y602910D01*
D10*
X755260Y581660D03*
X738260Y581660D03*
D16*
X647040Y699610D03*
X628040Y699610D03*
X637540Y678610D03*
D14*
X675640Y683650D03*
X675640Y700650D03*
X609600Y678570D03*
X609600Y695570D03*
D17*
X658520Y600560D03*
X658520Y613560D03*
X677520Y600560D03*
X677520Y613560D03*
X677520Y607060D03*
D14*
X695960Y700650D03*
X695960Y683650D03*
D10*
X729370Y708660D03*
X746370Y708660D03*
D18*
X610610Y605670D03*
X610610Y600670D03*
X610610Y595670D03*
X610610Y590670D03*
X641610Y605670D03*
X641610Y600670D03*
X641610Y595670D03*
X641610Y590670D03*
D10*
X634610Y619760D03*
X617610Y619760D03*
X817490Y581660D03*
X800490Y581660D03*
X817490Y554990D03*
X800490Y554990D03*
D11*
X791290Y673160D03*
X791290Y617160D03*
D12*
X828040Y660160D03*
X828040Y650160D03*
X828040Y640160D03*
X828040Y630160D03*
D11*
X1017190Y617160D03*
X1017190Y673160D03*
D12*
X980440Y630160D03*
X980440Y640160D03*
X980440Y650160D03*
X980440Y660160D03*
D10*
X794140Y708660D03*
X811140Y708660D03*
D13*
X807910Y693110D02*
X807910Y686110D01*
X807910Y693110D02*
X814910Y693110D01*
X814910Y686110D01*
X807910Y686110D01*
X807910Y688960D02*
X814910Y688960D01*
X814910Y691810D02*
X807910Y691810D01*
X790370Y693110D02*
X790370Y686110D01*
X790370Y693110D02*
X797370Y693110D01*
X797370Y686110D01*
X790370Y686110D01*
X790370Y688960D02*
X797370Y688960D01*
X797370Y691810D02*
X790370Y691810D01*
D14*
X960120Y625720D03*
X960120Y608720D03*
D15*
X926740Y635410D03*
X926740Y641910D03*
X926740Y648410D03*
X926740Y654910D03*
X881740Y654910D03*
X881740Y648410D03*
X881740Y641910D03*
X881740Y635410D03*
D14*
X853440Y634610D03*
X853440Y617610D03*
D13*
X1000570Y604210D02*
X1000570Y597210D01*
X993570Y597210D01*
X993570Y604210D01*
X1000570Y604210D01*
X1000570Y600060D02*
X993570Y600060D01*
X993570Y602910D02*
X1000570Y602910D01*
X1018110Y604210D02*
X1018110Y597210D01*
X1011110Y597210D01*
X1011110Y604210D01*
X1018110Y604210D01*
X1018110Y600060D02*
X1011110Y600060D01*
X1011110Y602910D02*
X1018110Y602910D01*
D10*
X1014340Y581660D03*
X997340Y581660D03*
D16*
X906120Y699610D03*
X887120Y699610D03*
X896620Y678610D03*
D14*
X934720Y683650D03*
X934720Y700650D03*
X868680Y678570D03*
X868680Y695570D03*
D17*
X917600Y600560D03*
X917600Y613560D03*
X936600Y600560D03*
X936600Y613560D03*
X936600Y607060D03*
D14*
X955040Y700650D03*
X955040Y683650D03*
D10*
X988450Y708660D03*
X1005450Y708660D03*
D18*
X869690Y605670D03*
X869690Y600670D03*
X869690Y595670D03*
X869690Y590670D03*
X900690Y605670D03*
X900690Y600670D03*
X900690Y595670D03*
X900690Y590670D03*
D10*
X893690Y619760D03*
X876690Y619760D03*
X1076570Y581660D03*
X1059570Y581660D03*
X1076570Y554990D03*
X1059570Y554990D03*
D11*
X1050370Y673160D03*
X1050370Y617160D03*
D12*
X1087120Y660160D03*
X1087120Y650160D03*
X1087120Y640160D03*
X1087120Y630160D03*
D11*
X1276270Y617160D03*
X1276270Y673160D03*
D12*
X1239520Y630160D03*
X1239520Y640160D03*
X1239520Y650160D03*
X1239520Y660160D03*
D10*
X1053220Y708660D03*
X1070220Y708660D03*
D13*
X1066990Y693110D02*
X1066990Y686110D01*
X1066990Y693110D02*
X1073990Y693110D01*
X1073990Y686110D01*
X1066990Y686110D01*
X1066990Y688960D02*
X1073990Y688960D01*
X1073990Y691810D02*
X1066990Y691810D01*
X1049450Y693110D02*
X1049450Y686110D01*
X1049450Y693110D02*
X1056450Y693110D01*
X1056450Y686110D01*
X1049450Y686110D01*
X1049450Y688960D02*
X1056450Y688960D01*
X1056450Y691810D02*
X1049450Y691810D01*
D14*
X1219200Y625720D03*
X1219200Y608720D03*
D15*
X1185820Y635410D03*
X1185820Y641910D03*
X1185820Y648410D03*
X1185820Y654910D03*
X1140820Y654910D03*
X1140820Y648410D03*
X1140820Y641910D03*
X1140820Y635410D03*
D14*
X1112520Y634610D03*
X1112520Y617610D03*
D13*
X1259650Y604210D02*
X1259650Y597210D01*
X1252650Y597210D01*
X1252650Y604210D01*
X1259650Y604210D01*
X1259650Y600060D02*
X1252650Y600060D01*
X1252650Y602910D02*
X1259650Y602910D01*
X1277190Y604210D02*
X1277190Y597210D01*
X1270190Y597210D01*
X1270190Y604210D01*
X1277190Y604210D01*
X1277190Y600060D02*
X1270190Y600060D01*
X1270190Y602910D02*
X1277190Y602910D01*
D10*
X1273420Y581660D03*
X1256420Y581660D03*
D16*
X1165200Y699610D03*
X1146200Y699610D03*
X1155700Y678610D03*
D14*
X1193800Y683650D03*
X1193800Y700650D03*
X1127760Y678570D03*
X1127760Y695570D03*
D17*
X1176680Y600560D03*
X1176680Y613560D03*
X1195680Y600560D03*
X1195680Y613560D03*
X1195680Y607060D03*
D14*
X1214120Y700650D03*
X1214120Y683650D03*
D10*
X1247530Y708660D03*
X1264530Y708660D03*
D18*
X1128770Y605670D03*
X1128770Y600670D03*
X1128770Y595670D03*
X1128770Y590670D03*
X1159770Y605670D03*
X1159770Y600670D03*
X1159770Y595670D03*
X1159770Y590670D03*
D10*
X1152770Y619760D03*
X1135770Y619760D03*
X40250Y840740D03*
X23250Y840740D03*
X40250Y814070D03*
X23250Y814070D03*
D11*
X14050Y932240D03*
X14050Y876240D03*
D12*
X50800Y919240D03*
X50800Y909240D03*
X50800Y899240D03*
X50800Y889240D03*
D11*
X239950Y876240D03*
X239950Y932240D03*
D12*
X203200Y889240D03*
X203200Y899240D03*
X203200Y909240D03*
X203200Y919240D03*
D10*
X16900Y967740D03*
X33900Y967740D03*
D13*
X30670Y952190D02*
X30670Y945190D01*
X30670Y952190D02*
X37670Y952190D01*
X37670Y945190D01*
X30670Y945190D01*
X30670Y948040D02*
X37670Y948040D01*
X37670Y950890D02*
X30670Y950890D01*
X13130Y952190D02*
X13130Y945190D01*
X13130Y952190D02*
X20130Y952190D01*
X20130Y945190D01*
X13130Y945190D01*
X13130Y948040D02*
X20130Y948040D01*
X20130Y950890D02*
X13130Y950890D01*
D14*
X182880Y884800D03*
X182880Y867800D03*
D15*
X149500Y894490D03*
X149500Y900990D03*
X149500Y907490D03*
X149500Y913990D03*
X104500Y913990D03*
X104500Y907490D03*
X104500Y900990D03*
X104500Y894490D03*
D14*
X76200Y893690D03*
X76200Y876690D03*
D13*
X223330Y863290D02*
X223330Y856290D01*
X216330Y856290D01*
X216330Y863290D01*
X223330Y863290D01*
X223330Y859140D02*
X216330Y859140D01*
X216330Y861990D02*
X223330Y861990D01*
X240870Y863290D02*
X240870Y856290D01*
X233870Y856290D01*
X233870Y863290D01*
X240870Y863290D01*
X240870Y859140D02*
X233870Y859140D01*
X233870Y861990D02*
X240870Y861990D01*
D10*
X237100Y840740D03*
X220100Y840740D03*
D16*
X128880Y958690D03*
X109880Y958690D03*
X119380Y937690D03*
D14*
X157480Y942730D03*
X157480Y959730D03*
X91440Y937650D03*
X91440Y954650D03*
D17*
X140360Y859640D03*
X140360Y872640D03*
X159360Y859640D03*
X159360Y872640D03*
X159360Y866140D03*
D14*
X177800Y959730D03*
X177800Y942730D03*
D10*
X211210Y967740D03*
X228210Y967740D03*
D18*
X92450Y864750D03*
X92450Y859750D03*
X92450Y854750D03*
X92450Y849750D03*
X123450Y864750D03*
X123450Y859750D03*
X123450Y854750D03*
X123450Y849750D03*
D10*
X116450Y878840D03*
X99450Y878840D03*
X299330Y840740D03*
X282330Y840740D03*
X299330Y814070D03*
X282330Y814070D03*
D11*
X273130Y932240D03*
X273130Y876240D03*
D12*
X309880Y919240D03*
X309880Y909240D03*
X309880Y899240D03*
X309880Y889240D03*
D11*
X499030Y876240D03*
X499030Y932240D03*
D12*
X462280Y889240D03*
X462280Y899240D03*
X462280Y909240D03*
X462280Y919240D03*
D10*
X275980Y967740D03*
X292980Y967740D03*
D13*
X289750Y952190D02*
X289750Y945190D01*
X289750Y952190D02*
X296750Y952190D01*
X296750Y945190D01*
X289750Y945190D01*
X289750Y948040D02*
X296750Y948040D01*
X296750Y950890D02*
X289750Y950890D01*
X272210Y952190D02*
X272210Y945190D01*
X272210Y952190D02*
X279210Y952190D01*
X279210Y945190D01*
X272210Y945190D01*
X272210Y948040D02*
X279210Y948040D01*
X279210Y950890D02*
X272210Y950890D01*
D14*
X441960Y884800D03*
X441960Y867800D03*
D15*
X408580Y894490D03*
X408580Y900990D03*
X408580Y907490D03*
X408580Y913990D03*
X363580Y913990D03*
X363580Y907490D03*
X363580Y900990D03*
X363580Y894490D03*
D14*
X335280Y893690D03*
X335280Y876690D03*
D13*
X482410Y863290D02*
X482410Y856290D01*
X475410Y856290D01*
X475410Y863290D01*
X482410Y863290D01*
X482410Y859140D02*
X475410Y859140D01*
X475410Y861990D02*
X482410Y861990D01*
X499950Y863290D02*
X499950Y856290D01*
X492950Y856290D01*
X492950Y863290D01*
X499950Y863290D01*
X499950Y859140D02*
X492950Y859140D01*
X492950Y861990D02*
X499950Y861990D01*
D10*
X496180Y840740D03*
X479180Y840740D03*
D16*
X387960Y958690D03*
X368960Y958690D03*
X378460Y937690D03*
D14*
X416560Y942730D03*
X416560Y959730D03*
X350520Y937650D03*
X350520Y954650D03*
D17*
X399440Y859640D03*
X399440Y872640D03*
X418440Y859640D03*
X418440Y872640D03*
X418440Y866140D03*
D14*
X436880Y959730D03*
X436880Y942730D03*
D10*
X470290Y967740D03*
X487290Y967740D03*
D18*
X351530Y864750D03*
X351530Y859750D03*
X351530Y854750D03*
X351530Y849750D03*
X382530Y864750D03*
X382530Y859750D03*
X382530Y854750D03*
X382530Y849750D03*
D10*
X375530Y878840D03*
X358530Y878840D03*
X558410Y840740D03*
X541410Y840740D03*
X558410Y814070D03*
X541410Y814070D03*
D11*
X532210Y932240D03*
X532210Y876240D03*
D12*
X568960Y919240D03*
X568960Y909240D03*
X568960Y899240D03*
X568960Y889240D03*
D11*
X758110Y876240D03*
X758110Y932240D03*
D12*
X721360Y889240D03*
X721360Y899240D03*
X721360Y909240D03*
X721360Y919240D03*
D10*
X535060Y967740D03*
X552060Y967740D03*
D13*
X548830Y952190D02*
X548830Y945190D01*
X548830Y952190D02*
X555830Y952190D01*
X555830Y945190D01*
X548830Y945190D01*
X548830Y948040D02*
X555830Y948040D01*
X555830Y950890D02*
X548830Y950890D01*
X531290Y952190D02*
X531290Y945190D01*
X531290Y952190D02*
X538290Y952190D01*
X538290Y945190D01*
X531290Y945190D01*
X531290Y948040D02*
X538290Y948040D01*
X538290Y950890D02*
X531290Y950890D01*
D14*
X701040Y884800D03*
X701040Y867800D03*
D15*
X667660Y894490D03*
X667660Y900990D03*
X667660Y907490D03*
X667660Y913990D03*
X622660Y913990D03*
X622660Y907490D03*
X622660Y900990D03*
X622660Y894490D03*
D14*
X594360Y893690D03*
X594360Y876690D03*
D13*
X741490Y863290D02*
X741490Y856290D01*
X734490Y856290D01*
X734490Y863290D01*
X741490Y863290D01*
X741490Y859140D02*
X734490Y859140D01*
X734490Y861990D02*
X741490Y861990D01*
X759030Y863290D02*
X759030Y856290D01*
X752030Y856290D01*
X752030Y863290D01*
X759030Y863290D01*
X759030Y859140D02*
X752030Y859140D01*
X752030Y861990D02*
X759030Y861990D01*
D10*
X755260Y840740D03*
X738260Y840740D03*
D16*
X647040Y958690D03*
X628040Y958690D03*
X637540Y937690D03*
D14*
X675640Y942730D03*
X675640Y959730D03*
X609600Y937650D03*
X609600Y954650D03*
D17*
X658520Y859640D03*
X658520Y872640D03*
X677520Y859640D03*
X677520Y872640D03*
X677520Y866140D03*
D14*
X695960Y959730D03*
X695960Y942730D03*
D10*
X729370Y967740D03*
X746370Y967740D03*
D18*
X610610Y864750D03*
X610610Y859750D03*
X610610Y854750D03*
X610610Y849750D03*
X641610Y864750D03*
X641610Y859750D03*
X641610Y854750D03*
X641610Y849750D03*
D10*
X634610Y878840D03*
X617610Y878840D03*
X817490Y840740D03*
X800490Y840740D03*
X817490Y814070D03*
X800490Y814070D03*
D11*
X791290Y932240D03*
X791290Y876240D03*
D12*
X828040Y919240D03*
X828040Y909240D03*
X828040Y899240D03*
X828040Y889240D03*
D11*
X1017190Y876240D03*
X1017190Y932240D03*
D12*
X980440Y889240D03*
X980440Y899240D03*
X980440Y909240D03*
X980440Y919240D03*
D10*
X794140Y967740D03*
X811140Y967740D03*
D13*
X807910Y952190D02*
X807910Y945190D01*
X807910Y952190D02*
X814910Y952190D01*
X814910Y945190D01*
X807910Y945190D01*
X807910Y948040D02*
X814910Y948040D01*
X814910Y950890D02*
X807910Y950890D01*
X790370Y952190D02*
X790370Y945190D01*
X790370Y952190D02*
X797370Y952190D01*
X797370Y945190D01*
X790370Y945190D01*
X790370Y948040D02*
X797370Y948040D01*
X797370Y950890D02*
X790370Y950890D01*
D14*
X960120Y884800D03*
X960120Y867800D03*
D15*
X926740Y894490D03*
X926740Y900990D03*
X926740Y907490D03*
X926740Y913990D03*
X881740Y913990D03*
X881740Y907490D03*
X881740Y900990D03*
X881740Y894490D03*
D14*
X853440Y893690D03*
X853440Y876690D03*
D13*
X1000570Y863290D02*
X1000570Y856290D01*
X993570Y856290D01*
X993570Y863290D01*
X1000570Y863290D01*
X1000570Y859140D02*
X993570Y859140D01*
X993570Y861990D02*
X1000570Y861990D01*
X1018110Y863290D02*
X1018110Y856290D01*
X1011110Y856290D01*
X1011110Y863290D01*
X1018110Y863290D01*
X1018110Y859140D02*
X1011110Y859140D01*
X1011110Y861990D02*
X1018110Y861990D01*
D10*
X1014340Y840740D03*
X997340Y840740D03*
D16*
X906120Y958690D03*
X887120Y958690D03*
X896620Y937690D03*
D14*
X934720Y942730D03*
X934720Y959730D03*
X868680Y937650D03*
X868680Y954650D03*
D17*
X917600Y859640D03*
X917600Y872640D03*
X936600Y859640D03*
X936600Y872640D03*
X936600Y866140D03*
D14*
X955040Y959730D03*
X955040Y942730D03*
D10*
X988450Y967740D03*
X1005450Y967740D03*
D18*
X869690Y864750D03*
X869690Y859750D03*
X869690Y854750D03*
X869690Y849750D03*
X900690Y864750D03*
X900690Y859750D03*
X900690Y854750D03*
X900690Y849750D03*
D10*
X893690Y878840D03*
X876690Y878840D03*
X1076570Y840740D03*
X1059570Y840740D03*
X1076570Y814070D03*
X1059570Y814070D03*
D11*
X1050370Y932240D03*
X1050370Y876240D03*
D12*
X1087120Y919240D03*
X1087120Y909240D03*
X1087120Y899240D03*
X1087120Y889240D03*
D11*
X1276270Y876240D03*
X1276270Y932240D03*
D12*
X1239520Y889240D03*
X1239520Y899240D03*
X1239520Y909240D03*
X1239520Y919240D03*
D10*
X1053220Y967740D03*
X1070220Y967740D03*
D13*
X1066990Y952190D02*
X1066990Y945190D01*
X1066990Y952190D02*
X1073990Y952190D01*
X1073990Y945190D01*
X1066990Y945190D01*
X1066990Y948040D02*
X1073990Y948040D01*
X1073990Y950890D02*
X1066990Y950890D01*
X1049450Y952190D02*
X1049450Y945190D01*
X1049450Y952190D02*
X1056450Y952190D01*
X1056450Y945190D01*
X1049450Y945190D01*
X1049450Y948040D02*
X1056450Y948040D01*
X1056450Y950890D02*
X1049450Y950890D01*
D14*
X1219200Y884800D03*
X1219200Y867800D03*
D15*
X1185820Y894490D03*
X1185820Y900990D03*
X1185820Y907490D03*
X1185820Y913990D03*
X1140820Y913990D03*
X1140820Y907490D03*
X1140820Y900990D03*
X1140820Y894490D03*
D14*
X1112520Y893690D03*
X1112520Y876690D03*
D13*
X1259650Y863290D02*
X1259650Y856290D01*
X1252650Y856290D01*
X1252650Y863290D01*
X1259650Y863290D01*
X1259650Y859140D02*
X1252650Y859140D01*
X1252650Y861990D02*
X1259650Y861990D01*
X1277190Y863290D02*
X1277190Y856290D01*
X1270190Y856290D01*
X1270190Y863290D01*
X1277190Y863290D01*
X1277190Y859140D02*
X1270190Y859140D01*
X1270190Y861990D02*
X1277190Y861990D01*
D10*
X1273420Y840740D03*
X1256420Y840740D03*
D16*
X1165200Y958690D03*
X1146200Y958690D03*
X1155700Y937690D03*
D14*
X1193800Y942730D03*
X1193800Y959730D03*
X1127760Y937650D03*
X1127760Y954650D03*
D17*
X1176680Y859640D03*
X1176680Y872640D03*
X1195680Y859640D03*
X1195680Y872640D03*
X1195680Y866140D03*
D14*
X1214120Y959730D03*
X1214120Y942730D03*
D10*
X1247530Y967740D03*
X1264530Y967740D03*
D18*
X1128770Y864750D03*
X1128770Y859750D03*
X1128770Y854750D03*
X1128770Y849750D03*
X1159770Y864750D03*
X1159770Y859750D03*
X1159770Y854750D03*
X1159770Y849750D03*
D10*
X1152770Y878840D03*
X1135770Y878840D03*
X40250Y1099820D03*
X23250Y1099820D03*
X40250Y1073150D03*
X23250Y1073150D03*
D11*
X14050Y1191320D03*
X14050Y1135320D03*
D12*
X50800Y1178320D03*
X50800Y1168320D03*
X50800Y1158320D03*
X50800Y1148320D03*
D11*
X239950Y1135320D03*
X239950Y1191320D03*
D12*
X203200Y1148320D03*
X203200Y1158320D03*
X203200Y1168320D03*
X203200Y1178320D03*
D10*
X16900Y1226820D03*
X33900Y1226820D03*
D13*
X30670Y1211270D02*
X30670Y1204270D01*
X30670Y1211270D02*
X37670Y1211270D01*
X37670Y1204270D01*
X30670Y1204270D01*
X30670Y1207120D02*
X37670Y1207120D01*
X37670Y1209970D02*
X30670Y1209970D01*
X13130Y1211270D02*
X13130Y1204270D01*
X13130Y1211270D02*
X20130Y1211270D01*
X20130Y1204270D01*
X13130Y1204270D01*
X13130Y1207120D02*
X20130Y1207120D01*
X20130Y1209970D02*
X13130Y1209970D01*
D14*
X182880Y1143880D03*
X182880Y1126880D03*
D15*
X149500Y1153570D03*
X149500Y1160070D03*
X149500Y1166570D03*
X149500Y1173070D03*
X104500Y1173070D03*
X104500Y1166570D03*
X104500Y1160070D03*
X104500Y1153570D03*
D14*
X76200Y1152770D03*
X76200Y1135770D03*
D13*
X223330Y1122370D02*
X223330Y1115370D01*
X216330Y1115370D01*
X216330Y1122370D01*
X223330Y1122370D01*
X223330Y1118220D02*
X216330Y1118220D01*
X216330Y1121070D02*
X223330Y1121070D01*
X240870Y1122370D02*
X240870Y1115370D01*
X233870Y1115370D01*
X233870Y1122370D01*
X240870Y1122370D01*
X240870Y1118220D02*
X233870Y1118220D01*
X233870Y1121070D02*
X240870Y1121070D01*
D10*
X237100Y1099820D03*
X220100Y1099820D03*
D16*
X128880Y1217770D03*
X109880Y1217770D03*
X119380Y1196770D03*
D14*
X157480Y1201810D03*
X157480Y1218810D03*
X91440Y1196730D03*
X91440Y1213730D03*
D17*
X140360Y1118720D03*
X140360Y1131720D03*
X159360Y1118720D03*
X159360Y1131720D03*
X159360Y1125220D03*
D14*
X177800Y1218810D03*
X177800Y1201810D03*
D10*
X211210Y1226820D03*
X228210Y1226820D03*
D18*
X92450Y1123830D03*
X92450Y1118830D03*
X92450Y1113830D03*
X92450Y1108830D03*
X123450Y1123830D03*
X123450Y1118830D03*
X123450Y1113830D03*
X123450Y1108830D03*
D10*
X116450Y1137920D03*
X99450Y1137920D03*
X299330Y1099820D03*
X282330Y1099820D03*
X299330Y1073150D03*
X282330Y1073150D03*
D11*
X273130Y1191320D03*
X273130Y1135320D03*
D12*
X309880Y1178320D03*
X309880Y1168320D03*
X309880Y1158320D03*
X309880Y1148320D03*
D11*
X499030Y1135320D03*
X499030Y1191320D03*
D12*
X462280Y1148320D03*
X462280Y1158320D03*
X462280Y1168320D03*
X462280Y1178320D03*
D10*
X275980Y1226820D03*
X292980Y1226820D03*
D13*
X289750Y1211270D02*
X289750Y1204270D01*
X289750Y1211270D02*
X296750Y1211270D01*
X296750Y1204270D01*
X289750Y1204270D01*
X289750Y1207120D02*
X296750Y1207120D01*
X296750Y1209970D02*
X289750Y1209970D01*
X272210Y1211270D02*
X272210Y1204270D01*
X272210Y1211270D02*
X279210Y1211270D01*
X279210Y1204270D01*
X272210Y1204270D01*
X272210Y1207120D02*
X279210Y1207120D01*
X279210Y1209970D02*
X272210Y1209970D01*
D14*
X441960Y1143880D03*
X441960Y1126880D03*
D15*
X408580Y1153570D03*
X408580Y1160070D03*
X408580Y1166570D03*
X408580Y1173070D03*
X363580Y1173070D03*
X363580Y1166570D03*
X363580Y1160070D03*
X363580Y1153570D03*
D14*
X335280Y1152770D03*
X335280Y1135770D03*
D13*
X482410Y1122370D02*
X482410Y1115370D01*
X475410Y1115370D01*
X475410Y1122370D01*
X482410Y1122370D01*
X482410Y1118220D02*
X475410Y1118220D01*
X475410Y1121070D02*
X482410Y1121070D01*
X499950Y1122370D02*
X499950Y1115370D01*
X492950Y1115370D01*
X492950Y1122370D01*
X499950Y1122370D01*
X499950Y1118220D02*
X492950Y1118220D01*
X492950Y1121070D02*
X499950Y1121070D01*
D10*
X496180Y1099820D03*
X479180Y1099820D03*
D16*
X387960Y1217770D03*
X368960Y1217770D03*
X378460Y1196770D03*
D14*
X416560Y1201810D03*
X416560Y1218810D03*
X350520Y1196730D03*
X350520Y1213730D03*
D17*
X399440Y1118720D03*
X399440Y1131720D03*
X418440Y1118720D03*
X418440Y1131720D03*
X418440Y1125220D03*
D14*
X436880Y1218810D03*
X436880Y1201810D03*
D10*
X470290Y1226820D03*
X487290Y1226820D03*
D18*
X351530Y1123830D03*
X351530Y1118830D03*
X351530Y1113830D03*
X351530Y1108830D03*
X382530Y1123830D03*
X382530Y1118830D03*
X382530Y1113830D03*
X382530Y1108830D03*
D10*
X375530Y1137920D03*
X358530Y1137920D03*
X558410Y1099820D03*
X541410Y1099820D03*
X558410Y1073150D03*
X541410Y1073150D03*
D11*
X532210Y1191320D03*
X532210Y1135320D03*
D12*
X568960Y1178320D03*
X568960Y1168320D03*
X568960Y1158320D03*
X568960Y1148320D03*
D11*
X758110Y1135320D03*
X758110Y1191320D03*
D12*
X721360Y1148320D03*
X721360Y1158320D03*
X721360Y1168320D03*
X721360Y1178320D03*
D10*
X535060Y1226820D03*
X552060Y1226820D03*
D13*
X548830Y1211270D02*
X548830Y1204270D01*
X548830Y1211270D02*
X555830Y1211270D01*
X555830Y1204270D01*
X548830Y1204270D01*
X548830Y1207120D02*
X555830Y1207120D01*
X555830Y1209970D02*
X548830Y1209970D01*
X531290Y1211270D02*
X531290Y1204270D01*
X531290Y1211270D02*
X538290Y1211270D01*
X538290Y1204270D01*
X531290Y1204270D01*
X531290Y1207120D02*
X538290Y1207120D01*
X538290Y1209970D02*
X531290Y1209970D01*
D14*
X701040Y1143880D03*
X701040Y1126880D03*
D15*
X667660Y1153570D03*
X667660Y1160070D03*
X667660Y1166570D03*
X667660Y1173070D03*
X622660Y1173070D03*
X622660Y1166570D03*
X622660Y1160070D03*
X622660Y1153570D03*
D14*
X594360Y1152770D03*
X594360Y1135770D03*
D13*
X741490Y1122370D02*
X741490Y1115370D01*
X734490Y1115370D01*
X734490Y1122370D01*
X741490Y1122370D01*
X741490Y1118220D02*
X734490Y1118220D01*
X734490Y1121070D02*
X741490Y1121070D01*
X759030Y1122370D02*
X759030Y1115370D01*
X752030Y1115370D01*
X752030Y1122370D01*
X759030Y1122370D01*
X759030Y1118220D02*
X752030Y1118220D01*
X752030Y1121070D02*
X759030Y1121070D01*
D10*
X755260Y1099820D03*
X738260Y1099820D03*
D16*
X647040Y1217770D03*
X628040Y1217770D03*
X637540Y1196770D03*
D14*
X675640Y1201810D03*
X675640Y1218810D03*
X609600Y1196730D03*
X609600Y1213730D03*
D17*
X658520Y1118720D03*
X658520Y1131720D03*
X677520Y1118720D03*
X677520Y1131720D03*
X677520Y1125220D03*
D14*
X695960Y1218810D03*
X695960Y1201810D03*
D10*
X729370Y1226820D03*
X746370Y1226820D03*
D18*
X610610Y1123830D03*
X610610Y1118830D03*
X610610Y1113830D03*
X610610Y1108830D03*
X641610Y1123830D03*
X641610Y1118830D03*
X641610Y1113830D03*
X641610Y1108830D03*
D10*
X634610Y1137920D03*
X617610Y1137920D03*
X817490Y1099820D03*
X800490Y1099820D03*
X817490Y1073150D03*
X800490Y1073150D03*
D11*
X791290Y1191320D03*
X791290Y1135320D03*
D12*
X828040Y1178320D03*
X828040Y1168320D03*
X828040Y1158320D03*
X828040Y1148320D03*
D11*
X1017190Y1135320D03*
X1017190Y1191320D03*
D12*
X980440Y1148320D03*
X980440Y1158320D03*
X980440Y1168320D03*
X980440Y1178320D03*
D10*
X794140Y1226820D03*
X811140Y1226820D03*
D13*
X807910Y1211270D02*
X807910Y1204270D01*
X807910Y1211270D02*
X814910Y1211270D01*
X814910Y1204270D01*
X807910Y1204270D01*
X807910Y1207120D02*
X814910Y1207120D01*
X814910Y1209970D02*
X807910Y1209970D01*
X790370Y1211270D02*
X790370Y1204270D01*
X790370Y1211270D02*
X797370Y1211270D01*
X797370Y1204270D01*
X790370Y1204270D01*
X790370Y1207120D02*
X797370Y1207120D01*
X797370Y1209970D02*
X790370Y1209970D01*
D14*
X960120Y1143880D03*
X960120Y1126880D03*
D15*
X926740Y1153570D03*
X926740Y1160070D03*
X926740Y1166570D03*
X926740Y1173070D03*
X881740Y1173070D03*
X881740Y1166570D03*
X881740Y1160070D03*
X881740Y1153570D03*
D14*
X853440Y1152770D03*
X853440Y1135770D03*
D13*
X1000570Y1122370D02*
X1000570Y1115370D01*
X993570Y1115370D01*
X993570Y1122370D01*
X1000570Y1122370D01*
X1000570Y1118220D02*
X993570Y1118220D01*
X993570Y1121070D02*
X1000570Y1121070D01*
X1018110Y1122370D02*
X1018110Y1115370D01*
X1011110Y1115370D01*
X1011110Y1122370D01*
X1018110Y1122370D01*
X1018110Y1118220D02*
X1011110Y1118220D01*
X1011110Y1121070D02*
X1018110Y1121070D01*
D10*
X1014340Y1099820D03*
X997340Y1099820D03*
D16*
X906120Y1217770D03*
X887120Y1217770D03*
X896620Y1196770D03*
D14*
X934720Y1201810D03*
X934720Y1218810D03*
X868680Y1196730D03*
X868680Y1213730D03*
D17*
X917600Y1118720D03*
X917600Y1131720D03*
X936600Y1118720D03*
X936600Y1131720D03*
X936600Y1125220D03*
D14*
X955040Y1218810D03*
X955040Y1201810D03*
D10*
X988450Y1226820D03*
X1005450Y1226820D03*
D18*
X869690Y1123830D03*
X869690Y1118830D03*
X869690Y1113830D03*
X869690Y1108830D03*
X900690Y1123830D03*
X900690Y1118830D03*
X900690Y1113830D03*
X900690Y1108830D03*
D10*
X893690Y1137920D03*
X876690Y1137920D03*
X1076570Y1099820D03*
X1059570Y1099820D03*
X1076570Y1073150D03*
X1059570Y1073150D03*
D11*
X1050370Y1191320D03*
X1050370Y1135320D03*
D12*
X1087120Y1178320D03*
X1087120Y1168320D03*
X1087120Y1158320D03*
X1087120Y1148320D03*
D11*
X1276270Y1135320D03*
X1276270Y1191320D03*
D12*
X1239520Y1148320D03*
X1239520Y1158320D03*
X1239520Y1168320D03*
X1239520Y1178320D03*
D10*
X1053220Y1226820D03*
X1070220Y1226820D03*
D13*
X1066990Y1211270D02*
X1066990Y1204270D01*
X1066990Y1211270D02*
X1073990Y1211270D01*
X1073990Y1204270D01*
X1066990Y1204270D01*
X1066990Y1207120D02*
X1073990Y1207120D01*
X1073990Y1209970D02*
X1066990Y1209970D01*
X1049450Y1211270D02*
X1049450Y1204270D01*
X1049450Y1211270D02*
X1056450Y1211270D01*
X1056450Y1204270D01*
X1049450Y1204270D01*
X1049450Y1207120D02*
X1056450Y1207120D01*
X1056450Y1209970D02*
X1049450Y1209970D01*
D14*
X1219200Y1143880D03*
X1219200Y1126880D03*
D15*
X1185820Y1153570D03*
X1185820Y1160070D03*
X1185820Y1166570D03*
X1185820Y1173070D03*
X1140820Y1173070D03*
X1140820Y1166570D03*
X1140820Y1160070D03*
X1140820Y1153570D03*
D14*
X1112520Y1152770D03*
X1112520Y1135770D03*
D13*
X1259650Y1122370D02*
X1259650Y1115370D01*
X1252650Y1115370D01*
X1252650Y1122370D01*
X1259650Y1122370D01*
X1259650Y1118220D02*
X1252650Y1118220D01*
X1252650Y1121070D02*
X1259650Y1121070D01*
X1277190Y1122370D02*
X1277190Y1115370D01*
X1270190Y1115370D01*
X1270190Y1122370D01*
X1277190Y1122370D01*
X1277190Y1118220D02*
X1270190Y1118220D01*
X1270190Y1121070D02*
X1277190Y1121070D01*
D10*
X1273420Y1099820D03*
X1256420Y1099820D03*
D16*
X1165200Y1217770D03*
X1146200Y1217770D03*
X1155700Y1196770D03*
D14*
X1193800Y1201810D03*
X1193800Y1218810D03*
X1127760Y1196730D03*
X1127760Y1213730D03*
D17*
X1176680Y1118720D03*
X1176680Y1131720D03*
X1195680Y1118720D03*
X1195680Y1131720D03*
X1195680Y1125220D03*
D14*
X1214120Y1218810D03*
X1214120Y1201810D03*
D10*
X1247530Y1226820D03*
X1264530Y1226820D03*
D18*
X1128770Y1123830D03*
X1128770Y1118830D03*
X1128770Y1113830D03*
X1128770Y1108830D03*
X1159770Y1123830D03*
X1159770Y1118830D03*
X1159770Y1113830D03*
X1159770Y1108830D03*
D10*
X1152770Y1137920D03*
X1135770Y1137920D03*
M02*
